<?xml version="1.0" encoding="UTF-8"?><svg xmlns="http://www.w3.org/2000/svg" xmlns:xlink="http://www.w3.org/1999/xlink" viewBox="0 0 1693.3333333333 1026.6666666667"><defs><style>.cls-1{fill:none;}.cls-1,.cls-2,.cls-3{stroke-width:0px;}.cls-2{fill:url(#Nueva_muestra_de_motivo_7);mix-blend-mode:multiply;opacity:.15;}.cls-4{isolation:isolate;}</style><pattern id="Nueva_muestra_de_motivo_7" x="0" y="0" width="120.7712119845" height="120.7712119845" patternTransform="translate(-1270.2681827755 -29)" patternUnits="userSpaceOnUse" viewBox="0 0 120.7712119845 120.7712119845"><rect class="cls-1" width="120.7712119845" height="120.7712119845"/><path class="cls-3" d="m0,77.6651793992c1.1960047749-.3086585846,2.3881165984-.633772156,3.5898772808-.9180941438.5001469711-.1183432225.8304860055.1222783572.971810995.6219270604.0911318222.3221990769.1604478163.6505786968.2527214796,1.0304439407.3899242172-.2477660606.7349920099-.4725223567,1.0854677777-.6885011477.5886938804-.3627808623,1.1721420959-.0934452737,1.2497476015.5821901382.1269605431,1.1053192344.2434021139,2.211840556.3657931661,3.3176927914.0148070783.1337832395.038980656.2665288283.0710195416.4817421392.7151270928-.4020131347,1.3811110726-.7771437425,2.0479066031-1.1508227733.215776788-.120923174.4273377653-.2520584194.6520090067-.3538332506.3989051415-.1806816533.8387138532-.0233272971,1.0334002473.3514630974.1842163274.354632752.0881577903.8019793189-.2796596454,1.0144312312-1.244577067.7188595212-2.4918120509,1.4346571219-3.7599311745,2.1105420236-.5902928833.3146179888-1.1036621054-.0595883727-1.1738672612-.7723070424-.1148376066-1.1658261831-.2405393601-2.3305750239-.3700759564-3.5767652765-.3073076522.1951860835-.5623606566.3545363582-.8147628318.517986204-.7384926637.4782322712-1.2630038738.2656159224-1.4620162935-.5920506558-.0867870139-.3740192441-.178857258-.7468137201-.2810885416-1.1724546737-.675428622.1714051686-1.3097961478.3578817897-1.9556426854.486902042-.3985247935.0796156-.8145434207.0716602772-1.2227086619.1030222802.0000000498-.4645046615.0000000498-.929009323-.0000006479-1.3935139844Z"/><path class="cls-3" d="m115.4758588742,120.7712119845c-.8846114724-.8168182923-1.7667280467-1.6363582916-2.6547076315-2.449490939-.6092200873-.5578592116-.547800233-1.1252443977.1997392714-1.4848499352.9464736041-.455284879,1.9082341291-.8787598075,2.8627594496-1.3173855715.1222046436-.0561578878.2404741526-.1209118335.413019035-.2082332665-.2740078507-.219312882-.5097530374-.4127695476-.7505107011-.5997848399-.6385351396-.4959970796-.6170903566-1.0865281156.0654683934-1.5301663568.3460083409-.2248810409.7020756573-.4343050542,1.0766052193-.664878999-.4684624744-.7320598001-.9120666916-1.4162515783-1.3456346143-2.1067486445-.2060445592-.3281471407-.2715809953-.7178615619.020503526-.9815722894.195531966-.1765367203.5422207337-.2387390658.8238607044-.245588695.1526764214-.0036969853.3564755724.1852802041.458913819.3393855226.5901114362.8876960788,1.1646637807,1.7860748575,1.7286695107,2.6906908815.3584601504.5749265826.2382400848.9948973133-.3499094543,1.3551038944-.2362214854.1446587271-.4700387963.2932412484-.7511230852.468893414.3167386504.2557157132.5971992148.4903495375.8862444966.713869725.6693471308.5175892884.6113407506,1.1945572027-.1537197424,1.5522802261-1.0212978653.4775461742-2.0521670668.9346115032-3.0784433878,1.4015543605-.0694035281.0315831417-.134679134.0722046186-.2657179849.1432411714.6704698349.6071674701,1.3002841717,1.2093338036,1.9663765945,1.7682703576.3755842235.3151736707.5906104158.6599799264.5198233533,1.1554099836h-1.6722167717Z"/><path class="cls-3" d="m87.0481737559,120.7712119845c.0281243055-1.0829105134.0499263125-2.1660478357.0871683364-3.2486521571.0174642865-.5076437174.3617261988-.8242916461.8745298161-.8167162283.3224995968.0047856681.6445682568.0387503034,1.0551717768.0653436489-.1196870647-.4070539629-.2295816544-.76537803-.3302678022-1.1262650378-.2342142265-.8394765031.1871400361-1.301168734,1.0435705008-1.15251817,1.1724376563.2035043005,2.3455047073.4034023393,3.5890866502.6169996366-.1056419226-.4721708029-.2019506583-.9122254631-.3028692852-1.3512141215-.1177194973-.5120438104-.2398504281-1.0230896616-.3593220243-1.5347365564-.1044455056-.4473125456.1204128532-.8882177393.5100365486-1.0020984964.4402871369-.1287027198.8733844311.1005784141.9960993948.5813339345.343847986,1.347029497.6785385621,2.6967807009.9877414862,4.0521114042.1538671682.6744616757-.2922206066,1.1282042541-.9744958456,1.0187802922-1.022409229-.1639715064-2.041081781-.3511342244-3.06171056-.5263214317-.1644818255-.0282150292-.3308575054-.0454411665-.5690465581-.0775573091.0983556862.340973185.173196958.6331030697.2669087317.9190524115.2613745941.7975508748-.1052733581,1.2760950082-.9448008883,1.2236681271-.3835508867-.0239396812-.7670904329-.0481288521-1.2884844379-.0808687193v2.4396587724h-1.5793158399Z"/><path class="cls-3" d="m.0000006534,5.2953534952c.4783617976.1074099696.9597556139.2031492028,1.4340130561.3263581854.3129881523.0813120598.6146284168.2055094331.9232683941.3045246377.6023048961.1932241864.737754826.3826875974.7120183931,1.010280628q-.0375549493.9157863631.8446626258,1.1413017602c.9062206918.2316512871,1.0027161905.3596707451,1.0938877043,1.2829588131.0698156824.7070200957.1743373816,1.4105778115.2606261247,2.1160180414.0690516199.5645238499-.2144588156.989617627-.7031912736,1.0614324178-.4683671437.0688251658-.7919990132-.2397738814-.8728450511-.8494008107-.0792197471-.5973622371-.1302308441-1.1990650299-.2310268525-1.792509143-.0229296726-.1350023375-.1774871904-.3043003095-.3100959843-.3533427763-.3897271769-.1441335227-.800906579-.2290380231-1.1999006721-.3496564226-.4655267165-.1407306802-.6579551214-.4300864084-.6177970082-.8998948546q.0856240867-1.00171363-.8442910933-1.3090503438c-.1581121717-.0518166234-.3259719217-.0738900924-.4893283409-.1097046379.0000000221-.5264383801.0000000221-1.0528771146-.0000000221-1.5793154946Z"/><path class="cls-3" d="m88.6274895958,0c.010455891.4122898378-.1573146637.7592452409-.5479249779.8651255793-.2290032917.0620745882-.5784988197.0025262615-.7521550658-.145249582-.1724258077-.1467155562-.1924076732-.4725763124-.2792357962-.7198757536.5264405034-.0000002436,1.0528753365-.0000002436,1.5793158399-.0000002436Z"/><path class="cls-3" d="m120.7712119845,6.7817680576c-.3489795377-.0688379238-.5317081404-.2859323311-.5626675574-.635367615-.0382966854-.4321975032.1697891541-.7031083507.5626675574-.8510473017v1.4864149167Z"/><path class="cls-3" d="m117.0551747141,0c-.3515084571.6410848388-.824563812.6410848388-1.4864149081,0h1.4864149081Z"/><path class="cls-3" d="m120.7712119845,78.9657924514c-.4148561872-.4930599041-.4148561872-.8035216195,0-1.2077121198v1.2077121198Z"/><path class="cls-3" d="m68.6701251798,90.3545315769c-1.030551669,0-2.0021613712-.0030505799-2.9737427222.0008448632-.9890002757.003969156-1.9779722003.019789078-2.9669611356.0207870372-.6405707496.0006464054-.973996866-.3533512816-.9257943012-.9965983801.0554717905-.7403099745.109316227-1.4825705056.2159958004-2.2164050855.0495464076-.3408824614-.0625482287-.4780564943-.3578250854-.5663532055-.2654684951-.0793831209-.5309823519-.1695623462-.7806932976-.2881890798-.4045817433-.1921808654-.5514915481-.6084319298-.3847699846-1.012645111.1484124138-.3598266762.5756126762-.5693981152.9599460537-.4434114322.5430145649.1780166485,1.0799222997.3749491607,1.6176011848.5688877952.4382628673.1580744745.6261740537.4723919416.5774158071.9369873266-.0419823302.4000002056-.0754082941.8009927001-.1063733813,1.2020305565-.0295588719.3827570577-.0510603571.7661321696-.0805795374,1.2176066588.3684510831,0,.7040488948.0026309834,1.0395900043-.0004422774,1.6394542238-.0150147503,3.2788630859-.0347017643,4.9183399906-.0460535505.6819010042-.0047232957.9937008905.3411943237.913093002,1.0165518946-.1447381094,1.2127983098-.2795986905,2.4274677932-.4627015279,3.6346639227-.076219136.5024838146.009769794.8386373101.5343958261.9772515796.058715158.0155194001.1134668302.0491211411.1674133307.0790996097.5322298009.2957531572.7148336588.7093959191.4996316896,1.1289583937-.2293718562.4471878007-.691614096.5587891282-1.2330806901.2879339198-.3872365315-.1936948149-.7623387861-.4125654195-1.1544460391-.5953507255-.4113746704-.1917442582-.5621345564-.5028637195-.5062998717-.9368795924.1439102568-1.1187066307.2880983546-2.2373792401.4301487783-3.3563183499.0231174987-.1820368366.0359095215-.3653948351.0596961065-.6129567677Z"/><path class="cls-3" d="m40.7058220162,59.7045555175c-1.0447414018.9643348117-2.043624876,1.8850542688-3.0409462038,2.8074691225-.4655451447.430585388-.9235687387.8693925992-1.3933438697,1.2952717022-.381498266.3458495767-.9036775968.3007032618-1.2212894616-.1057780085-.4476215702-.5728739619-.9088176539-1.1376508455-1.3165605465-1.738240857-.2492006256-.3670618806-.4970262222-.4497961032-.873764336-.2315832444-.1730296865.1002268603-.3616383103.1769052848-.5494701136.2475392517-.4093333901.1539295416-.8322412938-.0233669886-1.0020361181-.4096622654-.174189247-.3962862095-.0379848231-.8481009121.3525262621-1.0293269068.5604079736-.2600647742,1.1328935219-.4954924297,1.7074657122-.7231575501.3849967935-.1525516774.6944151861.0050691793.9332818305.3104617154.494579521.632320579.9813653206,1.2707366476,1.5010866099,1.9452323446.7341124166-.6758338696,1.4583643155-1.3393179938,2.1788795376-2.0068336464.7147826267-.6622026538,1.4178619135-1.3372597029,2.1409032198-1.9902595848.6068300883-.5480383855,1.0547323345-.4670052298,1.5267500386.2155648647.7210255421,1.0426462605,1.4602610051,2.0727046261,2.1812893823,3.1153508865.1514828395.2190633922.2988774483.3228001205.5701040547.2089193634.197567576-.0829553613.4133053813-.1276537286.6246147424-.171847446.486516464-.1017351396.8496290323.1097981966.9709973181.5536745871.1205290928.4407974595-.0885802219.8193018499-.5582277729.9650095683-.4422178477.1371967137-.8905850522.2553698296-1.3386517349.3727264333-.556169482.145673697-.8209972418.0476298725-1.151951141-.4240646316-.7363578248-1.0494902195-1.4693702182-2.1013335816-2.2416574103-3.2064656986Z"/><path class="cls-3" d="m45.1891963741,113.563746271c-.2404628121,1.1083131121-.4688225335,2.1611487631-.6973211754,3.2139503929-.1899524667.8751648861-.3725931809,1.7520194987-.5727378732,2.6248595934-.1329128596.5796328676-.5360175098.819505978-1.1085540902.6523591468-.7551687892-.220480948-1.5081290267-.4511909781-2.2514640608-.7081087785-.2595884739-.089714267-.4029232031-.0397029009-.529255769.1854843321-.1284929208.2290089632-.2600761131.4588117577-.415664194.6695626031-.3021094753.4091859667-.7289043168.4981744452-1.0895134817.2481743167-.3917897205-.2716263587-.4792415681-.7106830597-.2149723252-1.137129185.2682667501-.4328988389.5481404464-.8585851543.8203735173-1.2890457974.2861166117-.4524044058.6092994704-.5831710867,1.1310932261-.4256069323.7369588685.2225335687,1.4698380115.4585622679,2.2598418151.7061809027.1368508293-.6028240794.2699593116-1.1685989222.3932611434-1.7364944283.2849372053-1.3123163922.5589450561-2.627036959.8493653669-3.9381172427.199041834-.8985715663.5706030343-1.0733731985,1.4358280147-.7489343835,1.1995696728.4497961032,2.4056459264.8827629848,3.6161477889,1.3020986505.1186324032.0410864353.3239398335-.0214561235.4253971316-.1093218979.1841461584-.1595147111.3105410968-.3834998569.4787595991-.5640737759.3285950864-.3526651846.8331428593-.3825812808,1.1635580873-.0827398928.3270868072.2968248293.3460933943.7336134412.0368734594,1.1195855152-.2992176617.3734975836-.6065494123.740553794-.9139378652,1.1074058764-.2787651677.3326833191-.6145784479.4297235141-1.0342826757.275652217-1.230483728-.4516899577-2.4654526023-.8911662552-3.7827956395-1.3657412326Z"/><path class="cls-3" d="m4.9345281115,98.8487579878c.6567882959,1.290077778,1.2932796745,2.5410536987,1.9305411403,3.7916327038.2594460096.5091406563.52740515,1.0140853476.7790290872,1.5270477342.2608281264.5317308244.1343382118.9239174628-.4240965242,1.1722505457-.705299179.3136313701-1.4256074379.595770322-2.1497749923.86356361-.2822130176.104366123-.395077741.247800082-.3423510472.5457929772.0483840119.2734635109.084601143.5518034135.0929126266.8289865907.0128161213.4273873823-.3093797643.7833412962-.7162437723.8260040534-.3511313873.0367997467-.7814066825-.272091317-.8414437112-.656815942-.0953107765-.610751051-.1670908368-1.2262424083-.2196109219-1.8422214049-.0342591323-.4018033364.1777983439-.6664439805.5557633523-.8135182226.7466244721-.2905422223,1.4887513944-.5926290185,2.2717542446-.9055459405-.4666029957-.9176235153-.9182773576-1.8098217511-1.3735764096-2.7001714942-.4576564471-.8949653046-.9290947253-1.7830469585-1.3747533352-2.6839206353-.2629195527-.5314813346-.0860427972-.9695967786.4895500333-1.1817084775,1.2607513777-.4646067255,2.5268515476-.915809044,3.800516858-1.3434345756.2991524541-.1004309883.3818505286-.2542641361.3622414803-.535586576-.0139459132-.2000794859-.0079220101-.4027445934.0048643425-.6032550163.0312471808-.4900093242.343187405-.8055912509.783617715-.8047066961.4130006068.0008335228.7830981809.3534760265.7942685199.8094696834.0128706972.525436877-.0081133802,1.0522459479-.0299153872,1.5778302506-.01869756.4507146793-.3084863498.6797803448-.7054699944.8175781022-1.1531128279.4002496954-2.3043403067.8059428047-3.4560150244,1.2103317628-.0570020419.0200158869-.1112565064.0478566814-.2318082801.100396967Z"/><path class="cls-3" d="m43.1226836434,88.8887732822c1.6250178364-.9433379763,3.2018217675-1.8585629873,4.7784187356-2.7741452224.1203391403-.0698798272.2380983292-.1442448008.3589534598-.2131947115.6224713982-.3551374018,1.0787315529-.1911829061,1.3571791881.4810730528.4965357479,1.1987815187,1.0068444671,2.3920345702,1.4864602699,3.5975126222.1140792142.2867488432.2695510555.3712861967.5538446906.3386710745.2295986651-.0263325152.4643629032-.032660484.6950899427-.018796789.4393005181.0263948877.7395388199.3253630613.7597474942.7297350087.0200952699.4020244751-.249693935.7738209919-.6724147213.8120156135-.5995523573.0541733098-1.2091466793.0943525094-1.8052912326.0400034227-.22946825-.0209287928-.5323091841-.2729985526-.633176779-.4959857391-.5468306249-1.2089255475-1.0409168365-2.4417057229-1.5757549399-3.7202616079-.4307725028.2368282006-.8468137666.4545874416-1.2522743945.690519747-1.2422834618.7228683688-2.4784033913,1.4563343842-3.7210866038,2.1785109857-.7664808839.4454300316-1.1380959514.3407803974-1.519305036-.4386030832-.3052677895-.6241100962-.6024923678-1.2535388615-.8672719308-1.8954647981-.1275715096-.3092823091-.3001617538-.3866241497-.6035867208-.3055342917-.2381068345.0636255714-.4829640694.1099512926-.727790118.1387503548-.4439699466.0522170829-.8264831825-.2228114096-.8962325942-.6247054696-.0782150545-.4506693176.1562571672-.8244050506.6232765698-.9265144249.5879113897-.1285496238,1.1797465736-.2481913274,1.7757777224-.3273022775.3836727964-.050924272.6812517637.1246938722.8508396249.5010265673.3290770554.730250999.672686892,1.4539415501,1.0345973731,2.2326899657Z"/><path class="cls-3" d="m78.595515798,23.1362531008c-.0644874449,1.3145759761-.1280619839,2.5783722708-.1878658246,3.8423471776-.0343728911.7263754016-.0578929757,1.4532838042-.0951576805,2.1794976045-.0301825964.5882431011-.4492007272.9372283111-1.0342486544.8320031493-1.2465247885-.2241921089-2.4937583549-.448900208-3.7308138712-.7187262709-.4140226644-.0903068053-.6729307116-.0357224044-.846796756.3606290127-.0800295258.182453598-.1867941525.3581794764-.3081482627.5164750896-.2554265303.333190804-.6909563502.4068384944-1.0385353429.1950443279-.3255274959-.1983585732-.474864156-.6092569473-.2906159336-.971337537.2658030382-.5223494406.5297292327-1.059600227.8919203897-1.5125631497.1606204037-.2008789873.5758054638-.3261824085.8475905872-.2879367549,1.1462979288.1613121718,2.2820832644.3972359719,3.4217470324.605715893.1507598861.0275799643.3016842086.0543037249.5170222632.093020007.0242175219-.3330490484.0522340932-.6346964024.0671184283-.9369901617.0783511398-1.5916939457.1528862197-3.1835806789.2297631016-4.775349755.046682945-.9664342118.3361988553-1.1921870495,1.2957933552-1.0460880858.7776427177.1183985072,1.5585458135.2153975931,2.3742357267.3268387368.1370266063-.3351980629.2640225882-.6624152871.4038899761-.9840374188.1988717273-.4573119837.6284137918-.6525221657,1.0571223335-.4905933571.4258110578.1608344555.60165601.5825771309.41798048,1.0724673804-.1841574989.4911688847-.3875824151.9756298958-.5977775775,1.4563783284-.2283852374.5223565284-.4917387393.6632686557-1.0665519141.5830789456-.7489457196-.1044851977-1.4966326498-.2180668506-2.3276718564-.3398731617Z"/><path class="cls-3" d="m99.829638631,93.0359970057c-.5137788957,1.8942457001-1.0185081156,3.7060690399-1.4931851543,5.5257456385-.2407009615.9227947586-.6473693469,1.1340672646-1.5128835086.7533004552-1.1448180006-.5036178592-2.302450705-.9780907725-3.4483063564-1.4794178617-.2527331745-.1105693469-.4222898494-.0869812196-.5882969648.1389998446-.1271320673.1730665439-.2865787349.3245862407-.4436098875.4730440172-.3500909014.3309822522-.7701920448.3601952407-1.0824455489.085745111-.3348947041-.2943526121-.4042188491-.7650378166-.1029655774-1.1228288828.3773476628-.4481403981.7669600177-.9012479115,1.2237985352-1.2598441494.1886142941-.14803818.6031416083-.1527898268.8506354969-.056849655,1.2204644441.4731120599,2.4193820413,1.0018149852,3.6929934846,1.5392160325.0845090019-.2944319953.1652302949-.5644253297.2394988742-.8361991142.4434908128-1.6227270757.883227938-3.2464804617,1.3291456062-4.8685384511.1761057824-.6405764235.5660470102-.856033554,1.1885127382-.6389433993.7288164284.2541790828,1.4570658345.5135861111,2.1691664458.8101104186.2630643206.1095487068.4011002265.0551882797.5359834885-.1561579392.1163189523-.1822806562.2378431692-.3612895937.3596282163-.5400093499.3067250368-.4501589975.8131439831-.5751704022,1.1998758648-.2977434055.3836245996.2751985991.4334998801.7334943665.1261511188,1.1810450615-.2710593348.3946872067-.5455321438.7870212709-.8164327124,1.1818105416-.3540827383.5160129665-.6781132953.6022570571-1.265514365.3729305613-.7005900589-.2735145429-1.4093225578-.5261910166-2.1617497943-.805415474Z"/><path class="cls-3" d="m85.2916124188,56.107848067c-.692782162,1.3207593542-1.3660247358,2.6029101605-2.0378554242,3.8858094362-.243513392.4650149815-.4724883326.9380306476-.7282494061,1.3961449679-.2965526569.5311751426-.7207533714.6493312477-1.2449541368.3308518371-.6596170283-.4007430048-1.3126792789-.8145161818-1.9462813246-1.2547466189-.2623725534-.1823033371-.4337153485-.1393627389-.6315210739.0632740175-.1723917864.1765990928-.3470289811.3547745076-.5416310305.5051374789-.3968532295.3066626661-.8649641501.2579157597-1.1573265123-.1001985092-.2601781771-.3186892089-.2210763201-.7463884534.1208608008-1.0778186532.3994615321-.3871798315.806804674-.766829607,1.2225567564-1.136443088.3759697987-.3342539708.7529148757-.3099854167,1.2646921826.0330006974.600181752.4022512841,1.2077121129.793536357,1.8535504996,1.2167788063.2337322576-.4354674499.4459743704-.8243426781.6522287279-1.2163705502.7116980255-1.3526486879,1.4133540863-2.7106557364,2.1351904703-4.05785534.3396973829-.6339876245.7786463471-.7311242133,1.3724320877-.316477822,1.0131667657.7075190753,2.0325934574,1.4081318191,3.0140976985,2.1578430232.3612215489.275907377.6228456329.3046327263.9466380405.0047006148.1229984748-.1139431295.2708325259-.2031867681.4143118458-.2924984492.3469212468-.2159617803.7998643211-.1346734645,1.0399018666.1800806097.2542357835.3333467352.2430881253.7683378863-.0934566136,1.0370043887-.4695454869.3748527669-.9666652678.7185873505-1.4730331821,1.0427710054-.3703789589.2371287225-.7045592149.0550862157-1.0222788138-.1742289396-.9520871247-.6871516346-1.909708387-1.3666257874-2.866127562-2.047749975-.074869623-.0533284465-.1571445571-.096252034-.2937458966-.1790089375Z"/><path class="cls-3" d="m35.1821885676,96.8981899634c-.9487785497.6039808048-1.8589060251,1.1813796046-2.7669638691,1.7620104315-.751803512.4807328395-1.4971628156.9716493993-2.2528759463,1.4461109722-.5803104559.3643345034-1.0319181927.2331709069-1.3182899645-.3768203343-.5573573937-1.1871859129-1.1137281685-2.3749728694-1.6537205046-3.5700970944-.1194801015-.2644251756-.2471876965-.3556817432-.5566259349-.3301997614-.4369813969.0359945751-.958860206.2556363301-1.2800046195-.2291223677-.1351781136-.2040486419-.2220601038-.5392835613-.1497562566-.7538391263.0732536095-.2173906765.3476697162-.4646577575.5737301622-.5130304292.508114343-.1087265245,1.0413988054-.0964051301,1.5633910189-.1446870782.4653155007-.0430426622.7583809705.1606657664.9432472473.5806761886.4971963288,1.1295877885,1.0055828426,2.2542765043,1.512665205,3.3794755403.0307779698.0683035053.0889062597.1242799459.1467765545.2029259378,1.6601221862-1.0530738004,3.3129354552-2.098470119,4.9623012286-3.1492758302.6396663491-.4075359318,1.0385863749-.3059368776,1.3848243598.3659108254.3464251023.672204927.7073829859,1.337288054,1.0374098036,2.0174086122.1127920736.2324337779.2415089683.2758790259.4728342162.2134838929.2826804566-.0762418174.5717512545-.139873059.8621687302-.1737696516.4560531916-.0532207123.7918267802.1992289525.8849119942.6310277681.0794256471.3684397448-.1649836402.7702544217-.5780055103.8809258326-.5813963036.155772364-1.1682190105.2950557198-1.7583984893.4129963565-.4137108022.0826831906-.7101500546-.103322802-.9022968976-.4816400751-.362698642-.7141305552-.7376789868-1.4220238653-1.1273225279-2.1704706096Z"/><path class="cls-3" d="m92.2083147313,46.5641144258c1.2026145825.1181816212,2.3392504515.233837158,3.4767538646.3402984285.7849969967.0734719135,1.5708331865.1386426206,2.3569302064.1993565325.6945002395.0536431439.9991159533.4283087935.8745184757,1.1141335959-.1296893378.7139604486-.2665798587,1.4267811823-.4136087382,2.1373508375-.0596394043.2882231012-.0606146827.5027333044.2926515436.6018034392.2338399918.0655874685.4475393519.2065095187.6664439766.3210196705.3814585744.1995464849.5485487024.5966492066.4113860108.9627017875-.1563507259.4172660343-.5476641476.6495977482-.9634275705.4864994562-.6165006535-.2418350075-1.2169885975-.5296555228-1.8071567359-.8313964354-.3037878613-.1553244164-.3992403934-.4542528984-.3361988553-.7933435694.1241892216-.6679295789.2501362124-1.3355359551.3710593856-2.004049567.0264799409-.1463654642.0348945516-.2959969768.0566341862-.4885180555-1.168995831-.1041790057-2.288944234-.2061806458-3.4093292443-.3030960959-.8317309738-.0719437884-1.6647604286-.1295816044-2.4958563374-.2079214042-.6947610697-.0654854045-.9667446509-.4512476803-.8133140898-1.1506895231.2777785489-1.2662940279.555432353-2.5328347105.857989776-3.7933110898.0741495047-.308899569.0079269716-.494304518-.2609606679-.6405168862-.1896065831-.1031016633-.3767636299-.2165259675-.546603816-.3489540237-.3494048044-.2724201899-.4309142584-.6875854066-.2201690844-1.0260551882.236108081-.3791989928.6397599077-.5177735707,1.038920918-.293331972.5107793478.2871996259,1.0082223313.6034222879,1.4848045648.9443387706.3381720929.2419087204.2978624784.6202061477.2168576743.9786464544-.2450840438,1.0845293621-.4959573851,2.1677432324-.7418125792,3.2520996526-.0367260336.1619954337-.0586471153.3273476393-.0965128637.5429351849Z"/><path class="cls-3" d="m67.5717633153,57.2683896024c.6049220583,1.2658489154,1.1909395936,2.4899423093,1.7748818272,3.7150223219.2658370595.5577287965.5394876862,1.1121802041.7878377784,1.677677206.250380032.5701352442.0560671639.9875203533-.5302112016,1.20364657-.6806422148.2509187046-1.3525012543.5307895674-2.0454932145.7409677203-.3673453897.1114142101-.4573941993.2976640223-.3987017222.6360005536.0369471723.2129395515.0587945411.4294003114.0728453534.6452316766.030069192.4617035714-.2691087782.8434626698-.692555353.8968194675-.4070936521.0512985067-.7996261718-.2730609251-.858806288-.728623645-.0696700286-.5363463859-.1359039021-1.0736964012-.1812883661-1.6124923233-.0473917229-.5626278691.1051712941-.7903610322.627580269-.9869986927.7208667759-.2713485178,1.4440866943-.5364427796,2.2329054213-.828918548-.2733444346-.5861592942-.5331823984-1.1540604706-.8020416867-1.717663618-.5651114235-1.1846513232-1.137475062-2.3658438105-1.7019514205-3.5508013258-.3627128176-.7614032037-.2128034649-1.1503975066.5807498982-1.4165124086,1.2145220506-.4072807718,2.4346292707-.7986565683,3.6589721472-1.1753124661.2865447135-.0881492855.4067817898-.2287084414.393507798-.5212692631-.0097811345-.2155365136.0058913616-.4330405945.0220741777-.6487755659.0325527496-.4339818515.328379618-.7222049527.7426234211-.7339366439.4407577654-.0124801606.7987019255.2722727641.8053134053.7191146812.0089135904.6018147797.0175096483,1.2163251885-.096977822,1.8012653847-.0482989585.2467624312-.3743878065.5325643472-.6369021154.6278240922-1.1308068799.4103256815-2.2850090994.7561128857-3.4301956645,1.1269397944-.0870039.0281696675-.170169059.0682127817-.3241666424.1307950321Z"/><path class="cls-3" d="m103.3034553201,60.0083263699c1.1545821244-1.6323324333,2.2692345393-3.2090853416,3.3848962538-4.7851238018.4744615702-.6702316894.9153667613-.7125258822,1.5288735371-.1447267698.9417446382.871575635,1.8884677321,1.7380083778,2.8164564096,2.6240260706.1950896886.1862668229.3462918521.2070481899.5653212217.0802393245.2265367447-.1311522561.4577117318-.2647427081.7031870209-.3504254466.4192222588-.1463314429.8019623036.0131208958.9733164392.3951918565.1741552257.3883082059.0992629218.7576608566-.266205624.9756185553-.5157294523.3075585613-1.0474716141.6095773148-1.6098783413.8071392218-.2281130667.0801372605-.6280225464-.0367657254-.8245524716-.2078476913-1.0012819785-.8716550181-1.961579586-1.7903842269-2.9720133042-2.7257725507-.5072467989.7154687278-.9983221221,1.4048657707-1.485927269,2.0967180201-.6319576811.8966493608-1.2512821055,1.8023767484-1.8947843604,2.6906171686-.4704243715.6493312477-.8487643233.6870665813-1.4684743229.1693468777-.6403609514-.5349855324-1.269052584-1.0839538344-1.9204931509-1.64191511-.3295193328.2165174621-.644194022.4350591939-.9704473064.6346907321-.4199593878.2569745027-.8291793735.1699876129-1.0923230771-.2150545446-.2343049501-.3428443585-.1669653831-.7909053736.2007032093-1.0675895711.4814472848-.3623102338.9788732576-.704434474,1.4806199404-1.0384106039.344001082-.2289749419.6672604887-.1529826143.9730329281.1112951354.6062148692.5239512786,1.2220691172,1.0367435584,1.8786922678,1.591983127Z"/><path class="cls-3" d="m59.3187652456,50.8857542062c-.1316569052-.6898960225-.2527501851-1.3540549031-.3859040292-2.0157925986-.2467284084-1.2261119932-.5067875109-2.4495703221-.7490647943-3.6765470243-.1517691858-.7685873761.0812939855-1.0800186997.8767979053-1.1826015377.7201976896-.0928697461,1.4412459126-.1889885299,2.1649931618-.2399354828.3212521478-.022612849.4282605941-.1568213553.4532719473-.4450416213.0226582106-.2610825792.0607564382-.5222417063.1135462133-.7789497085.0713427443-.3469694457.4867772943-.6579188003.8169657134-.6312432366.3859267101.0311777207.7697497674.3779487086.7315834972.7638215538-.0681957706.6893686918-.1799048317,1.3774870994-.3261342097,2.0547470301-.0694035281.3214477724-.3420958871.4860770246-.6931677371.5174390275-.7964565172.0711527923-1.5909568075.1641472833-2.4427603703.2542386201.1856034057.9530794192.3588173744,1.8574374481.5383706523,2.7605395225.1956567109.9841125493.4008960985,1.9663312441.5950558705,2.9507329748.1746428649.8854563407-.1083466189,1.2205551748-1.0285727612,1.2665803742-1.2352807365.0617770787-2.4694841307.1461216446-3.7050653891.1999377303-.2970856579.0129394487-.4518600618.1205319286-.5169201991.4049843315-.0548707469.2399014615-.1198174798.4807385097-.2125312942.7080180549-.1636426325.4011399204-.542050627.5898732902-.9426235227.4556874648-.3775064291-.1264573115-.615088768-.420792913-.5331143557-.8160414718.1279996114-.6171187113.2794059029-1.2408715835.5279487827-1.8155146549.0918179192-.2122761354.476644606-.3904231991.7448518187-.4178727482,1.1993542043-.1227830071,2.4048776112-.1851044272,3.6080648862-.2708041764.1047573678-.0074563431.2087152342-.0262191108.3644082142-.0463824235Z"/><path class="cls-3" d="m10.5588005741,44.0201348921c1.1296536983.0536573195,2.1912746448.1051656245,3.2530111222.1541932069.9111991475.0420815594,1.8231751155.070636802,2.7335747616.1255954376.6026270356.0363773151.8934556025.3829129888.8195938617.9876819546-.0936649943.7669146604-.2122789693,1.5312720502-.3416380166,2.29308351-.0474101511.2791961063.0240913595.4354901308.2960990391.525794101.2633223157.0874178267.5252313283.1894931797.7707916709.3176458879.3895698283.2033058427.5429309291.6164949868.3907903437.9756922682-.1745464711.4121004613-.6081002183.6184512137-1.0341593483.4592370244-.5209744085-.1946814337-1.0368045073-.4054946516-1.5447685894-.6319633549-.5025830406-.2240645288-.6362613802-.5445568686-.5427962613-1.1366358756.1149736919-.7283344637.216469264-1.458798096.332680482-2.2487792232-.9456145653-.0458550927-1.8349011365-.0874093214-2.7240090956-.1324932638-1.0958612962-.0555653495-2.1921755015-.1047006662-3.2871352323-.1747279192-.6791311004-.0434339076-.9079472747-.3804549472-.7854456531-1.0611198467.2323402179-1.2909651678.4460934451-2.5853239641.686454902-3.8747525015.0541662217-.2905790788.0012254769-.4558150449-.2797099686-.5855384048-.2488065451-.1148872217-.4819221659-.2816031159-.6903064009-.4620097634-.3147987254-.2725364295-.3319178371-.6171272167-.1208926958-.9619278021.2055264426-.3358161172.6299447519-.4758507775.9726395564-.2934879031.5043677432.268402837.9989019024.5587947984,1.4778535804.8702289571.3284129305.2135434302.4205271189.5410696815.3423864861.9338488582-.225862697,1.135323219-.4364320941,2.273699853-.6509274117,3.4112684802-.0281207616.1491353681-.0441093726.300555836-.0740871322.5091661723Z"/><path class="cls-3" d="m77.5072072387,107.6526182617c-.5063509037.0459401461-.9629739527.0933205288-1.4205552693.1277954841-1.5109839839.1138580762-3.0218772442.2296326878-4.5337401127.3307100815-.5906387669.0394874324-.9309258529-.2943639526-.9236055952-.8962694558.0094012295-.7732256185.0289294772-1.5468821739.0709628394-2.3188830243.015797241-.2902473708-.0897482878-.4221707772-.3590441833-.4791905388-.2408994193-.0510206658-.4797008561-.1173962953-.7137109546-.1943639012-.4724769922-.1553867889-.7062376009-.57002751-.5809313453-1.0082109967.1107507934-.3872762253.5616866088-.6276596557,1.0070939569-.5129283652.5233559021.1347925392,1.0407920916.2924587577,1.5614036058.4380360609.4644139352.1298821262.688228973.4178954291.6729874139.915604916-.0231968818.7572922921-.0157688898,1.5155485221-.0192050449,2.2734078365-.0001247449.0271830487.0224484124.0544681614.0551088962.1286460176.6250683602-.0386028776,1.2677824541-.0771263721,1.9103377817-.1181901265,1.3272290709-.0848265349,2.6538911194-.1796326621,3.9817382446-.2530733893.6949992191-.0384667923.9795026524.2404514731.9399018158.9287711736-.0754026239,1.3108421343-.1615333096,2.6214234383-.2736449565,3.9295098443-.0279258477.3258450302.0676797804.4960537818.3598890466.5942960641.1894931786.0637219652.3806760837.1290315927.5590726361.2178046027.4518884129.2248243387.5941429646.596303323.4138979195,1.0388869027-.1424189882.3496939878-.6320597451.57358841-1.0215133337.4133932721-.5276879524-.2170901547-1.0643008356-.438115444-1.538410852-.7473920829-.1941030698-.1266274182-.3344694374-.4905423251-.3286517887-.7425950743.0292129883-1.2668638853.1149580988-2.5324236194.1802280344-3.7984823331.0030959417-.0600476607.0003912454-.120390173.0003912454-.2672829679Z"/><path class="cls-3" d="m46.7741370751,101.4946200869c1.5626085282,0,3.0321828743.0005556818,4.5017572205-.000306192.5418124776-.0003288729,1.0837440299-.0121229366,1.6254090817-.0041165818.6285782282.0092991656.9501082169.3572920865.8723354398.980619692-.1741949173,1.3960769252-.3654005032,2.7901012297-.5599004886,4.183535831-.0695452837.4982424878-.4454980717.7894537965-.9032211439.7326381628-.4168464354-.0517464544-.7085170305-.4260151883-.6552736376-.911613079.0943808599-.8607171581.2205319787-1.7179414589.3304208982-2.577002912.0310331299-.2425834769.0517464541-.4864824455.0849682899-.8040943121-.2182695598,0-.3976810821-.0004422774-.5770926044.0000680427-1.9042252815.0054547544-3.8084448927.015286921-5.7126673391.0146972178-.8690126892-.0002608303-1.2093763233-.5101726369-.8802624114-1.3116586464.6691316623-1.6295313432,1.3447160382-3.2564317029,2.0198836528-4.8834794885.1985995566-.4785894952.5917728115-.6625995694,1.0404235271-.495600164.4259301325.1585394328.6171470589.5839989393.4270698473,1.0670112083-.4301034165,1.0929694889-.8861481028,2.1757098956-1.3293922609,3.263530822-.0915542538.2246882534-.1732905167.453402365-.2844580715.7457703991Z"/><path class="cls-3" d="m30.0505262867,84.6172185808c-1.9686446837-.7759076339-3.8815340657-1.523685292-5.7892805556-2.2843627072-.9448490852-.3767296107-1.0410118127-.8989004393-.336723351-1.6259477623,1.1943105411-1.2329219309,2.3780234356-2.4761069654,3.5712821503-3.7100552066.3882231503-.4014631231.8387138532-.4339988622,1.1940468757-.1080064061.3301317169.3028806274.3108926506.8104052702-.047471106,1.1939901804-.1688564024.1807440257-.3406726612.3587436636-.5122536057.5369134081-.8032551144.8341294829-1.6068929689,1.667884731-2.4672642385,2.5607974149.824155556.3279373425,1.590843403.6352747651,2.3592578329.9382291054,1.1211391498.4420165574,2.2451020707.8769113148,3.3647102604,1.3227609429.5740278489.2286007072.7518318631.6984920804.4520925409,1.2342941249-.6865194008,1.2272176867-1.3836279428,2.4485837033-2.0861940743,3.6667006822-.2676458607.4640453734-.7195909758.5882005744-1.1362247778.3409788552-.3321843375-.1971196295-.4467398505-.7040999309-.2223776362-1.1116472032.5354334769-.9725849861,1.0849262714-1.9374357881,1.6563996849-2.9546454286Z"/><path class="cls-3" d="m61.0281163069,28.961556616c.8926461782,1.2775976173,1.7430378555,2.4911273859,2.5892959403,3.7075262872.3882231503.5580349885.7888414079,1.1090389006,1.1459350345,1.6866616742.3119813334.5046356642.0909957369,1.0562122688-.4863520276,1.1886091388-1.8215137402.4177026415-3.648459554.8120751508-5.4760517732,1.2025919085-.4245125768.0907122262-.8203168151-.1896689566-.9088176539-.593913324-.095628309-.4368311385.134985326-.8385182354.5962069258-.945926433,1.2333471905-.2872194717,2.4720300608-.5515170673,3.7085469059-.8251421795.1647993579-.0364680387.329320875-.0742062073.5312261715-.1197664485-.0494726947-.1167243739-.0737072273-.2192987065-.1298310934-.2995918981-1.0444890769-1.4944014257-2.0869708949-2.9902714392-3.142584949-4.4768054306-.5744559508-.8089621984-.505925637-1.2226956839.3724542605-1.6870444143,1.1603260602-.6133905398,2.3311080114-1.2077007794,3.5081158674-1.7884818672.4650490002-.2294767566.9177142336-.0729360774,1.1160586301.3254452795.1955376362.3927394851.0621229619.7754710268-.374705339,1.0574455423-.1163756545.0751219483-.2402586841.1393712442-.3638638728.2024042773-.8753860198.4463854641-1.7515885516.8911577499-2.6856330271,1.3659878873Z"/><path class="cls-3" d="m30.4797451485,22.2080149281c1.175686694-.1396703485,2.3089771315-.2750001413,3.4424575215-.4087394366.9058577975-.1068851196,1.8113838871-.2170036838,2.71814325-.315702419.5425892982-.0590596244.9064928625.2496173884.9034196017.7956527677-.0079213014,1.4079447018-.0290372114,2.8159475233-.0610229387,4.223560517-.0134554389.5921385443-.33237429.9141930305-.8301149602.8950702037-.4750087467-.0182496125-.762795239-.3870324057-.7516645915-.9793467269.0174359354-.9279461562.0419965058-1.8557533919.0623582762-2.7836456809.0032943995-.1501475029.0004621232-.3004296736.0004621232-.485223656-1.1363325121.1355041522-2.2221008116.2632755379-3.3073984826.3948884996-1.0435336443.1265480351-2.0858084992.2638666586-3.13014448.3832503671-.6050297926.0691653792-1.0585001976-.4401978334-.8965047649-1.0282609049.4880332487-1.7716228769.9915178547-3.5390384483,1.4986370736-5.3053213927.1425267225-.4964110058.5306591492-.7148662667.9929269051-.5958369472.4163701367.1072111574.6430628126.5520585736.5098834525,1.0405284322-.3736024806,1.3702774109-.7556053964,2.7382654693-1.1514379858,4.169126377Z"/><path class="cls-3" d="m63.2240235239,108.8597860401c-.6205095011,1.2183607985-1.2133256335,2.3832060331-1.8069696185,3.5476430116-.3228057889.6331711124-.6437744256,1.2673288436-.9715189786,1.8979483557-.313370538.6029601647-.7605356552.726843195-1.3339312743.335938027-1.1488098375-.7832052108-2.2872771885-1.5817086831-3.42397543-2.3824689041-.3789693466-.2669767759-.4740079524-.7495694485-.2447665113-1.1035954866.2407519935-.3718191977.7359892603-.4698233306,1.143859733-.1929236646.9181395003.6233276054,1.8251313424,1.2630875169,2.787821784,1.9316861821.2603142625-.4924134987.5163758578-.9617832114.7587608754-1.4381046175.7143970516-1.403856471,1.4227212945-2.8107975433,2.1347425227-4.2158674421.3429917824-.6768545098.9529376582-.8017922016,1.4443305139-.2412566447,1.2217912763,1.3937294529,2.4156056729,2.8120903542,3.612079404,4.2277975911.2352348666.2783512431.1798084379.7723410637-.0770413183,1.0156956909-.3245352069.3074961889-.7501648176.3389205643-1.0847363189.0237922554-.3019620496-.2844070411-.559299445-.6168975726-.8303020776-.9333300328-.6918635858-.8078593401-1.3803533891-1.6185991534-2.1083533054-2.4729543214Z"/><path class="cls-3" d="m15.4668150888,66.1070423641c.3147554899,1.3895051368.6091180233,2.697291021.9077714978,4.0041016268.165054518.7222276336.3442349787,1.4412686019.5044868179,2.164528216.1825627487.8239627732-.2269733519,1.2625204946-1.0612091466,1.1216664871-1.7804896777-.3006352191-3.5602578195-.6063339473-5.3363580358-.9316006148-.4723430332-.0864992506-.71356282-.4956682066-.621214735-.927279905.0821537331-.3839704854.4970460679-.6600139477.9192494464-.6033173887.183282867.0246144377.3636937661.0698571464.5463670841.0999093278,1.2296686334.2023419048,2.4595938445.4031244984,3.7481661708.6140227696-.0304434267-.1963541494-.0440576318-.3433546786-.0767450492-.4859777957-.4034547865-1.7603944179-.8078777636-3.5205620269-1.2159637047-5.2798847727-.2067136455-.8911662552.06099317-1.2429468851.9574128816-1.3140004484,1.2943885575-.1025913433,2.5868903482-.2296043366,3.8795835091-.3526368335.3920661439-.037315737.7609070548.0575981244.8779546307.4366185052.0788954812.2554718936.0132314651.5986734762-.0991325067.8535216452-.0644916975.1462690704-.3445652692.2546894028-.53926513.276644506-.9368965976.1056986254-1.8778190535.1755727824-2.817179363.2596565181-.1658540194.0148446436-.3310772265.0367090232-.5739243674.0640281572Z"/><path class="cls-3" d="m118.0140094041,90.4855534178c-.8995808608-.1285723047-1.7516225729-.2555966385-2.6052065857-.3710990793-1.2400550642-.1677932366-2.4823328558-.3195340721-3.721548727-.4931733086-.7617831042-.1067419464-1.0301207321-.6325417177-.6520756319-1.3012311064.8817650205-1.5597479097,1.7784313868-3.1111265704,2.6774905871-4.6610082923.2557610735-.4408825128.7685079886-.5735600589,1.156657426-.3271832028.4047858714.2569404813.475856445.7104222294.2032434691,1.1762934147-.7010550171,1.1980557302-1.3947954468,2.4004038192-2.1385812636,3.6822597739.6624521397.0885745522,1.2643803204.1697721444,1.8665012886.249427436,1.3934912955.1843446173,2.7875155919.364833483,4.1804738865.553215299.65151995.0881095939.937491971.4729703043.7736792319,1.0955834616-.3571333182,1.3573946644-.7406671942,2.7078319654-1.1124750493,4.0613708782-.0938535292.3416366011-.2853823178.5823092128-.6562829372.6311808642-.5960424893.0785609385-1.0145616405-.4187346221-.8527901816-1.0433947299.2745635326-1.0601956004.5714450624-2.1146132436.8809144871-3.2522414082Z"/><path class="cls-3" d="m71.5708070801,72.2437658625c.1623214705,1.4566745975.3125370152,2.8206864121.4670108973,4.1842162578.0764799663.6751421024.1830347947,1.347692913.2346394932,2.0245701037.0423112032.5548710041-.2742573405.8841181681-.8281133716.8769850277-1.4378607896-.0184962672-2.8756308556-.0516670712-4.3130436975-.0928725812-.4826833934-.0138353439-.7966436345-.3532832389-.7874635437-.7982483122.0089589522-.4343957778.3461614369-.7648790504.8265427198-.7610006179.8967570898.0072408747,1.7932987112.0394307302,2.6899820881.0587945414.2286857592.0049444344.4575699762.0007427992.7507318398.0007427992-.1089533327-.8900548915-.2171752067-1.7411496813-.3164778201-2.5932934624-.1431164256-1.2280795606-.2888921858-2.455977674-.4160922958-3.6857583014-.0911204818-.8809768646.3431562188-1.2331373994,1.2015315699-.9910642426,1.6627418292.4689104247,3.3241114645.9426745602,4.9854017167,1.4166938557.5709574233.1629111747.8278582115.5353597671.6995353974,1.001503123-.1360513279.4942052891-.5713089771.6873047306-1.1486964331.5203393466-1.3170113292-.3808632032-2.6353721715-.7570428023-4.0454885605-1.1616075373Z"/><path class="cls-3" d="m57.0031029213,69.5888597578c-.8330974975-1.1977098466-1.6253013475-2.3368462905-2.4177490171-3.4758012872-.3792188364-.5450388376-.7668579537-1.0844301331-1.1357683249-1.6363582916-.2719892514-.4069122073-.1878318033-.8928333007.2417216016-1.1186612689,1.3256470787-.6969327691,2.6638140095-1.3706176243,4.0072996093-2.0326785225.3806307219-.1875653039.8558180806.0284418382,1.0017185857.395764549.1629848866.4103597028-.0499489934.8700900366-.4602406512,1.0749154991-.9777448833.4881154697-1.9472225816.9927993308-2.9685941598,1.5156619265.5980270673.8676405003,1.1691035652,1.7040097212,1.7484415779,2.5346179957.6360856033.9119703031,1.2821111073,1.8170002533,1.9193647766,2.7281653848.4344354668.62115591.1698288456,1.2036579105-.6484353488,1.3844529682-1.5822303345.3496032643-3.1684014738.6813169752-4.7529282486,1.0205153804-.1659163919.0355182764-.330160068.0843332255-.4978909311.104950156-.4612386104.0567078994-.8411605544-.1872988034-.9232313605-.5802849432-.098503112-.4716831637.139844707-.8558407664.6352577508-.9671585828,1.03897195-.233454418,2.0823269823-.4473522371,3.1227221583-.6745920908.3578194152-.0781526825.7121856647-.1721082762,1.1283119818-.2735088727Z"/><path class="cls-3" d="m106.3289728475,108.9558509568c-1.2672607936.6296215529-2.4542198907,1.2191659701-3.6409862002,1.8090846221-.6224203662.3094013838-1.2400777451.6288390621-1.8680662701.9264577226-.5703223583.2702881861-1.0106265058.0889998189-1.211023523-.4976074229-.4441598991-1.300125413-.8805175715-2.6029838734-1.3114771917-3.9075434007-.186856525-.565627417-.0110002324-.9811753738.4562261334-1.135859055.4723068855-.1563734076.8310732279.0618734725,1.0330805884.643944536.3531641622,1.0176462476.6992745672,2.0377647124,1.0665008821,3.1098791214.8037087323-.3993651406,1.5757095781-.7822072516,2.3470186568-1.1664555779,1.1059769738-.5509642205,2.2118065219-1.1022119522,3.317001005-1.6547298138.7354279083-.3676685945,1.2876849364-.0452483789,1.3412798832.7727266389.1151055246,1.7574855936.2375823389,3.514483548.3592766625,5.2715268642.0345203169.4984125945-.2497052754.8833867094-.69731267.9326836274-.4605014814.0507144738-.8268205607-.2788388822-.8686781461-.8125656251-.0979134088-1.2481748306-.1829440712-2.4973703013-.2739851698-3.7460894733-.0110002324-.1509526745-.0268541756-.3015424548-.0488546404-.5454527639Z"/><path class="cls-3" d="m40.6708735974,49.7713002427c.9761515507-.3065095701,1.8855192162-.5908032068,2.79408171-.877654114,1.015210881-.3205320314,2.0298915962-.642725438,3.0444050398-.9654575159.6035697102-.1920107587,1.0450532641.0718644053,1.1502245581.6911378013.230131666,1.3550982242.4599287889,2.7102418101.6893346664,4.0654647792.0939045612.5547179081-.1280846648.937276508-.5954357754,1.0289640126-.4868906987.0955205753-.827920584-.1353822424-.9396948526-.7118964874-.1937968778-.9996035983-.3502439974-2.0064480713-.5236224026-3.010032166-.0154088307-.0891869363-.0400884758-.1767748697-.0679065893-.2973805112-.5615703693.1719551802-1.1054411378.3337096294-1.6462811722.505012734-1.4862249557.4707362365-2.9710068396.9460256619-4.4567186401,1.4183779119-.6870042048.218422657-1.1821762641-.1661715528-1.1232144514-.8881213455.1444659387-1.7687976883.2951095852-3.5371304183.4524242489-5.3048365887.0526962164-.5921300389.3832758808-.9148734572.8607851958-.8795706493.4749974062.0351156905.7428332194.4002298496.6971624091,1.0099007231-.0875369009,1.1685280444-.1953136624,2.3355336339-.2926997405,3.5033387248-.017654239.2117034429-.025796679.4242120574-.0428442041.7127526911Z"/><path class="cls-3" d="m114.8966115851,41.0638649447c0,.6251420768-.0089135904,1.1782921682.0017350882,1.7310623548.0279995606,1.4544348595.0698004437,2.9086145589.095350468,4.3630834397.0121569579.692070553-.3156726485,1.0142072574-.9961787779.9452743574-1.3689052091-.138653961-2.735644393-.2996202492-4.1019299591-.4626675093-.4593220751-.0548140449-.8294515442-.4847161711-.7957817607-.882867884.0372420239-.4406783848.3814925957-.710232277.9255278007-.6641191891,1.0001479339.0847726677,1.9978123102.1989681222,2.9966447524.2995522066.1057269759.0106486786.2123611875.012284538.3431278677.0194460295.0155137298-.1026707264.0418462449-.1897398344.0397936242-.2761256806-.0465978917-1.9475883222-.0992742623-3.8950405591-.1415854655-5.8427167698-.0052733073-.2429321956-.0028577923-.5018345741.0730324708-.7274158875.1531980819-.4554011186.600816817-.572114152,1.1705834934-.3509896338,1.4816405805.5750059657,2.963791481,1.148704945,4.4459310411,1.7223982542.1872988024.0724994702.3803131894.1319149011.5628830259.2146122672.4425949176.2004792366.6339535995.6179720799.4790771316,1.0211135889-.1630642698.4244275259-.6116015809.6219525764-1.077920711.442617601-1.1674762113-.4489852613-2.329010029-.9134162099-3.4938212355-1.3693304837-.1689386207-.0661204695-.342855697-.1195027831-.5264688545-.1829270616Z"/><path class="cls-3" d="m40.5967070821,71.4810074755c.2437827276.6450785805.4777701452,1.2638133054.7114513708,1.8826557645.5016049271,1.3283574529,1.0032211947,2.6567149058,1.5045170947,3.9851914333.30744232.8147486609-.0322720736,1.3047693255-.9095661233,1.2860802708-1.3301690814-.0283227635-2.6600149601-.0717339901-3.9900196051-.1078986719-.4023051489-.0109435302-.8047010213-.0184792565-1.2070260159-.0287366897-.5231971359-.0133363643-.9052000517-.3435361257-.9114826587-.7864996103-.0060472927-.4262306568.4058348626-.7989457497.9108787799-.7886316142,1.2834351044.0262417917,2.5665583465.0675720465,3.8498318496.1019902996.1221451063.0032773888.2444518139.0004422774.4498244517.0004422774-.168640934-.4734522732-.3102547505-.9019396787-.4729674665-1.322256293-.5689331537-1.4696480676-1.1530738451-2.9334558055-1.7148681882-4.4058028992-.2401396094-.6293663928.0053186691-1.0360858125.6754794768-1.1940752337,1.3388870491-.315638629,2.6779867316-.6303643521,4.0166413015-.9470009403.4582333923-.1083863111.9069493155.1358585411,1.0201524803.5597473958.1196558784.4480496746-.1231940975.8543778489-.6168125157.9744958512-.9309882254.2265480865-1.8668755233.4329158496-2.8001715294.6500740469-.1638240796.0381152385-.3249151118.0879678384-.5158627026.1402246128Z"/><path class="cls-3" d="m40.3489722091,11.6316833703c.5284024005.3029890704,1.0161833242.5877093914,1.5086478521.8640831442,1.237506299.6944959908,2.4762543769,1.3867961878,3.7162640793,2.0768141201.6498812556.3616354773.7777731328.7958696537.3362782385,1.3977184547-.8132857387,1.1086717537-1.6535333873,2.1977032727-2.4910451532,3.2883904969-.3080858903.4012193035-.7870666281.4811453482-1.1383766274.2169413113-.3634754625-.2733501065-.4299928472-.7300199374-.1235938482-1.1520943208.5173568063-.7126676377,1.0599687854-1.4069821814,1.5905825728-2.1100529669.1378516237-.1826605611.2706085521-.3691726211.428130179-.5845815547-.5967541023-.3538105697-1.1567027878-.7028751627-1.732417528-1.0236396732-1.2681708644-.7065707305-2.5489466342-1.3905654685-3.8153143678-2.1003030186-.6827997346-.382676257-.7194889117-1.0078792886-.1094267964-1.4876751238,1.3960287202-1.0979366041,2.7903081767-2.1981398799,4.1921743914-3.2885811581.4648562126-.3615908243.8707165912-.3228766685,1.1664073743.0754054595.2834431016.3817824881.1902189671.8194110017-.2438337596,1.1659757353-1.0139917831.8096107302-2.0269175643,1.620559633-3.0392848285,2.4321988854-.0689867667.0553087719-.1297828965.1208345767-.245191778.2294002086Z"/><path class="cls-3" d="m79.0510841855,41.6459643593c-.5436666405.7669373413-1.0640400054,1.489627098-1.5722620826,2.2207598167-.6704301433.9644992482-1.3309544073,1.9358793119-1.9964287758,2.9038288908-.5325983654.7746913711-1.1483675601.7441685611-1.6518209799-.0558233446-.8968534836-1.4251169719-1.814817207-2.8369344359-2.7165357419-4.2590150034-.3610287614-.5693754344-.3018373046-1.0185506482.1446190347-1.290792226.4221197427-.2573997694.8683379327-.0824592168,1.2175783007.4775773604.0245293842.0393315013.0467226366.0801315903.0716205853.1192164369.6055798042.9507801439,1.2100255638,1.9022860762,1.8184971817,2.8512120572.098554144.1536998975.2151225861.2958467159.3569632115.4891219343.8831655656-1.2707763391,1.7421136092-2.5069926696,2.6014075364-3.7429708507.2822750357-.4060106419.5542983084-.8197583029.8508112738-1.2151145959.4369303649-.5825813835.9536634467-.5993255518,1.4905485006-.0955007295.9014463641.8459320519,1.8166316783,1.6772207531,2.722415763,2.5185655946.1234974545.1147114447.2484294753.2384754004.3340952027.381214757.2051713449.3418577398.2574904915.6980894946-.0389657717,1.0209009556-.2569915118.279851017-.7124975269.3053755255-1.0518603666.01437118-.6683888631-.573157473-1.3103941791-1.1770929161-1.9626796092-1.7689989812-.1827853049-.1658653608-.3633705634-.3341490717-.6180032625-.568553252Z"/><path class="cls-3" d="m79.1262316494,94.5329982286c0,.9354563664.0001984578,1.7996777223-.000204128,2.6639104186-.0000623724.1392153131.0104785719.2800976717-.0067872568.4173397472-.0526763706.4187232816-.3868566266.7289411775-.7730384967.7310164791-.4051487656.0021546847-.7923682865-.3245295385-.8003462901-.7512931962-.0268768565-1.43842215-.0479700856-2.8776891631-.0257144608-4.3159241957.0095259745-.6156331129.5805400999-.9201354241,1.180977012-.6723807039.955959887.3944603978,1.9032556734.8099289714,2.8543618495,1.2161664222.1540542856.065802937.3088343597.1298707857.5287993161.2222727384-.018241107-.410949406-.0431844175-.7702827728-.0482365861-1.1298883103-.0097641238-.6939842532.4592370217-1.043116889,1.1296841757-.8456513758.3989965738.1175096998.7954755686.2435700957,1.2446422745.3816343535.2039352363-.7325020775.3995919472-1.4397886737.5983786211-2.1461907151.0499036316-.177341892.0896122025-.3616808391.1692391425-.5256977072.1785666591-.36781035.6084716179-.5192449935.9877074649-.3691485227.3323431038.1315264908.5682867483.5632912852.4755389125.909475405-.2915742012,1.0883539274-.5876165381,2.1755738102-.8911095478,3.2606616893-.1480041578.5291848943-.5186382767.7294344869-1.0655766358.5940522445-.16485039-.0408029241-.3254481127-.0985938361-.4897995231-.141704541-.1482026156-.0388637079-.2988831185-.0682978351-.503612186-.1142776727.0301258942.4145159762.062786378.7959802231.0845827148,1.1780511838.0436607162.7652532851-.4767750211,1.1668751744-1.1889833667.882309367-.9603259586-.3837153253-1.9047696229-.8071222111-2.8570325245-1.2111199238-.1797177144-.0762531578-.3641530542-.1413699978-.6034704813-.2336131842Z"/><path class="cls-3" d="m105.7788138018,11.583995378c-.178895532-.3058858456-.3293152048-.5677984036-.484225694-.8270225672-.4134613124-.691891941-.2072579869-1.1988906705.5732708742-1.3778705482.40424153-.0926918428.8138244099-.1620535535,1.2787600056-.2532938192-.1505103963-.8063205833-.3108983208-1.587860875-.4343504135-2.3751918818-.0361533411-.2306838053-.0305057991-.5086721541.0679632915-.7102861441.1526083787-.3124466479.4878999984-.5022803953.8152419656-.3579186462.2478341019.1092939011.5394423245.3669300479.599773496.6109247016.2626107027,1.0620433843.4527899783,2.1422818052.6589819633,3.2178869451.1149467583.59969199-.1410524645.9515881506-.7346340771,1.060305461-.2994671515.0548487751-.5959517657.1259569144-.9427199165.2001836762.211533335.3919406925.3935021278.7437206135.5888526467,1.087898892.3654685459.6439161848.0763552214,1.2112149001-.6737018619,1.261411966-1.0646864108.0712548563-2.131266676.1137234084-3.1969170247.1709345401-.1636766538.0087860104-.3266502.0306518075-.5667160965.0539025566.4004878424.8089083313.7691203727,1.5499129081,1.1338858109,2.2928240973.0882173277.179693617.1833750081.3597118542.2408257064.5500031178.1205149172.3992545712-.0488546404.7577444924-.4088344105.9167786521-.377149205.166620918-.8223297442.0588016292-1.0072810743-.3029982845-.6541962952-1.279752302-1.3037543481-2.562555184-1.9185312538-3.861487015-.2814812045-.5947071552.0783397994-1.0778229059.7859269133-1.1240805845,1.0647544535-.0696083653,2.1302687168-.1277898139,3.1953860646-.192057538.1186891054-.007160074.2368905717-.022293899.4290430849-.0408475771Z"/><path class="cls-3" d="m88.613121251,71.6168943677c.3859210398-.1543831594.6950162298-.2900205618,1.0123219024-.4024951036.6824113243-.2419087204,1.1248985076.0468473817,1.1801491594.7707137097.0316681948.4148618598.0420163516.8313510736.0653266379,1.3172608266.7968761137-.0463087106,1.5757662804-.1086414711,2.3556997681-.1273815579.2636426833-.0063449794.606617455.0160694118.7741952221.1734748.1798197784.1688989301.3161149259.5474089908.2508506605.7696987398-.0702937531.2393968116-.3724882818.5301828535-.6155650667.5761456805-.6340556635.1199025338-1.2909453146.1206906948-1.9390461202.1641756344-.4630247306.0310784918-.9264010151.0580007102-1.3899303955.0802676756-.6551035309.0314527265-.9354223397-.2183886357-.9870553893-.8795933302-.0237752446-.3044909707-.0359151918-.6098891771-.0564867604-.9702148329-.4238151394.1739454285-.8006298012.3436268493-1.1879854075.484282399-.689958391.2505444699-1.1797749247-.1038671434-1.1375090833-.83990744.0647482751-1.1276372318.1578930265-2.2536244287.23710037-3.3804451484.0072919066-.1037310581.0009696081-.2084203838.0009696081-.3841519325-.7224884597.2459799404-1.403884814.4771832799-2.0846801248.710155729-.2483671028.0849966415-.4907294396.1917612689-.7438822106.2576662699-.4574452313.119091692-.8481405988-.0711386167-.9930374744-.4584602038-.15569298-.416188692.0104729017-.8632460775.4638639236-1.0259531242,1.3510496772-.4848210702,2.7086711427-.953555718,4.0765103499-1.3883484114.5925779831-.1883591351,1.0358363168.2417159328.990990524.9095434477-.0632286554.9415802072-.1469721772,1.8817712097-.2201974355,2.822693671-.0190746298.2451407474-.0316625246.4907861447-.0526026577.8208725017Z"/><path class="cls-3" d="m55.49574788,18.3534186515c.291823691.3342383777.5481517868.6376463358.8150661887.9314290906.5187630216.5709730197.3526028102,1.2019355802-.3915288903,1.4124298481-1.0539016469.2981261455-2.1129518561.5780225243-3.1692236562.867836123-.1174983586.0322366348-.2311919977.0783227892-.42383215.1445084662.3497053263.4512746139.6722219338.8745822707,1.002642832,1.2916257488.2688366075.3393217326.5545534684.6654119999.8193018452,1.0077999055.3008393454.3890708509.262389564.8921840602-.0729417472,1.1667107379-.3534476734.289362816-.8170564369.2404713189-1.1451128522-.1611760865-.8894481725-1.0889521359-1.7731921008-2.1828671345-2.6403733081-3.2895585628-.3714619715-.474056152-.129286752-1.0845236918.4916366753-1.2624978137,1.0531361668-.3018571522,2.1126853556-.5813041658,3.169093241-.8717840157.1033795036-.028426245.2036687358-.0680951246.3685077853-.1239213043-.2528635896-.2891147437-.4830236067-.5483190615-.7088175523-.8112728143-.4553132275-.5302494787-.3498754329-1.0426831169.280477575-1.3477637908.2084317231-.1008775184.4243991723-.1863688869.6380475004-.2762277446.1968701386-.0828079355.3952428862-.1620379603.6293493785-.2577158843-.3419201102-.8119234724-.6810618112-1.5882592081-.9956457769-2.3744171875-.2098606192-.524457346.0983159946-1.0569366398.6235544107-1.103122023.3551147189-.0312273352.6379681173.0999745354.7881156193.4440365743.450975507,1.0333952918.9112501795,2.062960348,1.3445856231,3.103725512.2161148751.5190422831.0076548009.9410358658-.5188367345,1.154173875-.2822807059.11427342-.5668351712.2229276491-.9040660071.3551813461Z"/><path class="cls-3" d="m17.2820745732,14.6566487772c-.0393017324.3999789422-.0723704722.7471029015-.1077129715,1.0939943817-.0698599811.6856688713-.5354519051.98063245-1.1715346733.7274598318-.4131125937-.1644251242-.8162044859-.3540260381-1.2611468758-.5486932963-.3326563836.7746077353-.6360572522,1.5314747607-.9864741914,2.2659089667-.1031881336.2162693899-.3160114443.4790913099-.520720666.5226683906-.2476157983.0527103922-.6107567177-.027788345-.791859384-.1942760127-.1614510913-.1484195024-.2618267944-.5375442204-.1840979615-.7427850268.4156712818-1.0975652045.8730711513-2.1811533096,1.3634575424-3.2477761077.223897256-.486991348.6204627217-.5628234918,1.1345634025-.3372634416.2797560392.122741898.563801602.2357054965.9091280986.3793804399.0325229809-.4023448427.0536417261-.7485261275.0896717398-1.0931481009.1007598607-.9637805475.6099628865-1.2222236379,1.4587101991-.7231249463.8530992087.5016573796,1.6922354936,1.027029049,2.5390889518,1.539367711.1551571439.0938677053.3179605834.1750979013.5403112861.2966419646.1165443436-.8742094536.2253941948-1.6948267952.33580761-2.5152357562.0205899969-.1529953723.0395866611-.3068866399.0728581114-.4573701035.1130529039-.5113456642.4664240292-.7691012401.9275832565-.6837849397.4295137134.0794617952.6996558896.4571773159.6366696363.9319550038-.1545390896,1.1648523224-.3215937787,2.3280432694-.483539597,3.4919132256-.0340723693.2448657416-.0436323651.4961969549-.1065590811.7333880498-.1523659767.5743283741-.6908471984.7866682995-1.2019710122.4814898142-1.0462964604-.6247111398-2.0885954137-1.2561145602-3.1922334206-1.9207100481Z"/><path class="cls-3" d="m18.9816685985,29.4458730364c-.2192646839.3965753909-.4089251341.7486111808-.6069732615,1.0958613026-.3721835073.6525746152-1.0522445242.6731631947-1.4797041994.0511624214-.638735015-.9294345897-1.280245604-1.8569611493-1.9221247576-2.7842297139-.0502239992-.0725533374-.1125822754-.1367034043-.2105566391-.2542584659-.5167458398.8327317729-1.0101516246,1.6283434315-1.5040648944,2.4236375576-.3879892536.6247338207-1.1597703784.6698376089-1.438915451.0530024087-.0964072558-.2130331102-.0814577132-.56989993.03631636-.77110212.7105072787-1.2138189499,1.4559332075-2.4076815503,2.2101380588-3.5952275223.3468149301-.5460793235,1.0160784251-.4969156557,1.4191079449.0845118375.6687106482.9647062113,1.3306127764,1.9341300482,2.0528304829,2.9851710736.1918505738-.342220634.3540643101-.625935908.5109551247-.9125656765.3726130267-.6807386125.91145289-.7520530061,1.445044962-.1839732177.2930612172.312001181.5778694249.6317535567.8833229142.9665632093.6362698856-.5852917501,1.2374354212-1.1401826,1.8408293545-1.6926352541.3623655164-.3317760834.8698873211-.3458042149,1.1599461553-.0364822143.3153281825.3362697351.3124647199.8138811168-.0507399895,1.1603941096-.7833256985.7473325455-1.5757095781,1.4857826869-2.3820818976,2.2081152196-.4820058017.4317676295-.8378505618.4044286497-1.2905923432-.0539068093-.2166436233-.2193213874-.4145882692-.4571106908-.6727379241-.744038146Z"/><path class="cls-3" d="m116.1638950596,18.2287701411c-.309197254-.2753190914-.5641304749-.4941060602-.8098439134-.7228059963-.5249152134-.4885705051-.4648335317-1.0381256752.149637182-1.3990240236.1867431205-.1096762868.3760151604-.2151863773.5660243293-.319135739.1883648043-.1030534664.3791111021-.2017380261.6155253751-.3271024022-.3954980463-.6907096995-.7821618853-1.3557800685-1.1569069158-2.0274916861-.0962010015-.1724229736-.1983897583-.3605113556-.2214789059-.5506722041-.0455205493-.3748385914.1173509328-.6648634059.4872309121-.8010082932.3798255502-.1398007636.7270699997-.063642582.9343846889.2862952254.5907124798.9970973598,1.1679411695,2.0027822721,1.7233962034,3.0198827608.2380813185.4359437486.0840100223.8437220825-.3528126084,1.1011020061-.2768089408.1630954569-.5606376176.3142451717-.9126563948.5105256082.309503446.2743041215.5827741677.5136711644.8529376074.7565069662.6578592592.5913220322.5447609935,1.2346811176-.2693469275,1.5568943701-1.104684163.4372167137-2.2080301535.8777987047-3.4866313929,1.3864233707.6846000303.6388158193,1.2916654329,1.2044630821,1.8975174078,1.7713918153.1015650323.0950315186.2021661268.1917400055.2959629537.2943001626.3523249692.385206594.3701408095.8254228556.0508732397,1.1612659064-.2989681719.3144875737-.8083469746.3080462005-1.1628493094-.0398191404-.8278979031-.8123629146-1.6457708521-1.6349364832-2.4673181056-2.4537521115-.1313790643-.1309240296-.2624972983-.2621868551-.3909165062-.3959885228-.538285599-.5608176504-.4241780336-1.1538506723.3022228798-1.4580907357.7690750109-.3221111884,1.550851321-.6138115538,2.3257212997-.9222149783.3147994342-.1252949158.626003947-.2596111563,1.0293269009-.4274823585Z"/><path class="cls-3" d="m66.8266393258,14.2624477921c-.1660751581-.4416550807-.3059879078-.7960170795-.4329328578-1.1549677063-.2737186694-.7740081093.0888694033-1.2679128766.9038391982-1.1985688854,1.0162173456.0864708995,2.0297583459.204176222,3.0445694762.3073558508.1978057254.0201108631.3960990899.0354601566.6550581691.0583990434-.3016104957-.9694833741-.5846226604-1.8909647674-.8759757229-2.809803128-.1144874703-.3610642023-.0637843372-.6777213451.2355467289-.9190722573.4404969351-.3551707144,1.0642894952-.1955886693,1.248928963.3581383673.4540884594,1.3617947574.887628031,2.7311039778,1.2935195958,4.1079779843.1619982678.549514061-.2835224847,1.0068487256-.8588913414.953696056-1.2133539846-.1120946369-2.4266172457-.2252822092-3.7332747479-.3466958575.1308914251.3522144019.2390679373.644697258.3482424087.9368044619.2796894141.7483645261-.0337491666,1.2197315749-.8243029818,1.2366189163-.309299318.0066058097-.6192563818.0225660697-.9278639326.0094706898-.2875086514-.0122009022-.3773193117.1049969353-.3622818806.384660835.0381776107.7102478701.0623497709,1.4215163803.0768712117,2.1326870792.0118734467.5813906367-.2642777483.9092882876-.7435646781.9177184916-.48819485.0085875526-.7958384629-.3050976846-.8179976939-.8643872099-.0422431605-1.0662230474-.081129549-2.1327395288-.1040032282-3.1995069175-.0131889384-.6148860611.2341405136-.8703735478.8534082359-.9072016456.318280951-.0189314568.6386145227-.0033241682,1.0211050777-.0033241682Z"/><path class="cls-3" d="m94.7494194473,22.2959714261c-.8472220227.2330929413-1.6196538055.451545367-2.3955217434.6570356631-.5392552071.1428215749-.9338176666-.050822208-1.078504744-.5086161607-.1336811748-.4229716962.0866296652-.824646035.6039581204-.980112207,1.0647487833-.3199720968,2.1358765672-.6203365628,3.2112513482-.9026002597.4944547761-.1297871499.824461748.0882116579.9906900021.5865080129.0536970107.1609790462.0900544799.3276722596.1371967129.4909293178.0464051041.1607210511.0964391508.3203987811.1605126694.5322354742.3506012215-.2321162454.6713090279-.4392126322.9865847608-.6542671768.6760039724-.461108198,1.2900437492-.1729517219,1.387015901.6360402452.1430824043,1.1936485495.3059765674,2.3849241106.470946032,3.6583285981.7578139482-.4498896619,1.4664443831-.8701410686,2.1744737744-1.2913875994.1063166791-.0632541718.2070198376-.1363546856.3151963498-.1960536276.5206965676-.2873470517.953799532-.2044143713,1.2081090285.2278664133.2425381137.4122648977.122646921.8010607428-.3774440566,1.1331742045-.3472104282.2305909554-.7119531855.434985481-1.0705947831.6481801925-.7835454197.4657946372-1.563087662.9386798881-2.353993031,1.3916995131-.6671811056.382156014-1.1988212034.1330659563-1.3101617-.6221000022-.1728624149-1.1722874022-.3192108676-2.348484423-.4899753-3.6212694386-.2889318774.1966957804-.5272626857.3532648107-.7596624409.5182115954-.7273081491.5162114243-1.2857343798.317470111-1.5206970757-.5495296541-.1001531468-.3695567787-.1866977587-.7428020374-.289379825-1.1542731039Z"/><path class="cls-3" d="m17.3654792992,103.4462200919c.3630501958.1964278623.6785697483.3557384455.9827984694.5342824247.525018695.3081199134.5994999077.9010324431.1592907364,1.3185196161-.3351526992.3178386755-.6910173051.6138243118-1.0716905536.9495468704.5433420202.6056932122,1.0650450524,1.1921757091,1.5923984617,1.7735096435.3835239531.4227831612.4328336289.9271494898.1115347017,1.2405086892-.3538261607.3450784264-.8559399904.2958949128-1.2618173796-.1475278599-.7095716919-.7751988561-1.4136659485-1.5556256577-2.1079422142-2.3445237723-.3818186336-.4338400959-.3454129675-.8593109428.0832105208-1.2580636994.2257585066-.2100137165.4618056327-.4089704982.7448759172-.6584716471-.135645907-.0924019527-.2445864817-.176706827-.3627907831-.244976311-.2270825037-.1311295752-.4666919473-.2416081986-.6882332256-.3810843419-.6931379684-.4364257176-.7024428042-1.0449880625-.0300082371-1.4971769998.948442589-.6378093548,1.8971828646-1.2751650917,2.8450187398-1.9138703417.0617614852-.0416080958.1168916448-.093071039.2032349638-.1626106529-.8132644754-.5283400311-1.6015813876-1.040905502-2.3903646757-1.5527451844-.4702145732-.3051260357-.6203294715-.7321618641-.3949749682-1.1277392958.2393698767-.4201635183.7120850182-.5267070069,1.2071224097-.2184169868,1.127934912.7024385556,2.2493646607,1.4161041525,3.3571305899,2.1498309982.6673072681.4419938765.6397258864,1.0811640848-.0296595184,1.5252899651-.8996162997.5968930262-1.7988186731,1.1944097769-2.696529778,1.794149255-.0745166516.0497845572-.1363263337.1185983826-.2526041769.2215696308Z"/><path class="cls-3" d="m46.7039623967,36.9564745373c-.3501617792-.0912707432-.7025916475-.1837038821-1.0553248728-.2749519444-.8267950447-.2138836436-1.0316091656-.8445825388-.4695086305-1.4820176589.7948291632-.9013584809,1.5997598285-1.7938090416,2.4577751205-2.7543306284-.9295394834-.3110202324-1.8095920966-.5777418483-2.6652032141-.9078140297-.2744246121-.105865897-.5728456075-.336751704-.6939955896-.5899923649-.0875624169-.1830291256.0196983543-.6031444469.1839250197-.7273960418.2197976848-.1662934626.6110033724-.2636001581.8721766736-.1900715424,1.0692651158.3010179592,2.1173207629.6775065854,3.1726087792,1.0279405373.2342879394.0778011287.4673454405.1596167752.6990364178.2448373905.64541312.2373810474.8144424642.8335936468.3598323443,1.3549564686-.7208497652.8266958206-1.462446876,1.635300795-2.194126767,2.4525755403-.0704099927.0786431568-.1328193009.1644506402-.251321289.3122790219.3682015933.0952228886.6860912989.1794824012,1.0050413363.2595034221.721326064.1809765049.9442452065.7611395384.5242347867,1.3713462479-.2357735378.3425296612-.4738094945.6834943408-.7465075238,1.0765938851.6504539481.4319235606,1.2901628238.8519680042,1.924564371,1.2798940576.3401906922.2294710864.675992632.4835537754.5690975901.9648337914-.1407689534.63374664-.7674873485.8338403015-1.3498816113.4395840318-.8183832691-.5540176356-1.6314365287-1.1159083757-2.4465877707-1.6746975039-.0637361403-.0436919027-.1249632071-.0910807907-.1892011621-.1339902027-.4768175478-.3184709053-.5547377507-.6968845722-.236592885-1.1769001285.1621485288-.244647438.3320624277-.4841434786.496031098-.7276086751.0159304912-.0236504998.0146575262-.058885265.0339277786-.1445736737Z"/><path class="cls-3" d="m114.6195191331,69.0205900169c.1491835641.4010775479.2674077113.73332993.3960197068,1.0615224326.2309028164.5893119381-.0819347207,1.1153498587-.7113067801,1.148855206-.4465867545.0237752447-.895464279.0046098912-1.3908376312.0046098912,0,.4119303546-.0039237942.7900208188.0009639379,1.1679978785.006588799.509770051.0386709201,1.0199596986.0247335122,1.5290153015-.0120548939.4393912442-.376105884.7668239368-.7776597283.7506694717-.3949877262-.0158936348-.7582562256-.3746032771-.7741895519-.7845887452-.0426060548-1.0958669728-.0821275083-2.191898382-.1135178622-3.2881339193-.017248818-.6022570571.2858586166-.9151853195.8900889077-.9332393093.3035156906-.0090666864.6075190204-.0015819922.9831032439-.0015819922-.159968328-.4399015642-.287015342-.7995694742-.4213542626-1.1564986664-.2806306711-.7457023564.1078022775-1.2516166559.9146523132-1.1744732731,1.1966438378.1144250985,2.3924484826.2377921385,3.6840798942.3668917739-.1536176784-.516154722-.288285472-.9799506057-.4299843419-1.4415974748-.1449649183-.4722842073-.3100364469-.9388017979-.4419598526-1.4145845328-.1347925384-.4860515086.0663416078-.8866924493.4758791259-1.0107285757.4634273164-.1403663683.850079815.044080313,1.0151400032.5460651479.4435021532,1.3488212874.8743030072,2.70209937,1.2867209986,4.060730143.1576888984.5195341749-.2865957455,1.003640797-.8790659944.9531134406-1.061919342-.0905704707-2.1207200615-.2174417085-3.1808589535-.3288729293-.1516444409-.0159446668-.3034363075-.0304547673-.5506466849-.055171269Z"/><path class="cls-3" d="m29.4196913098,5.4306808074c-.2303187834-.4096218651-.4433660679-.8021852189-.6697071899-1.1869303985-.1949621086-.3314025575-.1868168334-.6432743865.0496541418-.9469966876.5505105995-.7070647487,1.0896694128-1.4234297262,1.6566463396-2.1170476298.3813054784-.4664775447.8169742187-.5128095563,1.2070090052-.1797480157.3792273417.3238313037.3769507472.7558182999-.0008930601,1.2268640951-.3771605455.4701968565-.7634785009.9341453046-1.1150918571,1.4229114323-.0798594191.1110098524-.0932950123.3415288668-.0333607563.4676356877.1650431775.3472593359.3868736373.6673377494.5831427322.9999955525.2675154455.4534080352.2113292069.7903603234-.1803471091,1.1480649186-.2459827741.224647853-.6441770114.430065145-.6859467083.6903482228-.0437287589.2725016994.259616825.5992199439.40678746.9043970116.0870832831.1805831332.1817901808.3599492948.2445113513.5493198559.137630485.4155295286-.023684521.7372764052-.3842681699.9397855816-.3573204356.200679112-.73877901.1441108418-.9422521231-.2048339678-.4269139162-.7321406008-.8325985179-1.4832643991-1.1572641398-2.2639144658-.0842680174-.2026140755.1072919574-.5836282484.272437199-.809327219.1847840585-.2525425147.4835424321-.4216937697.7489428845-.640523974Z"/><path class="cls-3" d="m34.2991562523,110.2410636835c-.0031129524-.3825585999.2048963391-.6412001481.7167303483-.8022344789q.7994390544-.2515424291.6854023669-1.0816970857c-.0251559438-.1839533719-.0475646647-.3683490212-.0675125088-.5529374581-.0405704447-.3754481403.0942617853-.6640171251.4267438095-.8547067218.751040867-.4307554947,1.4966921871-.8711730492,2.2537151393-1.2911324394.5312205013-.2946814851,1.0225509845-.1900772127,1.2490168515.2355977623.2233075528.4197212409.0556475674.824722583-.4738832075,1.1371858872-.5058887805.2985258962-1.0058465079.6083695574-1.5233847614.8852465425-.2135717801.1142549918-.2882571208.2358245712-.2454129167.4725903994.0687854738.3801544253.1106402241.7651965828.1626276626,1.1483448859.0703391149.5184284814-.1203589861.8240761776-.6153070715.9888528556q-.8963913604.2984124918-.8352323364,1.2225340826c.0132484758.2007599127.0313620028.4015198253.0356089997.6025178873.0096989162.4586643319-.2976158237.8399868231-.7060533186.8860290332-.3838088818.0432524604-.818941786-.3028125847-.8667899619-.7365165953-.0796836422-.7222162931-.12758285-1.4479481245-.196269095-2.2596745566Z"/><path class="cls-3" d="m100.67345852,68.2700849817c.4621798674.0392889746.8914043994.1121343284,1.318633013.1018995761.4303018744-.0103198057.6825020479.1928216006.8124748968.5527730217.3138128154.8690183645.6114087933,1.7443023253.8948745758,2.6237255488.1522454845.47235225-.0464844872.8626960659-.4683717508,1.0100424787-.4489455672.1567986744-.8608192172-.0372193432-1.0334321423-.5146294321-.2149241283-.5944945219-.3911433151-1.2035331656-.6227152178-1.7910589835-.0558970572-.141806605-.2516218108-.2927422688-.4040600828-.3194206677-.3627808602-.0634951562-.7379795086-.0580063805-1.1084151697-.0752835497-.5950331896-.0277614114-.8671358455-.2830518579-.925992759-.8756638657-.0902472674-.9085908502-.0904627359-.906067601-.9994108049-.9846001884-.2302223896-.0198968122-.4605355028-.051304177-.6873557587-.0953051068-.4347586695-.0843275552-.676502952-.3988207992-.6490477328-.8238096772.0255386839-.3952712396.351020818-.7478740518.7601273992-.7214848344.8001024705.0516217095,1.6011915598.1275856859,2.3931062285.2501362138.4137788449.0640281572.5781019041.4281075006.6328308954.8190466899.0382286427.273083606.0571671871.5488775785.0867544101.8436327765Z"/><path class="cls-3" d="m18.5839067157,88.9574510222c.4669201737.1764233159.9277377701.342322698,1.3820147644.5245239711.4445596498.1783228406.6455988198.5327174432.5565564747.9436952003-.1011255901.4667443995-.5985062011.7337155052-1.0884474798.558607681-.6250201634-.2233841021-1.2472364015-.4567534668-1.8603519319-.710717081-.6083043463-.2519620256-.7351344742-.5117149375-.6291608436-1.1628776672q.1232834035-.7575304415-.6095843991-.9909678488c-.1912637057-.0609265453-.3866156421-.1115446253-.5728371021-.1852235019-.355816409-.1407916351-.5885606302-.3800240102-.6136428611-.7886429546-.0539876096-.8795819898-.1236349574-1.758234063-.1742558722-2.6379861595-.0310373825-.5393856253.2672829664-.9232427063.7220419296-.9644538864.4475662855-.0405591045.7964607699.3024326798.8461347574.8443472246.0577242865.6297406275.0914124982,1.2622596643.1718502801,1.8889100204.0179235745.13964625.1611250535.3225903223.2918676353.3770528134.3685290487.1535156153.7633367453.2424984236,1.1426576457.3719382723.4615745711.1575131225.6586658484.4901794309.5880559804.9669601249-.0450371628.3040997253-.096011049.6073148959-.1528989777.9648337914Z"/><path class="cls-3" d="m56.6819471673,78.5400210827c.4084034736-.3245181981.7927538616-.6310050873,1.178306337-.9359666865.3736336668-.2955376887.8384048261-.2773646243,1.1210314156.0420617136.2989284803.3378488922.2708948984.8348892927-.0988660062,1.15277333-.5387618977.4631608187-1.0907977872.9115336959-1.6489972089,1.3511971108-.3896350358.3068951452-.755466476.2659164442-1.1743938832-.0689158893-.7781020057-.6219100497-.5661774254-.6428331723-1.2744279553.019942174-.1466433043.1372250648-.3012135801.2659788167-.4518884129.3989228632-.2744104366.2421411995-.5728512777.2749888009-.9001252022.1132060006-.8030226353-.3969723065-1.6110010454-.7840727549-2.4104230892-1.1881385103-.491908846-.248639275-.6464394303-.6707363392-.4354901283-1.114340559.1966660106-.4135463681.612673253-.552120946,1.1065496664-.3272795966.5478172437.2493877444,1.0896864235.5156217211,1.6153784575.8082335748.2619586271.1458154526.4350024891.1330971426.6434228717-.0839419801.2558631375-.2664437749.5394763458-.5086189958.8269056141-.7417842324.4151113472-.3367205178.7505730736-.3386313829,1.1737814991-.0189668957.2440407228.1843389471.4753177738.3855694882.7292360249.592997583Z"/><path class="cls-3" d="m22.934760877,40.1659397838c-.3014247959-.3190095765-.5666990859-.6202940362-.8541552877-.8986707952-.3419612193-.3311608642-.433231962-.6967654976-.2293194066-1.1322839795.3736166562-.7979846469.7385309377-1.6001198969,1.1197400224-2.39444725.2196488415-.457674878.6802779029-.6388725216,1.0724744619-.4473692478.405463463.1979815034.5567421745.6504170954.3562657741,1.0990961647-.2522313597.5645047129-.5047377253,1.1292248942-.7747693322,1.68528381-.1240588065.2554718936-.1184807248.4404997728.1134795882.6399923906.268442527.230860291.5015907516.5034590929.744528616.763115611.380888717.4071135002.394803444.7469498055.0571785276,1.2012083742q-.576140007.7751790103.0757314969,1.5112845145c.143226995.162157035.2896803468.3238689575.4125342309.5011116206.2409873078.3476810587.1901764405.6915573978-.1276367172.9949738613-.3099485585.2959147586-.705528823.3574621932-.994018423.054814045-.5639305995-.5916083784-1.0963432652-1.2164556036-1.6023723837-1.8586140193-.2274113766-.2885888305-.1895484633-.6449169792.040081388-.951902848.1851086788-.2474683739.3765439087-.4902021117.5902574444-.767592252Z"/><path class="cls-3" d="m90.5456182638,83.519162902c-.49582697,0-.9891023397.0060728087-1.4821509005-.0016500349-.5281982725-.0082785255-.8572356363-.3090384895-.8613975799-.7706343266-.0040088476-.4451011587.3421242383-.7825871565.8495071225-.792901292.6960028485-.0141642168,1.3924649851-.0098378368,2.0887003128-.0068552995.4636824765.0019902482.7528128116.2157066203.8385012199.6921130797.0514232514.2858812991.1379508526.5654459699.2203051698.8941828138.3616865072-.0170730412.7145671583-.0202767172,1.0646864108-.0530392652.7473126954-.069925189.8958271733-.0003742347,1.2298656737.6897996287.3499604863.7230668266.691512032,1.4503976608,1.0237984336,2.181748683.2321502654.5109437872.1073259788.9603373046-.2979475317,1.1598497682-.4280678065.2107451752-.864680639.0248128955-1.1171699938-.4891474503-.2724485394-.5546045037-.5195341719-1.1223242329-.8113578629-1.6662517068-.0668689385-.1246428402-.2695000235-.2429463712-.4130417159-.2470969743-.3846168886-.0111363178-.7707363862.0486561829-1.1568955754.0665457362-.5500739924.0254819818-.8304495034-.1915061088-.9590331478-.7276200156-.0360172558-.150175854-.0611023218-.3029543403-.0959004797-.4534477268-.0344182529-.1488433516-.0747618887-.296308839-.1204695554-.4755956175Z"/><path class="cls-3" d="m26.3289378682,111.344885979c.0727432894.4625881261.1335677703.8737359899.2028890802,1.2834322767.0716546066.4234749284-.0394023788.7451806959-.4356659052.9715359948-.7637988685.4362782918-1.5104311372.9025180415-2.2711142182,1.3443985135-.4940819589.2870266841-.8971653459.1981629505-1.1606875369-.2298481562-.2424119513-.3937175986-.1027458562-.8388074168.3718659748-1.1308919397.5126887953-.3154798627,1.0311045158-.621944071,1.552478675-.9228854822.2099655183-.1212066851.3129537766-.2513042797.2478284317-.5196872709-.0869245168-.3582333435-.1156215149-.7304154355-.1732706709-1.0959860475-.083774708-.5312431852.1081595015-.8592769215.61170648-1.0373105807q.9310477627-.3291564404.8039071901-1.3234527101c-.0252324918-.1989794627-.0577342094-.3996713326-.0545957411-.5990703918.0066851928-.4245295899.3050494859-.7419373284.7071901983-.7794628637.4182271347-.0390338146.7981519138.2373668718.8555005481.6689161977.0975731954.7342598466.1878573193,1.4708671655.2384101914,2.2094137006.0272766072.3985032667-.1529684379.7183945629-.5740703756.8498756919-.291696111.091086461-.5794287362.1948401999-.9223723217.3110230675Z"/><path class="cls-3" d="m26.5834458224,54.6208264364c-.0392436126.4968702939-.0749376657.9572810544-.1121428331,1.4175727403-.0438761847.5428501315-.367328379.8729931907-.8376847078.8568160448-.4677820476-.0160864224-.7755929321-.3809709374-.7442082484-.9204869779.0385858667-.6632403046.078634651-1.3277280581.1579185425-1.986880132.0760348538-.6321277914.2456057043-.7731292247.8825730273-.8685760871q.8229392932-.1233046676.832677901-.9617832114c.0022680892-.1855523748-.0006407352-.3720119852.0167781895-.5563566025.0349342432-.3697155449.2194489661-.6365222142.5763554754-.7657636051.8566856247-.3102178959,1.7115284269-.6258905462,2.5726481659-.9233504405.4870466299-.1682468544.8951155603.0321331533,1.0387082847.4769167795.1456822015.451264691-.0543377459.8240761776-.550039971,1.0093337008-.5786434104.2162509617-1.1564419575.4355808544-1.7410476073.634662381-.240230333.0818099763-.3489880431.2080064575-.3390764935.4681392744.0135234816.3550013165-.0002466547.7112614224-.0087916806,1.0668354314-.0143711799.5976868574-.2600392567.8665121259-.8595604277.9450560538-.2877751519.037695642-.5762052145.0703901473-.8851076169.1078646506Z"/><path class="cls-3" d="m88.9742747573,32.7502804955c-.1274949616.4774696262-.2439216481.877603082-.3398334682,1.2825902486-.099115496.4185049781-.3768033214.6363577777-.7774045683.6871346239-.8735431973.1107309483-1.7487704508.2113575593-2.6254719623.292821652-.5681676736.0527954456-.9097929322-.2118990656-.9630533358-.6937035772-.0524665724-.4746373498.2756352047-.8169685532.8532381292-.8837014067.5528240505-.0638722261,1.1051207702-.137585124,1.659759292-.178257633.303549712-.0222584601.4830122663-.1290968003.5472332107-.4407322519.0684679413-.3321871746.1664210417-.6585907218.2584374187-.9855641263.1632967489-.5803189646.4010775456-.7460850965,1.0082450122-.7129256329q.9581882846.0523361575,1.2478289398-.8661265508c.0557326207-.1767947155.0996314863-.3581738062.1675494161-.5301063055.1695339941-.4291564918.6249379451-.6564558828,1.0096625679-.5144082934.3839307916.1417527378.6178955283.6117036484.487457721,1.0248360903-.2091121498.6623387391-.4248187688,1.322967906-.656328299,1.9777482379-.1868338441.5284250844-.41747016.6566288246-.9893234784.6081285729-.2892550801-.0245293843-.5789184162-.0443156272-.8879965955-.0677336479Z"/><path class="cls-3" d="m34.2507807458,36.2987315138c.365394833.2916876074.6984949115.5644593511,1.0390881896.8275293434.3291961301.2542641361.4506608096.5605695782.3252524901.9734808813-.2599116766.8557727237-.4966860088,1.7185566781-.7537200473,2.5752338024-.1403833782.4678897846-.5623160036.7026398485-1.0007886691.5792983245-.4533796815-.1275346539-.6585510264-.5060532199-.5204045511-1.0192877772.1642521814-.6102322256.3711529443-1.2095265912.5180258926-1.8235011639.0356175051-.1488943836-.043122045-.3848975668-.1540627909-.4967625597-.2369075824-.2388751511-.5294117002-.4225847034-.7989429099-.6291509244-.5169570556-.3961813104-.5912624914-.6999096362-.3124264459-1.2756584011q.4136427595-.8540943378-.322199075-1.481257849c-.1408058098-.1202200663-.2846451889-.2389063373-.4115617877-.3729957689-.3595034714-.3798057066-.366948474-.7557868479-.0331141017-1.1023026758.3356658544-.3484181877.722956253-.3716093994,1.1049506635-.0440576321.5257232202.4507883922,1.0488834996.9052482538,1.5576669289,1.3748958075.4148335063.382918659.4442676333.6783741295.1675976129,1.1777648375-.1267549975.2288048352-.2522228544.4583241185-.405361399.7367717554Z"/><path class="cls-3" d="m9.2530297529,3.3096694259c.4616468665.1204440401.8751478704.2344353666,1.2918241992.3353185552.4158612342.1006861484.633068336.3827184293.6830733228.781111481.1095798924.8730247314.2060502294,1.7480638094.286265455,2.6242585498.0435416415.475619716-.2087946173.8575234051-.5708333871.9404752225-.4626108044.1059948946-.9249409327-.2212315437-.9943480047-.728355727-.0774339813-.5657783867-.1629572443-1.1336972825-.183531648-1.7029054453-.0145157706-.4016059418-.1776268197-.5784562964-.5548454849-.6415031506-.3031995757-.050675491-.6007126266-.1398673887-.8974779169-.2235669668-.5434171507-.1532643535-.7243057661-.4098398143-.6873295339-.9833874695.0197685233-.3066382133.0608471618-.6119024606.0965383797-.9589078768-.4647350116-.1487265805-.9157530453-.2915619765-1.365768867-.4374922511-.4713521617-.1528497185-.7534078307-.5858741883-.6386194842-.9754814954.1468027793-.4982704846.5590464113-.7182707925,1.0954466612-.5549329336.648696179.1975330242,1.2927045013.4113022002,1.9343157368.6309737238.4563281974.156235196.6695980381.5231018083.6124421914,1.0096593843-.0337215243.2870708056-.0694354231.5739075372-.1071516194.8847363996Z"/><path class="cls-3" d="m52.5202417185,3.9188044634c-.3995239045.3136327876-.7807273189.6249014467-1.1748361606.9188631678-.3915629116.2920632596-.9075305133.248652033-1.167470541-.0798360299-.281469864-.3556941468-.1903210312-.8403759422.2228681105-1.174763872.5040147719-.4078924471,1.0056593906-.818832639,1.5148680866-1.2201610943.4305400237-.3393288203.772029197-.3340521463,1.2123673659.005226528.2188989545.1686620211.4323374844.3444098717.6819917278.5439189686.3276311486-.2868480721.6628093638-.5552066104.9677879719-.8543604838.3058234713-.2999950155.6357056984-.3683649687,1.0119306571-.1825912781.8442168046.4168609678,1.6892387808.8326376827,2.5236687806,1.2685123254.3813224891.1991871346.5009471813.6688970607.3055626411,1.0373371599-.2063167299.3890570297-.6200842343.546607363-1.0220746858.3572580652-.5584489116-.2630416412-1.118445794-.5276294813-1.653119461-.8345221458-.3352575983-.1924377973-.5606149367-.1184378444-.8052113413.1324741268-.2366013904.242713892-.4962749176.4634779967-.7516674266.6872037298-.3429294099.3004133717-.7350990353.3120702868-1.0889322839.0326172486-.2539012404-.2005235352-.5008848088-.4098054385-.7777334412-.6371764161Z"/><path class="cls-3" d="m87.3621339971,11.7798668497c.3782662389-.2765637053.693394546-.4968057951.9972277691-.7316685547.383686972-.296580301.7636656182-.3559744685,1.1918014674-.0771951236.711074301.4630190631,1.4411098273.8969123174,2.1526434163,1.3592509537.5109778056.332019903.6175496447.7475536842.3345091289,1.1731762096-.2763666635.4155777255-.7253349115.4700076128-1.2165860117.1526438185-.4669655355-.3016728699-.9460596778-.5856021948-1.401849204-.9031219202-.2627751392-.1830588943-.4705604568-.2282689991-.7253802733.0139770995-.211204462.2007797584-.4638809343.35865294-.7018942101.5303898167-.5860855779.4228781375-.8984354758.400978319-1.4252048521-.0942022485q-.59275376-.5572099711-1.278516186-.1173906251c-.2211783841.1411261782-.4418577886.2862853025-.6759642809.4031599373-.3835905782.1915032737-.8574227537.0473180103-1.0541908282-.3005161445-.1854559799-.3278310258-.0868734848-.7927326029.2534476225-1.0255689666.5858190774-.4007954543,1.1802115319-.7900569664,1.7834665447-1.1640599087.4677026645-.2899617333.8169260218-.2335082851,1.2035841906.1611314335.1828306667.1866098714.3519564047.3866468306.5629057068.6199942231Z"/><path class="cls-3" d="m81.4756317999,80.0160651617c-.139538515.7158713137-.2861024361,1.5677202432-.4851329297,2.4071287036-.0412225204.1738433645-.2513269592.3537652079-.4279884234.4416479929-.9120950427.4537255677-1.8365908629.882842368-2.7610866831,1.3111936881-.3969893149.1839363613-.843542048.0258618867-1.0298995934-.3428330181-.1995578242-.3948119516-.0673112159-.8487699984.3506976153-1.059957451.7026086582-.3549559547,1.4280059422-.6655367448,2.1236969285-1.0328878068.1683148961-.0888807442.3224995968-.3099060336.3713769181-.4990589999.1271207269-.4919768915.1867487907-1.0010495051.283579187-1.5013105923.0839192987-.4335735955.4453052841-.7132176494.8572866683-.6795025039.4217171569.0345203171.7158939904.3705207166.7174703124.9555799876Z"/><path class="cls-3" d="m6.017005201,51.9013364927c-.1190023853.3539409848-.290831402.8164157065-.4302604108,1.2884617644-.484788818,1.6412970557-.3248662061,1.4011744556-1.9535172378,1.8955498514-.5905147308.1792527571-1.1731182602.3849684446-1.7653018085.558199425-.5217928697.1526367307-.9523047195-.0593048615-1.0844557315-.5036915721-.12753864-.4288843211.0986892548-.8092712256.6074319293-.9816403321.6276481345-.2126503701,1.2529365702-.4403381714,1.8942816597-.6017920988.4636980696-.116727209.7022815572-.3682526274.81042582-.8195399993.1003888155-.4189160692.232354039-.8335057583.389431971-1.2347193916.1602426251-.4092993711.5475284167-.5973353036.9320641502-.5044173606.3514457303.0849229287.6106518186.420004752.5998996584.9035897136Z"/><path class="cls-3" d="m13.816754713,56.8026091407c-.2508875169.6376846099-.4814444497,1.1442623254-.6502866765,1.6706291189-.2854149216.8898054017-.7572043993,1.4871010137-1.7838067581,1.5800473078-.7310582928.0661885121-1.4448216969.311873601-2.1698723886.4599798236-.4895890161.1000057216-.8549725086-.1296326364-.956856491-.5672717817-.1090950883-.4686099029.1244982488-.8355867302.6268984247-.9554552426.7202742376-.1718644567,1.4408263161-.3446248085,2.1666354001-.4902021117.2845005982-.0570594532.4546859591-.1682298438.5590534991-.4544059945.1847436582-.5065720453.4012015817-1.0037145099.63762436-1.4885979526.1767691985-.3625370427.5262462982-.5400830628.8873757061-.3769791005.2721423474.1229134222.4670349958.4168634485.6832349242.6222559333Z"/><path class="cls-3" d="m102.2827017963,1.3329614967c-.1861307364.6729980494-.3953619609,1.5104517005-.6615108827,2.3294103247-.059401255.1827984184-.2949423136.3586561295-.4900093213.4384762119-.9124295859.3733749651-1.8382295573.7142180893-2.7609789488,1.0621426132-.4391587625.1655921269-.889612609-.0051538782-1.0585512296-.3911433174-.1831028374-.4183696015-.0038444111-.877184903.4544910452-1.0641279.6989230133-.2850732923,1.4046162728-.5555113849,2.1172272042-.8041070701.2812884169-.0981285234.4215357098-.2470517898.4845545669-.5409144592.1064187431-.4962619853.2540826875-.9842879718.3984692431-1.4716132428.1224087717-.4131833409.4960878003-.66166509.8690183595-.6002526776.4084488353.0672609816.6843732214.4346104932.6472899637,1.0421295171Z"/><path class="cls-3" d="m105.5405056743,83.0978029667c.0018711736.5858077404-.2583466951.9070655603-.6386939059.9706968019-.4000682459.0669313113-.7794174974-.1484407658-.9006582032-.552756011-.2169087063-.7234240506-.4213996244-1.4510667471-.6082561494-2.1827749933-.0758335609-.2970062765-.2036970869-.468434126-.5213883348-.5554607073-.4737017603-.1297403706-.9302681071-.3254651253-1.3885241802-.5072127805-.4578931789-.1816172401-.6614201592-.6316004607-.4917217286-1.0492237191.1595487316-.3926402562.6162738446-.5934965626,1.0425498607-.4412113857.6974033936.2491325844,1.3947274041.4996373627,2.0826955468.7731802567.1764233149.0701406575.4106942436.1985768768.4602293107.3514687676.3604674093,1.1127132051.6804834485,2.2385359655.9637677839,3.1932937708Z"/><path class="cls-3" d="m112.7880598219,99.9351840394c.003867092.6628377187-.6082674898,1.0077914002-1.2191206013.6963714171-.5633933459-.2872194717-1.1288846743-.5733729415-1.6724889424-.8953849011-.4204356865-.2490588715-.7997622571-.3283852901-1.2388643174-.0366409805-.3189500373.2119075709-.6778411246.3669768273-1.0277619194.5282266266-.5062374992.2332956518-.9531758075.1108301772-1.1591523241-.2985145558-.2174417072-.4321163482-.0644364129-.8267978846.4429237905-1.0943643637.6139150318-.3237583882,1.2187690475-.6737132063,1.8595495954-.933386735.2782945392-.1127693934.6845206472-.1345090281.9494901627-.0142889618.8690410404.3942732804,1.7018947182.8689276409,2.5443991155,1.3206629604.2948402496.158085815.5454527607.3613066044.5210254405.7273194937Z"/><path class="cls-3" d="m65.6242288714,120.4972721748c-.5373386718.0094919532-.8913023354-.296257807-.9377924928-.7117377212-.0463484019-.4142438055.2145442233-.7534138596.676780793-.8544685725.7388073611-.1615446509,1.4778075098-.3238831331,2.2211283683-.4622365723.2711784095-.0504763244.4297065009-.1556249382.5286972521-.4278069788.1631890146-.4486847395.3764234165-.8794062129.5731404591-1.3156278024.2176004735-.4825586512.6234239956-.685915526,1.0360234341-.5252781107.4486847369.1747109086.6280452273.6110799239.4235486389,1.1115451392-.2801997341.6857227384-.5670619801,1.3700392616-.8895388961,2.0363584971-.0919823557.1900545318-.294443334.4083127524-.4852520043.4553415812-1.0780624666.2656499437-2.1679927097.4831143331-3.1467355522.6939105403Z"/><path class="cls-3" d="m3.20817595,32.4170103083c-.1244252447-.1296694928-.4283894145-.3218135017-.5467329907-.5945086974-.2876241822-.6627640058-.4851713809-1.3643151715-.7267824131-2.0474891447-.1178511528-.3332304956-.0763470704-.6240307131.1350285615-.9148110848.5538158079-.7618709971,1.0882894223-1.5377644555,1.6365609926-2.3037095077.3394595879-.4742290938.8125401044-.5974572134,1.1854742075-.3222642845.4021052735.2967199302.4459456649.7287143686.1068266448,1.2199739769-.4034558497.5844724029-.8110293444,1.1664243917-1.2317379104,1.7384988521-.1705145882.2318610854-.2222798249.4453988454-.1094622353.7231859012.1854130989.4565465036.3575770132.9207421379.4974883453,1.3929242813.1752828913.5915573464-.1963789555,1.118332396-.9466632022,1.1081997076Z"/><path class="cls-3" d="m27.5591806117,68.7677604472c-1.0492945908-.3907407315-1.7282612547.2367998495-2.2593967026,1.1680262296-.0607082413.1064300842-.1429860105.2022398408-.224535156.2947948895-.3250285163.3689103733-.7539950531.4266615937-1.1108930571.1541336696-.3527417306-.2693525993-.424543763-.7274839302-.1416223219-1.1122312361.4574197153-.6220574755.9148592764-1.2464851042,1.4159340377-1.8325990366.1489907765-.1742799716.4431109078-.3121230908.6725281258-.3148391275.9894964202-.0116976699,1.9800049752.0238319469,2.9694503634.060818811.5359891587.0200272273.8670592975.3711444411.8450843487.8476529645-.0223208324.483976207-.3136313683.7293324229-.8777164814.7336701434-.3868140999.002976867-.7736735616.0005726925-1.2888331566.0005726925Z"/><path class="cls-3" d="m78.259401996,1.7304901938c1.0349744429-.3264724758,1.7467178302.1786956577,2.2841585659,1.1439121891.3048652037.5475236356.7241555052,1.0329010964,1.1061754317,1.5354256657.3394025313.4464584683.3322183589.7898744562-.053526904,1.1317392837-.3439273691.3047893662-.7660697927.2966518875-1.0990649722-.1034960982-.4927196879-.592075463-.9496886205-1.2157695066-1.3922721976-1.8467721131-.1722443606-.2455819617-.3495522302-.34830372-.6478796669-.3226254068-.4306194068.0370666016-.8646806389.0355274905-1.2973526665.0472474869-.6111763142.016555279-.9975906634-.2766696676-1.0166539527-.767837312-.0194148432-.5001377599.2802280852-.7809101881.9047464339-.8140079881.3698459579-.0196010747.7415857703-.0035857072,1.2116699284-.0035857072Z"/><path class="cls-3" d="m63.0553684144,99.9819633785c-.007581088.6449765165-.4380133775,1.0588347469-.9053814988.9123842294-.8500344532-.2663643918-1.6777055474-.6108644555-2.4961171676-.9656162821-.1639204734-.0710592336-.3015367828-.3180087822-.354456973-.510456148-.2615390306-.951293299-.4931846461-1.910876464-.7299448027-2.8688719665-.1171071133-.4738718697.1229247619-.9109213118.5509755578-1.0245639196.4301544486-.1141982896.8574907963.1286800389.9879682952.6091860695.185915268.6846907578.3494785173,1.3761404214.4980440272,2.0699602382.0783908314.366103613.2425381137.5919939536.6237358579.7026540241.4573658482.1327739399.9164044121.297425873,1.3302229485.5280905413.2379679141.1326605354.3878942774.4232481195.4949537557.5472332139Z"/><path class="cls-3" d="m88.1391132987,107.4742330487c-1.1066290495.3933433639-1.8175672651-.2609096374-2.4092039912-1.2259248759-.3293548963-.5372196002-.7534875682-1.0153894989-1.111908027-1.5360180268-.2757089176-.4004991852-.1897029769-.8413930384.1755954623-1.0996149901.3418350569-.241619539.7800525624-.1903267025,1.0694097065.1739284178.4616128451.5810617638.9024216425,1.1792362603,1.3364715342,1.7813799129.1864993009.2587209313.3906726866.3861194999.7284138426.3571560012.4769337874-.0409049881.9590331478-.0283057528,1.4388814297-.0266500477.4848494185.0016670455.8253179517.30243835.8495298034.7326948651.0261340573.4644139379-.288540632.8134048181-.7894764728.8390909279-.3858870185.0198117589-.7735998487.0039578156-1.2877132876.0039578156Z"/><path class="cls-3" d="m101.9101227909,41.3301244374c-.113336415-.0674359612-.3756069044-.153685722-.5368567028-.3315265936-.683624752-.754009233-1.3416881392-1.5314648378-1.9997515264-2.3082825425-.2744841495-.3240305589-.2262759145-.8080889841.0838058943-1.0842146647.3415742266-.3041734382.8208328054-.2816966746,1.1531078665.0891699256.5045704537.5631665403.9998757632,1.1357229697,1.4740765031,1.7244565451.1768315709.2195368558.3549786335.2982593957.6290545269.2635519612.4897598315-.0620067227.9831372653-.0960082145,1.4752105477-.1393457282.4938764133-.0434906098.886051709.2483132372.9328083669.6909251679.0469154242.444040827-.2224541842.8027816555-.7117717384.8615421756-.7814701181.0938478595-1.5676124999.1488376814-2.4996837378.2337237536Z"/><path class="cls-3" d="m12.8340625603,114.5373348866c.6945952157.1974031407,1.5733124914.4298028972,2.4369909185.7087665244.1534121328.0495577483.2869756505.2755841743.3568483895.4494218685.3564443862.8867888431.6922760946,1.7819696161,1.0286464741,2.6767194522.2060615699.5481291091.0478694392,1.0074398464-.3901949703,1.170935054-.4740575668.1769336359-.8893758772-.0538897986-1.1058522289-.6239740108-.2571460254-.6771607018-.4919612956-1.363461803-.7723240486-2.0307222956-.0687160136-.163529229-.2557015361-.33092555-.4250881044-.3886711002-.5244119811-.1788048095-1.070796076-.2919937994-1.6004657713-.4569292437-.4186963457-.1303811058-.5636541762-.4581199905-.5062403343-.872567924.0549104384-.3963826033.361948755-.6332164742.9776796757-.6329783248Z"/><path class="cls-3" d="m107.6079029598,32.3250279521c-.4794627068,0-.9590501584.006968704-1.438354099-.0019363811-.4916196646-.0091290589-.846745724-.3506749364-.8476075978-.7967371978-.0008845548-.4494303738.3421752703-.7715387272.8539242261-.7800128753.7113067801-.0117798881,1.4229877949-.020424143,2.1342038515-.0099824275.3177252692.0046637584.5517240272-.0624801863.7296556214-.3626589525.2354843564-.3972501474.525210065-.7624295141.7929693301-1.1404320898.3066569941-.4329073443.7775123025-.551687174,1.1638019068-.2953250554.3722161111.2470260966.4366865453.744418051.1359039021,1.1889777033-.3981063488.5883848567-.7782721124,1.1936471319-1.230154855,1.7385782352-.1829780925.2206567249-.5227265074.3855269616-.8123955137.4268345355-.4850195252.0691767196-.9870723999.0189073583-1.481958113.0189073583.0000113404.0045957157.0000113404.0091914314.0000113404.013787147Z"/></pattern></defs><g class="cls-4"><g id="Capa_2"><g id="Capa_2-2"><polygon class="cls-2" points="1693.3333333333 96 741.3333333333 0 0 328 274.6666666667 1026.6666666667 1645.3333333333 989.3333333333 1693.3333333333 96"/></g></g></g></svg>