<?xml version="1.0" encoding="UTF-8"?><svg id="Capa_2" xmlns="http://www.w3.org/2000/svg" viewBox="0 0 308.3997132306 315.1745469848"><defs><style>.cls-1{fill:#f9b700;}.cls-1,.cls-2,.cls-3,.cls-4,.cls-5,.cls-6,.cls-7,.cls-8,.cls-9{stroke-width:0px;}.cls-2{fill:#d05c12;}.cls-3{fill:#ced8df;}.cls-4{fill:#664100;}.cls-5{fill:#f36c19;}.cls-6{fill:#ffe8bb;}.cls-7{fill:#e3eaef;}.cls-8{fill:#f19213;}.cls-9{fill:#fdca47;}</style></defs><g id="Capa_2-2"><g id="Exploding_Head"><path class="cls-9" d="m304.1272484764,130.1899246782c1.9282178144,7.8541760251,3.1889290881,15.7076628313,3.8053266514,23.5221743912,2.5527983713,31.883136192-5.4579393442,62.9460186734-21.561594709,89.1668766983-9.3537643702,15.2525454993-21.4504234367,28.8692448343-35.8050159955,40.0637016067-1.0192417066.7973465648-2.0404537828,1.5844909137-3.0799185987,2.3429899181-15.6964127868,11.6115014035-33.9485545979,20.3930021391-54.1402948763,25.3720258142l-.1446264929.0355061281c-20.2018848865,4.93770182-40.4450825297,5.6068931836-59.7346750615,2.5845344851-1.2155667857-.1829775034-2.4161725876-.3920684486-3.6085465432-.6133319795-1.3664147125-.2533377579-2.7274611497-.5261595479-4.0837760175-.8167061652-54.5454631915-11.4698202294-100.2961847869-52.6263007578-114.3331057196-109.8026462064-7.2792511216-29.6504467562,5.1072993925-50.7351270026,29.3051699553-66.8963316266,24.201096212-16.1502419874,60.2159867675-27.3669298511,100.2104494534-37.2620645778l.1446264929-.0355061281c56.1268348102-13.6697327712,106.5277215246-21.4258660787,136.6600430378-4.4108403007,12.845834552,7.2635134168,22.0131592893,19.0195185415,26.3659384232,36.7496179427Z"/><path class="cls-6" d="m69.8415306411,267.3862821385c-3.9137109369-1.479845291-7.6203303912-3.3914859847-11.0882534981-5.6497134147-3.4307712882-2.2940631501-6.6999441197-4.8570126279-9.6994673664-7.7057578761-.7417357545-.7187274689-1.5042924158-1.424328899-2.232738941-2.1607449308-.7182171108-.7448046463-1.4068775433-1.5150316318-2.1132025514-2.2745103567-1.4344878393-1.5034445665-2.7044299792-3.1397189049-4.0127338867-4.7516150189-2.5022466682-3.3042292818-4.8489910896-6.7454797153-6.8486782777-10.3857388036-2.0654118222-3.6032859484-3.7662708809-7.4061356623-5.2806414018-11.263317487-.35201658-.9768307808-.6987464799-1.9538908587-1.0287140719-2.9366690128-.3473666058-.9753008733-.6560365643-1.964910536-.9242506708-2.9681922822l-.8330402345-2.9905846487c-.2538658414-1.0035984936-.4486306035-2.0254465157-.6731541426-3.0335771237-.8664524602-4.0450992151-1.3308452496-8.1718074665-1.501757976-12.2979012973-.1189204275-4.2190026527.2425021009-8.5206669553,1.6890345083-12.5026040194,1.5802183026,3.9099403993,3.1558251648,7.4528820734,4.906300446,10.8919832658,1.7998865684,3.5097866932,3.4294710202,6.9961986662,5.183902529,10.3926534059,3.3934188475,6.8319372281,6.8676812158,13.4447342953,10.5173943121,19.9647681661,3.6318010913,6.5297742813,7.4512015091,12.9509797226,11.4955540362,19.417941108,1.9796049838,3.2711811999,4.0895697907,6.4879182842,6.154494311,9.8498214838.5235297801.8332074176,1.0664924066,1.6541638655,1.5840172055,2.5086145197.505765477.8674892429,1.0490448509,1.7027939559,1.5906434042,2.548662963,1.0796514989,1.6968828472,2.1393176845,3.4472931885,3.1152922668,5.3464813595Z"/><path class="cls-1" d="m304.1272484764,130.1899246782c1.9282178144,7.8541760251,3.1889290881,15.7076628313,3.8053266514,23.5221743912,3.5794118182,50.5505679141-18.6900480805,98.8133815828-57.3666107045,129.230578305-1.0192417066.7973465648-2.0404537828,1.5844909137-3.0799185987,2.3429899181-15.70489263,11.7118939284-33.9670468355,20.5396651084-54.1951027719,25.5056981693-20.2174735101,4.9634350515-40.4813981876,5.5939025695-59.8244936589,2.486368258-1.2155667857-.1829775034-2.4161725876-.3920684486-3.6085465432-.6133319795-21.65614134-4.0175427173-42.0584258634-12.7300252766-59.8148994188-25.2882268451,31.2296300523,16.0895169803,68.2109545016,21.3777735299,105.0030272444,12.3452372251,80.9737026031-19.8792254409,130.5073172792-101.6336659089,110.6230195343-182.6280294395-2.0193955719-8.2255687962-4.6688132553-16.1206819385-7.9077401574-23.6530759454,12.845834552,7.2635134168,22.0131592893,19.0195185415,26.3659384232,36.7496179427Z"/><path class="cls-3" d="m237.9729298782,9.3723798768c-2.2329744159.5482002229-4.2916969048,1.4314769791-6.1344997294,2.5932684309-4.1087261655-6.4166142647-13.6496744397-9.555672831-23.4767558812-7.1431023158-1.9462822654.4778166575-3.7913232524,1.1426474836-5.4852865936,1.9730360581-6.6646390965-5.945672161-17.6015045781-8.428724514-28.8187724856-5.6748601062-14.1540858718,3.4748597991-24.0571655598,14.1327729156-24.2383219372,25.103126787-4.9826587355-6.0360752177-13.1549285688-9.0415266633-21.2702361966-7.0492004553-6.203814495,1.5230503605-11.0862969652,5.6514424648-13.7581484504,10.9412942225-4.3925974829-10.0872455333-17.6971562682-16.0979804794-32.1196522404-13.791554254-13.1739106077,2.101107088-23.2910301239,10.4992250867-25.7433298663,20.286089309-3.2849634763.4288350369-6.6390336559,1.3260386232-9.9412378567,2.7354586214-11.3018465924,4.8105515495-18.797490424,14.1682794539-19.9176175229,23.4897701048-1.6952105867.1120940671-3.4105768347.3674585964-5.1222445839.7876768645C6.4895270274,67.4181848105-2.9550670231,83.021408079.8375734021,98.4699042378c3.7926925032,15.4487082877,19.3892736658,24.9042669273,34.8465731722,21.1094652606,3.6927391472-.9065757356,7.0455116726-2.4851755333,9.9556159615-4.5907066747.2111793667-.1530563752.4223066553-.3063248793.6312987414-.4682906665.2721107575-.2049010888.5354721537-.4078791039.7968564899-.6193683124.344031107-.2871080568.6859270115-.5829133967,1.0192316972-.8766095732,4.1796658895,1.9402753813,9.0118826901,2.5226802033,13.8342080022,1.338788533,1.6246949178-.398866243,3.1504958886-.9761014496,4.5727639054-1.7121237727,6.9405945344,10.4841662729,22.6619128248,15.5698329738,38.8579510767,11.5936692896,17.047311356-4.1851531388,28.9691748787-17.0154171982,29.196632769-30.2359336431,6.5164157031,9.1695446689,21.1884608824,12.0072666397,34.9077485281,6.1608217615,13.9518694462-5.949426718,22.1132908529-18.823624656,19.6240642303-30.0137593884.6144765545-.0865299242,1.2290555957-.2097460156,1.8372290295-.3590539564,2.4763922797-.6079598539,4.7396259901-1.6334344607,6.7395518177-2.9811187299,5.4936580076,3.7273820981,14.0898522677,5.007128126,23.0045674941,2.8185455611.3648616345-.0895743489.7276941309-.18787202,1.0905787054-.2859575622.2584130205-.0728873699.5170362617-.1453765212.7646688747-.2246138429.2411245187-.068643004.4823531935-.1368617502.7192593853-.2226871916.4628234248-.1412886283.9038758138-.2956753789,1.3515963479-.4609206542.4063693209-.1458719796.8107615818-.3002551526,1.2128604976-.4635216985.0325478657-.0172120541.0673369982-.0257528641.0998848639-.0429649182.3109113351-.1224368302.6108301338-.2511715341.9087737807-.3888677281.4500122097-.1934723272.887002745-.4019658504,1.3132147809-.617259622.3217942295-.1527730456.6328080514-.311896043.9329373095-.4777932499.1631095997-.0859262588.3262211076-.1723028144.4806334242-.2560938707.4066822671-.2197206498.8005549887-.4545145736,1.1855722845-.6873593847.2871075837-.1809184028.5765104206-.3534037294.8528915831-.5409102519.0717638764-.0452826329.1349365341-.0884561024.2067004105-.1337387353.2132085048-.144333053.4177737127-.2867690714.6223389207-.4292050899.228573933-.1573267802.4549605854-.3235629724.6813993159-.4895870358,4.9064880908-3.6549934845,8.0142892587-8.3701570778,8.3902562078-13.1055855172,2.1388140844.1566311379,4.335542609-.0142612599,6.5338339568-.5539467119,11.2867401083-2.7709199887,18.189782832-14.1664046465,15.4189149214-25.4529326259-2.7730551913-11.2954373914-14.1685119017-18.1988243475-25.45525201-15.4279043588Zm-96.4166286267,59.8573857943c-1.7123483513,1.580942371-3.7401362064,2.8526984233-6.0156596344,3.7154284547.5588867202,8.918510476-5.3264300228,17.2174027293-14.31061745,19.4230408751-4.0317210611.9897965551-8.0811943075.5930822083-11.6466996934-.8715850454,1.5954064304,9.612955363-4.4681273426,18.9875064163-14.0866861174,21.3488841495-7.020404531,1.7235250442-14.0818401421-.7346017015-18.5630879661-5.7790998946-11.2391361672.7509746699-21.9548696204-4.2462521493-28.6885083779-12.874179452-1.8188060604,5.7252560622-6.4865683346,10.39020895-12.7511577472,11.9281796889-.7212381147.1770655734-1.4357055975.3065864548-2.1520978233.3902475502-8.8231060035,1.0606392485-17.2445146393-4.6105072164-19.4160155841-13.4556441776-2.3485665182-9.5663750759,3.499153655-19.2194668639,13.0655287309-21.568033382,5.0655310469-1.2435992232,10.1604298379-.1912873983,14.1742775839,2.4990759377-.2152062796-15.2860864865,10.1013361099-29.2514319157,25.5760301826-33.0505039874,7.95896866-1.9539446411,15.9484462451-.8936576875,22.7760991524,2.4508967925,2.214182829-3.7771775796,5.9024482828-6.6909134581,10.4901590788-7.817206739,6.3427588965-1.5571615224,12.7410273063.7135829259,16.7336219206,5.3438754709,2.1384022447-1.7964222325,4.7111925453-3.1372023313,7.5958268108-3.8453865075,10.0964850902-2.4787097146,20.2993439908,3.6945531225,22.7801368298,13.7995233669,1.6958715679,6.9077641078-.6575748338,13.8697286187-5.561149896,18.362486899Zm77.6951637757-19.074336812c-9.5663750759,2.3485665182-19.2281901861-3.497124517-21.5767567042-13.0634995929-2.3485665182-9.5663750759,3.5056096712-19.2302733105,13.0719847471-21.5788398286,9.5663750759-2.3485665182,19.2216820917,3.5077188347,21.5702486099,13.0740939106,2.3485665182,9.5663750759-3.4991015769,19.2196789927-13.0654766528,21.5682455109Z"/><path class="cls-7" d="m147.1174511474,50.867278772c1.6958715679,6.9077641078-.6575748338,13.8697286187-5.561149896,18.362486899-1.7123483513,1.580942371-3.7401362064,2.8526984233-6.0156596344,3.7154284547.5588867202,8.918510476-5.3264300228,17.2174027293-14.31061745,19.4230408751-4.0317210611.9897965551-8.0811943075.5930822083-11.6466996934-.8715850454,1.5954064304,9.612955363-4.4681273426,18.9875064163-14.0866861174,21.3488841495-7.020404531,1.7235250442-14.0818401421-.7346017015-18.5630879661-5.7790998946-11.2391361672.7509746699-21.9548696204-4.2462521493-28.6885083779-12.874179452-1.8188060604,5.7252560622-6.4865683346,10.39020895-12.7511577472,11.9281796889-.7212381147.1770655734-1.4357055975.3065864548-2.1520978233.3902475502-8.8231060035,1.0606392485-17.2445146393-4.6105072164-19.4160155841-13.4556441776-2.3485665182-9.5663750759,3.499153655-19.2194668639,13.0655287309-21.568033382,5.0655310469-1.2435992232,10.1604298379-.1912873983,14.1742775839,2.4990759377-.2152062796-15.2860864865,10.1013361099-29.2514319157,25.5760301826-33.0505039874,7.95896866-1.9539446411,15.9484462451-.8936576875,22.7760991524,2.4508967925,2.214182829-3.7771775796,5.9024482828-6.6909134581,10.4901590788-7.817206739,6.3427588965-1.5571615224,12.7410273063.7135829259,16.7336219206,5.3438754709,2.1384022447-1.7964222325,4.7111925453-3.1372023313,7.5958268108-3.8453865075,10.0964850902-2.4787097146,20.2993439908,3.6945531225,22.7801368298,13.7995233669Z"/><path class="cls-7" d="m232.3169416799,28.5871833481c2.3485665182,9.5663750759-3.4991015769,19.2196789927-13.0654766528,21.5682455109s-19.2281901861-3.497124517-21.5767567042-13.0634995929c-2.3485665182-9.5663750759,3.5056096712-19.2302733105,13.0719847471-21.5788398286,9.5663750759-2.3485665182,19.2216820917,3.5077188347,21.5702486099,13.0740939106Z"/><path class="cls-2" d="m233.0851768021,63.9127490906c-.1771725998.3291372407-.343512714.664836562-.5186021894,1.002458957-.3500747946.6756690476-.6892631173,1.357662008-1.0415756013,2.0613199397-.8667486634,1.7606479189-1.7404244318,3.6057648647-2.601391472,5.5397516767-.1818080292.3853792157-.3526254302.7775066019-.5235488957,1.1696600271-.0503074563.0951190004-.0919716158.1883409663-.1314465866.2900220474-.2476357175.5675267033-.4995922487,1.1545571364-.7430096393,1.7392662772-.1773794817.4029598718-.3440846202.8122957344-.5194349638,1.2239789285-.2192521924.5328940439-.4363691823,1.0744853709-.6535382504,1.6158645691-.1818063598.4224896406-.3463762959.8405227864-.5087589513,1.2674653442-.3159096464.8143752812-.6404644978,1.6310978938-.9521577255,2.4631059093-.0175510394.0411947401-.0351020789.0823894802-.0439558352.1214490178-.325854175.0982159763-.6561388058.1793015933-.9862113077.2603351322-7.5419233266,1.8515590772-15.204142545,1.8993758294-22.0325799764.277631426-2.124200234,8.1586807922-7.1431882864,15.8211491522-14.3490597012,21.8188176646l-.0085912187.0021091634c-3.7127419288,3.0765100705-7.9944434232,5.7121975683-12.7552124141,7.746896501-2.6086716406,1.1195018728-5.3097308033,2.0129300395-8.0292227533,2.6805714073-6.9749950416,1.721598393-13.8804617379,1.8877146359-20.2224351483.6717167653l-.0086972832.0021352025c-1.6500048746-.3042993347-3.2539187115-.721350404-4.8228905204-1.2205267466-.6793680354,1.0603702927-1.3998787327,2.1034016748-2.1743918075,3.1133584467-7.0023016793,9.1905038997-17.8735160556,16.3181094981-30.9067130456,19.517788565-12.0166755061,2.9501207646-23.9911576951,2.0942317813-34.020862139-1.9472957757l-.0085912187.0021091634c-4.5296888403-1.8269044362-8.6658687872-4.3028053398-12.2289759441-7.3710245106-.4342834265.0697316338-.8707020556.1307659845-1.309203809.1833151808-.6547293512-.6408565074-1.313991645-1.262157207-1.9710666581-1.8745484946-.0605680358-.0589022527-.1188948046-.1091332612-.1793046978-.1678494241-.5858326343-.5471130441-1.1694760798-1.0857669729-1.7509322446-1.6155114897-.0107804075-.0063499518-.0237480957-.0216093156-.0344745169-.0281974353-.5686466192-.5146712428-1.137135096-1.0291563958-1.7034883702-1.5349442657-.7761262909-.6846002137-1.558708598-1.3583939809-2.326346157-2.0084171908-.5945803261-.5080795455-1.1870254498-1.0074618079-1.7752001684-1.489449504-1.4791339604-1.2216143985-2.93660128-2.3929942108-4.3683957609-3.4969049214-.4197025065-.3207003526-.8284124766-.6351028315-1.2351472949-.9405438203.2111793667-.1530563752.4223066553-.3063248793.6312987414-.4682906665.2721107575-.2049010888.5354721537-.4078791039.7968564899-.6193683124.344031107-.2871080568.6859270115-.5829133967,1.0192316972-.8766095732,4.1796658895,1.9402753813,9.0118826901,2.5226802033,13.8342080022,1.338788533,1.6246949178-.398866243,3.1504958886-.9761014496,4.5727639054-1.7121237727,6.9405945344,10.4841662729,22.6619128248,15.5698329738,38.8579510767,11.5936692896,17.047311356-4.1851531388,28.9691748787-17.0154171982,29.196632769-30.2359336431,6.5164157031,9.1695446689,21.1884608824,12.0072666397,34.9077485281,6.1608217615,13.9518694462-5.949426718,22.1132908529-18.823624656,19.6240642303-30.0137593884.6144765545-.0865299242,1.2290555957-.2097460156,1.8372290295-.3590539564,2.4763922797-.6079598539,4.7396259901-1.6334344607,6.7395518177-2.9811187299,5.4936580076,3.7273820981,14.0898522677,5.007128126,23.0045674941,2.8185455611.3648616345-.0895743489.7276941309-.18787202,1.0905787054-.2859575622.2584130205-.0728873699.5170362617-.1453765212.7646688747-.2246138429.2411245187-.068643004.4823531935-.1368617502.7192593853-.2226871916.4628234248-.1412886283.9038758138-.2956753789,1.3515963479-.4609206542.4063693209-.1458719796.8193528005-.302364316,1.2128604976-.4635216985.0325478657-.0172120541.0673369982-.0257528641.0998848639-.0429649182.3109113351-.1224368302.6108301338-.2511715341.9087737807-.3888677281.4500122097-.1934723272.887002745-.4019658504,1.3132147809-.617259622.3217942295-.1527730456.6328080514-.311896043.9329373095-.4777932499.1631095997-.0859262588.3262211076-.1723028144.4806334242-.2560938707.4066822671-.2197206498.8005549887-.4545145736,1.1855722845-.6873593847.2871075837-.1809184028.5765104206-.3534037294.8528915831-.5409102519.0717638764-.0452826329.1349365341-.0884561024.2067004105-.1337387353.2132085048-.144333053.4177737127-.2867690714.6223389207-.4292050899.228573933-.1573267802.4549605854-.3235629724.6813993159-.4895870358Z"/><path class="cls-8" d="m255.4831521715,103.3617393229c-.0796818984.3510855416-.1657677349.7131896586-.2539887738,1.0665964925-2.9221568256,11.5879467428-15.2687056118,18.1475053208-26.6740672066,14.581577051-.1190496083-.0350985013-.2383634236-.0703570533-.3488738913-.1077768468-3.8306921428-.8559458102-8.0698388892-.036316394-12.5207383437,1.6092283765.9548791922-8.7559722936,2.6431822947-16.9641796116,4.740978206-24.5176566163l6.2906812621-1.5443763465c2.067938165-.5076834535,3.8714683453,1.4723210687,3.1772033391,3.4852613996l-1.2676029652,3.6554478637c-.426108603,1.228506624.5603090976,2.4696476868,1.8606087416,2.3622903396,4.1936280881-.3293873443,8.1081705364-1.3457451683,11.5953072165-3.3902914056,2.4877976336-1.7992062621,4.9526820883-3.2794818765,7.3349135633-3.7075598794,3.7329429703-.6676908145,6.8494218006,2.7955926676,6.065578852,6.5072595717Z"/><path class="cls-8" d="m85.5223892507,158.7125617687c-17.9833685601,1.7987558881-31.6288961376,1.003145875-37.1492143074-4.6339596508-2.4565937484-2.5013907412-2.2353551666-6.5908900725.3743100224-8.9449647184,4.1670240705-3.7775373412,9.1683416072-4.1947814074,15.0016573569-1.260165275,1.216971798.6040360943,2.6466337079.6860106303,3.8773042049.1076836894,1.8763420803-.8753878778,3.3639174842-2.170835897,4.5405865658-3.8325867644,4.672165938,5.5596878289,9.2006445457,11.7351546404,13.3553561575,18.5639927193Z"/><path class="cls-5" d="m224.8477566917,82.4070917844c-1.5911129134,4.2505984266-3.0946337848,8.7837767414-4.4212945297,13.5866159954-2.0977959113,7.5534770047-3.7860990138,15.7616843227-4.740978206,24.5176566163-1.4432046087.5385146543-2.9214052319,1.1593927497-4.4041352201,1.8364867811-2.3964576462,3.2600909092-5.2664637033,6.1294825205-8.2464066524,8.8511055907-2.4288984854,2.226927608-4.3391479662,5.4780861706-7.2602937651,7.0888179278-1.7248454238.967070917-3.7829909936,1.2141488224-5.7657286478,1.0560864917-3.4684850659-.2815966312-7.1051298707-1.3232787858-10.5043517601-2.1101683015-2.8529167771-.6632570292-6.0974607079-2.059177357-9.0368832941-1.2361062435-1.4229968693.3954563209-2.7237654596,1.1385361831-3.9833393098,1.8991670848-6.609251675,3.9992539189-12.8469308218,11.4634035739-20.4586392954,13.4058669022-5.2872313882,1.8416446542-11.4967128199-1.4612461394-16.4670890248-3.2074003664-6.0169995483-2.1065951924-12.7760182922-3.220207499-19.0179549211-1.4021570988-7.282571233,2.1196359282-13.8226646155,7.2260322526-19.9772717559,11.4638612509-1.7172389129.209716872-3.395473944.3914152433-5.0410010587.5556373536-4.1547116118-6.8288380789-8.6831902194-13.0043048903-13.3553561575-18.5639927193-3.6725736675-4.3771100335-7.4377952521-8.3812834642-11.1829146886-12.0035396796.4385017534-.0525491963.8749203825-.113583547,1.309203809-.1833151808,3.5631071569,3.0682191708,7.6992871038,5.5441200743,12.2289759441,7.3710245106l.0085912187-.0021091634c10.0297044439,4.0415275569,22.0041866329,4.8974165403,34.020862139,1.9472957757,13.0331969901-3.1996790668,23.9044113663-10.3272846652,30.9067130456-19.517788565.7745130748-1.0099567719,1.4950237722-2.052988154,2.1743918075-3.1133584467,1.5689718088.4991763426,3.1728856458.9162274119,4.8228905204,1.2205267466l.0086972832-.0021352025c6.3419734104,1.2159978705,13.2474401067,1.0498816276,20.2224351483-.6717167653,2.7194919501-.6676413678,5.4205511127-1.5610695345,8.0292227533-2.6805714073,4.7607689908-2.0346989327,9.0424704852-4.6703864305,12.7552124141-7.746896501l.0085912187-.0021091634c7.2058714148-5.9976685124,12.2248594672-13.6601368724,14.3490597012-21.8188176646,6.8284374314,1.6217444034,14.4906566497,1.5739276512,22.0325799764-.277631426.3300725019-.0810335389.6603571327-.1621191558.9862113077-.2603351322Z"/><ellipse class="cls-4" cx="212.6348915689" cy="168.4914079975" rx="16.5085593391" ry="22.6157720425" transform="translate(-34.0400586186 55.5559369023) rotate(-13.7934443285)"/><ellipse class="cls-4" cx="110.2676071375" cy="193.6228057176" rx="16.508559339" ry="22.6157720425" transform="translate(-42.9840574558 31.8740394868) rotate(-13.7934443286)"/><ellipse class="cls-4" cx="178.348765292" cy="249.8854641002" rx="37.7028919609" ry="42.9081419705" transform="translate(-54.4349781826 49.728635529) rotate(-13.7934443286)"/></g></g></svg>