<?xml version="1.0" encoding="UTF-8"?><svg id="Capa_2" xmlns="http://www.w3.org/2000/svg" viewBox="0 0 184.9412005946 476.0273460202"><defs><style>.cls-1{fill:none;stroke:#373151;stroke-linecap:round;stroke-linejoin:round;stroke-width:4.5226301059px;}.cls-2{fill:#deac29;}.cls-2,.cls-3,.cls-4{stroke-width:0px;}.cls-3{fill:#c87f73;}.cls-4{fill:#bf695b;}</style></defs><g id="Capa_2-2"><path class="cls-4" d="m92.5759296409,123.3799825135s-29.2818698606-32.8552533607-31.9134860848-37.2412804011-38.5970379551-25.00035413-38.5970379551-25.00035413c0,0-11.8422730089,7.8948486726-1.7544108161,17.9827108654,10.0878621928,10.0878621928,33.7724082107,23.6845460179,33.7724082107,29.8249838744s14.9124919372,53.0709271882,25.00035413,47.3690920358,15.3510946412-28.9477784663,15.3510946412-28.9477784663"/><path class="cls-4" d="m67.6800868207,139.6482320046s-21.0529297937-15.3510946412-22.3687379058-13.5966838251c-1.3158081121,1.7544108161-3.5088216323,6.5790405605-1.3158081121,10.0878621928,2.1930135202,3.5088216323,18.4213135695,15.3510946412,18.4213135695,15.3510946412,0,0,4.3860270403,14.4738892331,7.0176432645,13.158081121,2.6316162242-1.3158081121,11.4036703049-14.0352865291-1.7544108161-25.00035413Z"/><path class="cls-3" d="m59.3888861884,261.8104410022s-31.5001420971-64.6845261666-34.1317583214-95.8253181531c0,0-21.4915324977-48.2462974438-22.3687379058-50.00070826s3.0702189282-21.9301352017,15.3510946412-10.0878621928c12.280875713,11.8422730089,32.9101479014,42.1301491193,39.4891884619,45.2003680475,6.5790405605,3.0702189282,16.0393749428,5.7756619537,21.7412100953-2.557789423,5.7018351525-8.3334513767,7.6302259762-40.0109624004,18.5952935771-46.5900029609,10.9650676009-6.5790405605,7.0176432646-36.8426271389,7.0176432646-36.8426271389,0,0-9.2106567847-46.4918866277-9.2106567847-48.2462974438s11.4036703049-23.6845460179,17.1055054574-10.5264648968c5.7018351524,13.158081121,16.2283000493,57.8955569326,16.6669027533,61.4043785649.438602704,3.5088216323-1.3158081121,16.2283000493-1.7544108161,18.8599162735s4.3947031523,22.0431546776,3.0788950402,30.3766060543c-1.3158081121,8.3334513767-3.9561004482,32.7821833267-3.9561004482,37.6068130711s1.7544108161,104.8260462643,1.7544108161,104.8260462643l50.00070826,180.2657113583-127.1947841701-4.3860270403s9.6492594888-99.1242111118,5.2632324484-138.598454475l2.5523636309-34.8782876493Z"/><path class="cls-3" d="m118.5580004887,102.3670021617c-.309534975-4.9525596002-24.5617514259-46.4918866277-25.8775595381-49.5621055559-1.3158081121-3.0702189282-29.8249838744-35.0882163228-32.8952028026-32.4566000986-3.0702189282,2.6316162242-8.3334513767,9.6492594888.8772054081,25.00035413l12.719478417,13.158081121,12.280875713,28.5091757623s3.5088216323,28.5091757623,9.2106567847,30.7021892824c5.7018351525,2.1930135202,24.1231487219-8.3334513767,23.6845460179-15.3510946412Z"/><path class="cls-1" d="m170.1121306269,410.4151485323l-41.8546139853-150.896986973s-1.7545065463-100.0014443618-1.7545065463-104.8260613246,2.6404635808-29.2733328701,3.9562514774-37.6068249057c1.3157878966-8.3334460291-3.5175328277-27.7449554302-3.0791822305-30.3765772299.4387186497-2.6316217997,2.193225196-15.3511041616,1.7545065463-18.8599332278-.4387186497-3.5088290662-10.9650218222-48.2463076478-16.6668920581-61.4043706397-5.7018702359-13.1580629919-17.1056107078,8.7720726656-17.1056107078,10.5264871987,0,1.7543685266,9.2108833285,48.2462616412,9.2108833285,48.2462616412,0,0,.453440752,3.4820992492.626057402,8.3388287977-6.2756641746-11.4061788201-12.6867716907-22.5910200328-13.3455857704-24.1285135893-1.3157878966-3.0702024297-29.8251390763-35.0881986493-32.8950654665-32.4565768497-3.0702944428,2.6315757931-8.333446029,9.6492339256.8770692469,25.0003380872l12.7195283684,13.1580629919,12.2808097187,28.5091671534s2.0875941117,16.9389289054,5.6562317187,25.7056188023c-1.4534395534,2.0642687808-2.873386324,4.3991021986-4.2532153658,6.8719093193-8.6654294368-10.6703957491-24.5038351858-30.2887472802-26.4033544401-33.4546893817-2.6315757931-4.3860363328-38.5969357025-25.0003840937-38.5969357025-25.0003840937,0,0-11.8424591216,7.8948653991-1.7545065463,17.9827259612,10.0879525753,10.0878605622,33.7725027659,23.6845501906,33.7725027659,29.82495505,0,2.9604767607,3.4666870483,15.4022634672,8.1876972159,26.8561050936-6.3334484263-4.4202192142-16.0780079646-10.9265603298-16.9598618947-9.7505863989-1.3157878966,1.7544145331-3.5090130925,6.5790314959-1.3157878966,10.0878605622,2.1928571434,3.5088290662,18.4213986044,15.3511041616,18.4213986044,15.3511041616,0,0,.7666534793,2.5281070176,1.8502002115,5.3743034589-2.2984882277.3227360872-4.7077602755-.7719902414-7.9907890971-2.3041010292-6.5789394828-3.0702024297-25.4390567369-33.3337841162-37.7198664556-45.1760592115-12.2808097187-11.8422750953-16.2281734084,8.3334460291-15.3511041616,10.0878605622.8774372994,1.7544145331,22.3687622941,50.0007221809,22.3687622941,50.0007221809,2.6315757931,31.1407889531,34.131722063,95.825305336,34.131722063,95.825305336l-2.552444493,34.8783013424c2.9150068573,26.2347253783-.3693598063,78.8167272574-2.900399163,111.1371768545"/><path class="cls-1" d="m104.1051716492,66.610492933l-2.2333974511,39.7544746304s-12.9537052167,3.5734359218-16.0804616483,28.1408078845c0,0-7.1468718437,22.7806540017-11.1669872558,22.7806540017s-10.2736282753-.4466794902-14.2937436874-3.5734359218"/><line class="cls-1" x1="129.1192231021" y1="73.7573647766" x2="125.5457871802" y2="109.0450445048"/><path class="cls-1" d="m62.6497933921,131.8206876093s-4.6040209614,10.7427155765-1.2788947115,16.1140733648"/><path class="cls-1" d="m62.2433217212,132.9711017941s3.5734359218-8.0402308241,11.613666746-7.1468718437"/><path class="cls-2" d="m116.8732869894,330.1751973246c-27.2261957291,2.0917546537-63.4112744645,4.6078017871-64.6546747589,1.7065344336-1.9025961981-4.4393911289,3.8051923962-22.8311543774,3.8051923962-32.9783341007s-1.9025961981-27.2705455064-1.9025961981-27.2705455064c0,0-.6341987327-6.9761860598,8.2445835252-6.9761860598s56.9479989163-.1298293408,65.8917246878-5.138504532,14.6515143659,11.4804918591,15.9199118313,17.1882804535c1.2683974654,5.7077885944,10.1471797233,51.3700973492,1.9025961981,51.3700973492-2.8565155829,0-14.7726115353.9897020572-29.2067376816,2.0986579627"/><path class="cls-1" d="m76.2757200337,334.7395984458c-13.343173773.5970838662-23.4114187182.5513373752-24.0571078031-.9552704895-1.9025961981-4.4393911289,3.8051923962-22.8311543774,3.8051923962-32.9783341007s-1.9025961981-27.2705455064-1.9025961981-27.2705455064c0,0-.6341987327-6.9761860598,8.2445835252-6.9761860598s56.9479989163-.1298293408,65.8917246878-5.138504532c8.9437257715-5.0086751913,14.6515143659,11.4804918591,15.9199118313,17.1882804535s10.1471797233,51.3700973492,1.9025961981,51.3700973492c-2.8916493917,0-15.0671068952,1.0141975248-29.7404673309,2.1396293852"/><path class="cls-2" d="m55.0272375584,332.3720202806s-10.2524329383,115.814520229-8.7335539845,121.5103163059-1.5188789538,17.467107969,2.6580381692,20.1251461382c4.176917123,2.6580381692,132.9019084595,3.4174776461,134.4207874134-2.2783184307,1.5188789538-5.6957960768,3.0377579076-20.5048658766-1.1391592154-31.5167382918-4.176917123-11.0118724152-32.2761777687-93.7907753986-31.5167382918-99.8662912139.7594394769-6.0755158153-6.8349552922-14.4293500613-9.4929934614-14.8090697998-2.6580381692-.3797197385-86.1963806295,6.8349552922-86.1963806295,6.8349552922Z"/><path class="cls-1" d="m144.2613760955,328.9545426345s-45.5663686147,5.6957960768-63.0334765837,4.9363565999"/><path class="cls-1" d="m133.6292234188,275.4140595123s5.6957960768,30.7572988149,4.9363565999,36.8328146302"/><path class="cls-1" d="m126.7942681266,277.3126582045s1.0055693989,5.4300747538,2.1153455093,12.177757001"/><path class="cls-1" d="m59.9635941583,333.1314597575s-.7594394769-12.530751369-4.176917123.7594394769c-3.4174776461,13.290190846-11.7713118921,116.1942399675-9.4929934614,119.9914373521"/><path class="cls-1" d="m143.5019366186,330.8531413268s30.7572988149,84.6775016756,31.1370185534,87.3355398448c.3797197385,2.6580381692,9.1132737229,17.467107969,5.6957960768,25.0615027381"/><path class="cls-1" d="m152.99493008,407.9362482334s-28.8587001226,31.8964580303-77.462826645,26.9601014304"/></g></svg>