<?xml version="1.0" encoding="UTF-8"?><svg id="Capa_2" xmlns="http://www.w3.org/2000/svg" viewBox="0 0 312.4469541862 509.8188329825"><defs><style>.cls-1{stroke-width:6.8165695342px;}.cls-1,.cls-2,.cls-3,.cls-4,.cls-5,.cls-6{stroke:#373151;}.cls-1,.cls-3,.cls-4,.cls-5,.cls-6{stroke-linecap:round;stroke-linejoin:round;}.cls-1,.cls-3,.cls-6{fill:none;}.cls-2{fill:#e0ac04;stroke-miterlimit:10;stroke-width:2.6021177173px;}.cls-3{stroke-width:5.2042354345px;}.cls-4{fill:#a4a4a4;}.cls-4,.cls-5,.cls-6{stroke-width:4.3368628621px;}.cls-5{fill:#393a3c;}.cls-7{fill:#965450;stroke-width:0px;}</style></defs><g id="Capa_2-2"><path class="cls-7" d="m42.4533704447,15.2004384422l16.7329149678,306.6047991436s4.731219884,11.7260296716,1.647086848,12.4987946407c-16.4301723187,4.1170862916-38.6702300284,20.1103708481-50.4432665606,32.3469022973-12.9423937162,13.4519252788-13.8863756391,42.2192244712,12.4740948805,36.129826299,12.2099021721-2.820556938,43.0849599402-5.6992666877,43.0849599402-21.7116360064.0000181005,5.765778663,7.0186711853,11.1811225155,9.8799604216,16.3690038851,3.4804824427,6.3105574203,7.0366104522,12.5806023703,10.6649286237,18.8074422276,4.5335310912,7.7803463639,10.7641930881,23.7781814478,19.0846769679,28.4006724921,6.9389807859,3.8549893255,113.3366861698-21.5879402228,125.6726520114-34.6949039295,12.3359658416-13.1069637067-25.3464606992-67.0768083815-53.1023838429-87.8937507392-27.7559231436-20.8169423577-13.1069637067-301.4601652544-13.1069637067-301.4601652544,0,0-80.9547758356-27.7559231436-122.588660551-5.3969850557Z"/><path class="cls-7" d="m106.0998731708,439.8465406848s28.5269210087,44.7178761758,30.839914604,44.7178761758,4.6259871906,0,7.709978651,3.0839914604,43.1758804457,23.129935953,48.5728655014,21.5879402228,11.5649679765-23.129935953,2.3129935953-30.0689167389c-9.2519743812-6.9389807859-26.2139274134-18.5039487624-30.839914604-26.9849252785-4.6259871906-8.4809765161-8.4809765161-10.0229722463-10.0229722463-16.9619530322s-4.6259871906-17.7329508973-4.6259871906-17.7329508973c0,0-44.7178761759-11.5649679765-43.9468783108,22.3589380879Z"/><path class="cls-7" d="m176.2535308348,414.3203273938s31.3539131808,45.7458733293,33.9239060644,47.2878690595,39.0638918318,14.3919601486,43.1758804456,20.0459444926,1.5419957302,12.8499644183,0,14.3919601485-5.6539843441,4.1119886139-8.2239772277,4.1119886139-38.5498932551-6.6819814975-44.7178761759-8.7379758045-54.9978477105-55.5118462873-54.9978477105-59.1098363244,15.419957302-22.1019387996,30.839914604-17.9899501857Z"/><path class="cls-7" d="m179.8515208719,428.1982889656s37.0078975248,32.3819103342,41.6338847154,33.4099074877c4.6259871906,1.0279971535,52.4278548269,8.7379758045,58.5958377477,6.6819814975,6.1679829208-2.0559943069,10.7939701114-4.1119886139,7.1959800743-11.3079686881-3.5979900371-7.1959800743-32.3819103342-11.8219672649-39.5778904085-15.419957302-7.1959800743-3.5979900371-39.0638918318-30.3259160273-42.6618818689-32.3819103342-3.5979900371-2.0559943069-34.4379046412-3.0839914604-25.18593026,19.0179473392Z"/><path class="cls-7" d="m224.4088666085,387.5924072859s20.7204735086,11.3079628059,25.860459276,13.3639571128c5.1399857673,2.0559943069,24.1579331065,5.6539843441,29.2979188738,5.6539843441s31.8679117575,4.6259871906,29.2979188738,11.8219672649c-2.5699928837,7.1959800743-5.6539843441,9.2519743812-14.9059587253,9.7659729579,0,0-34.4379046412,3.0839914604-40.605887562.5139985767-6.1679829208-2.5699928837-13.8779615718-2.0559943069-20.5599430693-4.1119886139-6.6819814976-2.0559943069-26.7279259902-8.2239772277-26.7279259902-8.2239772277,0,0,3.4374595979-33.9239001822,18.3434183232-28.7839144149Z"/><path class="cls-1" d="m279.5670722124,403.5263494394c-5.1398602794,0-24.1576821306-3.5979763119-29.2979659318-5.6539627758-3.1179673185-1.2472186915-9.466558748-1.0228227369-17.0924918553-6.721890582-10.04636006-23.8986985643-35.8481537269-57.7922463525-55.0277608967-72.1768987897-27.7559231436-20.8169423577-13.1067284168-301.4601534899-13.1067284168-301.4601534899,0,0-80.9549170095-27.7559231436-122.588801725-5.396990938l16.7331031997,306.6048167903s5.1476667399,11.510180858,2.4853018028,13.2473828538c-24.7518701718,16.1506777915-55.9505912007,18.497350048-58.263443622,58.5892449154,0,0,.7198791312,9.0669230289,20.7655883339,9.0669230289,20.0461327245,0,43.9915762694-18.6630929628,43.9915762694-18.6630929628,0,0,30.4743904935,56.7455292633,37.4133712794,60.6005303533.5260140464.2923888464,1.112309359,7.3510498277,2.6983984119,7.3244738362,7.5272525334,11.6746954101,26.3098786248,32.7674210313,28.1416103081,32.7674210313,2.3128524214,0,4.6257048428,0,7.7097904191,3.0839796959,3.0840855764,3.0839796959,43.1759275036,23.1299535998,48.5728655014,21.5879637518,3.4271382153-.9791823472,7.1587885879-10.0399542931,7.0622256229-18.3016465272.2494543264.1443150453.4684150848.2518366363.6475647962.3116590873,6.1681711527,2.0559864639,42.1480401521,8.737995412,44.7179702918,8.737995412s6.6819030676-2.5699830799,8.2239458558-4.1119729279c1.5420427882-1.5420427882,4.1119729279-8.737995412,0-14.3919581878-4.1119729279-5.6540157161-40.6055738421-18.5039840559-43.1759275036-20.0459739039-1.1481675361-.6890699303-8.0447961443-10.2056042479-15.3221708296-20.5219594404,10.8298753465,9.1579701936,23.9929321596,19.935858242,26.6302022617,20.5219594404,4.6261283645,1.027993232,52.4281842327,8.737995412,58.5959318636,6.682008948,6.1681711527-2.0560394042,10.7938759955-4.1120258681,7.1960585042-11.3079784919-3.598241013-7.196005564-32.3820515082-11.8219751079-39.5781100124-15.4199514198-4.2928167264-2.1464613034-17.3643928358-12.5232212893-27.9778485545-20.9841805192,5.0636263596,1.5580836755,10.2551562958,3.1554489957,13.0719996312,4.0221863113,6.6819030676,2.0560394042,14.3921170085,1.5420427882,20.5598646394,4.1120258681,6.1681711527,2.5699830799,40.6059973639-.513996616,40.6059973639-.513996616,9.2518332073-.513996616,12.3359187836-2.5699830799,14.9058489233-9.7659886439,2.5699301397-7.196005564-24.1576821306-11.8219751079-29.2979659318-11.8219751079Z"/><path class="cls-1" d="m196.9419735483,486.6656270691s-26.2139274134-19.6604455601-31.2254135366-20.4314434252-20.8169423577-30.4544156715-20.8169423577-30.4544156715"/><path class="cls-6" d="m120.6024743458,327.2470720198s17.2854742395,28.5541109915-23.0832024183,50.6964555154"/><path class="cls-6" d="m162.6325685513,424.6002989285s26.2139274134-23.9009338181,41.6338847154-26.2139274134"/><path class="cls-3" d="m245.9003379822,440.0202562305s-10.7939701114,8.8664754487-14.6489594369,8.8664754487"/><path class="cls-2" d="m114.1652581714,460.2136515681s10.2492171933-13.8972436519,34.9168246754-15.6343991084l-3.474310913-7.4697684629s-24.8413230277,1.3897243652-35.9591179492,18.0664167474l4.5166041869,5.0377508238Z"/><path class="cls-5" d="m59.4153234769,313.5766122362s98.1737281562-26.2139274134,118.2196726488-22.6159373763l-2.5699928837-23.129935953s-74.0157950497-6.6819814975-122.3316612627,27.7559231436l.5139985767,19.5319459159,6.1679829208-1.5419957302Z"/><polygon class="cls-4" points="91.7972338111 277.0827132881 97.7082174436 304.324637855 133.6881178149 296.614659204 131.3751242196 287.1056855344 135.2301135451 286.3346876693 132.9171199498 275.5407175579 128.5481320476 276.0547161346 126.749137029 268.0877381952 91.7972338111 277.0827132881"/></g></svg>