<?xml version="1.0" encoding="UTF-8"?><svg id="Capa_2" xmlns="http://www.w3.org/2000/svg" viewBox="0 0 71.7347785235 72.9516306145"><defs><style>.cls-1,.cls-2{stroke:#373151;stroke-linejoin:round;stroke-width:2.5503380045px;}.cls-1,.cls-3{fill:#ffa82e;}.cls-2{fill:none;}.cls-4{fill:#ec1a38;}.cls-4,.cls-3{stroke-width:0px;}</style></defs><g id="Capa_1-2"><path class="cls-4" d="m17.9209794121,10.6116293823c6.2830071806-.9852152096,12.8681734686.0582387825,18.5389802983,2.9375982559,6.7646088183,3.4347392179,12.1235638871,9.3201299639,19.1122692728,12.2723174895,4.7564373193,2.0092268936,10.1262393846,2.537655232,15.1829387014,1.4941137558-6.0983109043,6.2440086099-14.5518048534,10.1310370894-23.2619463798,10.696150002-5.4713084032.3549778084-10.9799181246-.5499530584-16.4366736471-.0161900067-5.3567025576.5239761804-8.5775590129,1.7607556613-12.9785127486,4.8588078845"/><polyline class="cls-3" points="17.1955315367 11.2244330987 18.3504985822 63.0405576201 13.760362248 63.1367732541 12.5943750286 10.7965415906"/><polyline class="cls-2" points="17.1319558927 8.200902352 18.3504985822 63.0405576201 13.7603622463 63.1367731721 12.5302384635 7.7463345595"/><circle class="cls-2" cx="14.768581109" cy="5.0004268153" r="3.7251917774" transform="translate(4.4091371994 16.6536314471) rotate(-67.0689578335)"/><path class="cls-2" d="m17.6254212488,6.8961212107c6.2830071806-.9852152096,12.8681734686.0582387825,18.5389802983,2.9375982559,6.7646088183,3.4347392179,12.1235638871,9.3201299639,19.1122692728,12.2723174895,4.7564373192,2.0092268937,10.1262393846,2.537655232,15.1829387014,1.4941137558-6.0983109043,6.2440086099-14.5518048534,10.1310370894-23.2619463798,10.696150002-5.4713084031.3549778084-10.9799181246-.5499530584-16.4366736471-.0161900067-5.3567025576.5239761804-8.5775590128,1.7607556613-12.9785127486,4.8588078845"/><path class="cls-1" d="m30.5557038115,66.9910905875c0-4.8373089182-6.5546709841-8.7587225972-14.6402674046-8.7587225972s-14.6402674046,3.9214136791-14.6402674046,8.7587225972h29.2805348093Z"/><rect class="cls-1" x="1.2751690023" y="66.9910905875" width="29.2805348093" height="4.6853710248"/></g></svg>