<?xml version="1.0" encoding="UTF-8"?><svg id="Capa_2" xmlns="http://www.w3.org/2000/svg" viewBox="0 0 491.1701462294 417.4127292371"><defs><style>.cls-1{fill:#5c2754;}.cls-1,.cls-2{stroke-width:0px;}.cls-2{fill:#ff5061;}</style></defs><g id="Capa_2-2"><path class="cls-2" d="m488.9191544579,105.1450009323c-9.8159179688-53.2718505859-54.2395019531-96.0134277344-107.8530273438-103.7468261719-61.1943359375-8.8227539062-114.54296875,25.0354003906-136.974609375,75.4289550781C218.9765275048,27.6327939011,163.8713028954-3.4798769974,103.2316544579,8.4360165573,50.1090958641,18.8730282761,8.0494034813,63.8112606979,1.1230118798,117.5054745651c-5.6799316406,44.0054931641,10.6115722656,84.1668701172,39.2359619141,111.3333740234l108.5643310547,103.0344238281c3.6195068359.1654052734,7.5703125.5686035156,11.6721191406,1.1428222656-.1022949219-1.3796386719-.2291259766-2.7001953125-.390625-3.9157714844-1.3937988281-10.5187988281-31.8933105469-33.095703125-31.8933105469-33.095703125l-1.9317626953,5.2495117188c.0050048828-1.2366943359-14.5035400391.7580566406-14.2800292969-7.7646484375.0197753906-.7777099609,2.0227050781-9.6567382812,2.8764648438-9.4826660156-.0274658203-.0056152344-7.1629638672-1.4608154297-7.1629638672-1.4608154297-4.7623291016-.8123779297-7.5766601562-5.5494384766-7.5999755859-10.1676025391.0069580078,1.3854980469.5533447266,2.7612304688,1.5002441406,3.7725830078-.2276611328-3.5391845703.1290283203-7.2841796875,2.0931396484-10.2373046875,1.9642333984-2.9530029297,5.8918457031-4.8104248047,9.1884765625-3.5030517578-4.0207519531-1.5944824219-2.0529785156-10.6237792969-.3369140625-12.9721679688,1.2604980469-1.7237548828,9.0819091797-4.8317871094,9.1622314453-6.0289306641,1.0533447266-25.3204345703,13.4333496094-13.8057861328,13.4333496094-13.8057861328-.2601318359-9.4816894531,5.5137939453-10.2590332031,12.7896728516-11.8308105469,4.7001953125-1.0151367188,3.3198242188-2.3654785156,6.4035644531-6.5759277344,2.6973876953-3.6831054688,6.9232177734-5.8800048828,11.3676757812-6.6369628906.8325195312-.1418457031,11.6791992188.1534423828,11.5882568359.3513183594,3.4581298828-7.4686279297,15.5665283203-11.5456542969,22.5806884766-5.6440429688,2.8271484375,2.3790283203,1.33203125,5.8364257812-1.1420898438,9.4743652344,3.2705078125,1.7824707031,8.7563476562,5.8332519531,4.5708007812,11.4136962891l-2.8674316406.9559326172s9.8349609375,13.8598632812.0966796875,13.0358886719c1.6328125,1.6647949219,3.0725097656,3.3814697266,3.869140625,5.2761230469.0007324219.0010986328,11.8786621094,18.2059326172,11.8786621094,18.2059326172,3.7456054688-3.0970458984,8.5068359375-.0715332031,8.58984375,4.1031494141.0578613281,2.8489990234-4.3603515625,6.4748535156-2.9045410156,9.3012695312,20.8752441406,38.7888183594-21.7258300781,57.7409667969-21.7258300781,57.7409667969l-1.1245117188,12.6936035156c5.9096679688,1.6945800781,9.7700195312,3.0303955078,9.9604492188,3.3708496094,15.6484375,28.0593261719-7.0146484375,22.1237792969-7.0146484375,22.1237792969,0,0,9.1728515625,3.2376708984,15.1083984375,3.2376708984,5.9360351562,0,18.3464355469,32.9157714844,18.3464355469,32.9157714844h-11.6350097656l5.3583984375,5.0853271484c13.4165039062,12.7348632812,34.6005859375,12.1984863281,47.3103027344-1.1976318359l13.5925292969-14.3216552734c2.0185546875-26.0357666016,10.0185546875-125.2028808594,15.1721191406-130.8251953125,0,0,2.2722167969-2.0983886719,5.9860839844-5.419921875-.103515625-.7767333984.0402832031-1.8288574219.4895019531-3.2137451172,6.4748535156-19.9654541016-4.8569335938-47.4852294922-4.8569335938-47.4852294922,0,0-11.3315429688,12.9505615234-23.2026367188,11.3316650391-11.8718261719-1.6187744141-21.5847167969-30.7572021484-21.5847167969-30.7572021484,0,0-14.0290527344,4.3167724609-11.8708496094-3.2377929688,2.1586914062-7.5545654297,5.3959960938-16.7277832031,3.77734375-18.3465576172s-11.3317871094-40.4700927734-11.3317871094-40.4700927734c-18.8864746094,1.0788574219-5.9353027344-10.2526855469-5.9353027344-10.2526855469-3.7387695312,0-16.6164550781,1.1734619141-19.228515625-3.0891113281-3.3115234375-5.4045410156,5.2204589844-11.48046875,9.2497558594-12.9494628906,6.3994140625-2.3330078125,13.5891113281-2.3198242188,20.6943359375-1.4694824219-1.1416015625-.5512695312-2.2060546875-1.2387695312-3.1401367188-2.1071777344-7.9731445312-7.4152832031,2.2221679688-16.1021728516,9.0373535156-19.2010498047,19.5070800781-8.8668212891,45.3837890625.8160400391,63.9938964844,7.4971923828,7.5874023438,2.7241210938,14.8955078125,6.8310546875,20.5209960938,12.677734375,5.8198242188,6.0490722656,5.8156738281,12.6585693359,6.576171875,20.6882324219,1.0168457031,10.7286376953,1.5434570312,21.5078125,2.0219726562,32.2702636719.6748046875,15.1726074219,1.15625,30.3591308594,1.4321289062,45.5443115234,0,0,10.3310546875,16.1732177734,12.1381835938,23.9229736328,5.7182617188-3.4432373047,10.3107910156-5.3276367188,12.6838378906-4.4971923828,5.4477539062,1.9066162109,15.9802246094,31.4555664062,21.9548339844,69.2025146484l60.9052734375-64.171875c27.1237792969-28.5792236328,41.234375-69.5190429688,33.1850585938-113.1784667969Z"/><path class="cls-1" d="m372.8739884423,213.2928280808c-2.373046875-.8304443359-6.9655761719,1.0539550781-12.6838378906,4.4971923828-1.8071289062-7.7497558594-12.1381835938-23.9229736328-12.1381835938-23.9229736328-.2758789062-15.1851806641-.7573242188-30.3717041016-1.4321289062-45.5443115234-.478515625-10.7624511719-1.0051269531-21.5416259766-2.0219726562-32.2702636719-.7604980469-8.0296630859-.7563476562-14.6391601562-6.576171875-20.6882324219-5.6254882812-5.8466796875-12.93359375-9.9536132812-20.5209960938-12.677734375-18.6101074219-6.6811523438-44.4868164062-16.3640136719-63.9938964844-7.4971923828-6.8151855469,3.0988769531-17.0104980469,11.7857666016-9.0373535156,19.2010498047.9340820312.8684082031,1.9985351562,1.5559082031,3.1401367188,2.1071777344-7.1052246094-.8503417969-14.294921875-.8635253906-20.6943359375,1.4694824219-4.029296875,1.4689941406-12.5612792969,7.544921875-9.2497558594,12.9494628906,2.6120605469,4.2625732422,15.4897460938,3.0891113281,19.228515625,3.0891113281,0,0-12.951171875,11.3315429688,5.9353027344,10.2526855469,0,0,9.7131347656,38.8513183594,11.3317871094,40.4700927734s-1.6186523438,10.7919921875-3.77734375,18.3465576172c-2.158203125,7.5545654297,11.8708496094,3.2377929688,11.8708496094,3.2377929688,0,0,9.712890625,29.1384277344,21.5847167969,30.7572021484,11.87109375,1.6188964844,23.2026367188-11.3316650391,23.2026367188-11.3316650391,0,0,11.3317871094,27.5197753906,4.8569335938,47.4852294922-.44921875,1.3848876953-.5930175781,2.4370117188-.4895019531,3.2137451172-3.7138671875,3.3215332031-5.9860839844,5.419921875-5.9860839844,5.419921875-5.1535644531,5.6223144531-13.1535644531,104.7894287109-15.1721191406,130.8251953125l104.5776367188-110.1870117188c-5.974609375-37.7469482422-16.5070800781-67.2958984375-21.9548339844-69.2025146484Z"/><path class="cls-1" d="m217.2785294579,370.2005429245c-5.935546875,0-15.1083984375-3.2376708984-15.1083984375-3.2376708984,0,0,22.6630859375,5.935546875,7.0146484375-22.1237792969-.1904296875-.3404541016-4.05078125-1.6762695312-9.9604492188-3.3708496094l1.1245117188-12.6936035156s42.6010742188-18.9521484375,21.7258300781-57.7409667969c-1.4558105469-2.8264160156,2.9624023438-6.4522705078,2.9045410156-9.3012695312-.0830078125-4.1746826172-4.8442382812-7.2001953125-8.58984375-4.1031494141,0,0-11.8779296875-18.2048339844-11.8786621094-18.2059326172-.7966308594-1.8946533203-2.236328125-3.611328125-3.869140625-5.2761230469,9.73828125.8239746094-.0966796875-13.0358886719-.0966796875-13.0358886719l2.8674316406-.9559326172c4.185546875-5.5804443359-1.3002929688-9.6312255859-4.5708007812-11.4136962891,2.4741210938-3.6379394531,3.9692382812-7.0953369141,1.1420898438-9.4743652344-7.0141601562-5.9016113281-19.1225585938-1.8245849609-22.5806884766,5.6440429688.0909423828-.1978759766-10.7557373047-.4931640625-11.5882568359-.3513183594-4.4444580078.7569580078-8.6702880859,2.9538574219-11.3676757812,6.6369628906-3.0837402344,4.2104492188-1.7033691406,5.5607910156-6.4035644531,6.5759277344-7.2758789062,1.5717773438-13.0498046875,2.3491210938-12.7896728516,11.8308105469,0,0-12.3800048828-11.5146484375-13.4333496094,13.8057861328-.0803222656,1.1971435547-7.9017333984,4.3051757812-9.1622314453,6.0289306641-1.7160644531,2.3483886719-3.6838378906,11.3776855469.3369140625,12.9721679688-3.2966308594-1.3073730469-7.2242431641.5500488281-9.1884765625,3.5030517578-1.9641113281,2.953125-2.3208007812,6.6981201172-2.0931396484,10.2373046875-.9468994141-1.0113525391-1.4932861328-2.3870849609-1.5002441406-3.7725830078.0233154297,4.6181640625,2.8376464844,9.3552246094,7.5999755859,10.1676025391,0,0,7.1354980469,1.4552001953,7.1629638672,1.4608154297-.8537597656-.1740722656-2.8566894531,8.7049560547-2.8764648438,9.4826660156-.2235107422,8.5227050781,14.2850341797,6.5279541016,14.2800292969,7.7646484375l1.9317626953-5.2495117188s30.4995117188,22.5769042969,31.8933105469,33.095703125c.1614990234,1.2155761719.2883300781,2.5361328125.390625,3.9157714844-4.1018066406-.57421875-8.0526123047-.9774169922-11.6721191406-1.1428222656l75.0666503906,71.2430419922h11.6350097656s-12.4104003906-32.9157714844-18.3464355469-32.9157714844Z"/></g></svg>