<?xml version="1.0" encoding="UTF-8"?><svg id="Capa_2" xmlns="http://www.w3.org/2000/svg" viewBox="0 0 203.5301249251 203.5324448076"><defs><style>.cls-1{fill:#f46c60;}.cls-1,.cls-2,.cls-3,.cls-4,.cls-5{stroke-width:0px;}.cls-2{fill:#f9b700;}.cls-3{fill:#664100;}.cls-4{fill:#ffe8bb;}.cls-5{fill:#fdca47;}</style></defs><g id="Capa_2-2"><g id="Smiling_Face_with_Smiling_Eyes"><g id="circle"><circle class="cls-5" cx="101.7650624625" cy="101.7650624626" r="101.759701498"/><path class="cls-4" d="m19.4203234101,60.7435804314c1.4234975695-7.4166747469,4.7370708199-14.3519256395,9.0179956873-20.6117594265,4.3220964049-6.2439539552,9.7343797152-11.77865862,15.8802457042-16.3159929043,6.1412480064-4.543088436,13.0321370586-8.0803351107,20.2771544031-10.3638313904,7.2468541862-2.24328645,14.8579822461-3.3474048175,22.364272078-2.493381008-6.8204489292,3.1979245364-13.2521981792,6.1545657176-19.3744133201,9.5655078878-6.12564237,3.3682122348-11.9312693947,7.0719847021-17.4708382423,11.1464258018-5.5363401221,4.0788872478-10.7930931334,8.5349165404-15.8254323114,13.3923353087-5.0734148141,4.8403508097-9.8017170066,10.1127611599-14.8689839988,15.6806957309Z"/><path class="cls-2" d="m203.1917781229,109.9527783862c-4.5212720608,56.0142391784-53.5923571531,97.7666308229-109.6187746315,93.2443757727-30.6106024951-2.4707799991-56.9631599801-18.2516844923-73.8340085135-41.2030365624,16.548198151,16.9370016134,39.06627985,28.1834003238,64.5186297332,30.2378243434,56.0139421467,4.5212480854,105.0961985742-37.2176852379,109.6184296491-93.2438056846,2.0485021074-25.3789830517-5.3981049082-49.332950395-19.3764603206-68.3765272572,19.8637810688,20.3144776088,31.1580491351,48.7914583928,28.6921840834,79.3411693881Z"/></g><path id="mouth" class="cls-3" d="m149.4692319195,126.3944817366c2.0123496665-1.3075721451,4.4106057372.9405868563,3.2294442867,3.0296425576-9.453854427,16.7205156274-31.0621171759,27.4116156867-55.2212503002,25.4615755682-24.1593786317-1.950059935-43.7731067479-15.9684586315-50.4227751306-33.988799159-.8308071423-2.2514547726,1.8969771819-4.0858547313,3.6735549717-2.4724544533,12.6896750372,11.5241366573,29.3487944627,19.1457811687,48.0251846183,20.6532735893,18.6762662612,1.5074824203,36.3421173667-3.3435683217,50.715841554-12.6832381028Z"/><g id="cheeks"><circle class="cls-1" cx="163.9909636095" cy="106.5491982368" r="27.9261793871"/><circle class="cls-1" cx="39.5774170233" cy="96.506975037" r="27.9261793871"/></g><g id="eyes"><path class="cls-3" d="m114.3251877965,84.7330988924c-.8919308294-.0719935145-1.7765895068-.3789737564-2.5574401182-.9370958962-2.2989050667-1.642440902-2.8312664531-4.837532274-1.1882722442-7.1363926797,5.7585125932-8.0592858316,16.5737454562-12.4819930579,28.2247302425-11.5415666098,11.6543046281.9406944141,21.6224326887,7.0404044071,26.0143363895,15.9189960843,1.2530144519,2.5326160228.2150460074,5.6015128146-2.3169720474,6.8540186205-2.5336333147,1.251818516-5.6020214606.2144480395-6.8540186205-2.3169720474-2.7639771463-5.5883872022-9.6989167607-9.6143704138-17.6665370733-10.2574886573-7.9643004708-.6428502775-15.4524135431,2.2189549304-19.076873967,7.2911330451-1.0843187622,1.5180544552-2.8454418365,2.2652910193-4.5789525614,2.1253681404Z"/><path class="cls-3" d="m92.0992625574,82.9391005058c.8919308294.0719935145,1.8143727036-.0891239369,2.6746305537-.5147815829,2.5325713618-1.2524611448,3.5704951454-4.3208046296,2.3174806937-6.8534206524-4.3913503935-8.8785470164-14.357220565-14.9786316729-26.0082053512-15.9190581215-11.654304628-.9406944146-22.4717060581,3.4812808603-28.2307719586,11.5405220307-1.6429942091,2.2988604056-1.1106774837,5.4945050846,1.1876742759,7.1369013257,2.3000563415,1.6419769171,5.4951030525,1.1101688377,7.1369013257-1.1876742759,3.6245050851-5.0727314215,11.1153846924-7.9343133242,19.0830050049-7.2911950804,7.9643004708.6428502779,14.8964735502,4.6686101849,17.6604953572,10.2564440802.8268034988,1.6723135117,2.4452793738,2.6923393975,4.1787900987,2.8322622765Z"/></g></g></g></svg>