<?xml version="1.0" encoding="UTF-8"?><svg id="Capa_2" xmlns="http://www.w3.org/2000/svg" viewBox="0 0 1262.1338236446 476.6873748761"><defs><style>.cls-1{fill:#4f3141;}.cls-1,.cls-2,.cls-3,.cls-4,.cls-5{stroke-width:0px;}.cls-2{fill:#3b7d2b;}.cls-3{fill:#aeaeae;}.cls-4{fill:#909090;}.cls-5{fill:#6d3151;}</style></defs><g id="Capa_2-2"><path class="cls-5" d="m149.8277777778,265.5554683409s-102.5666666667-31.1722222222-149.8277777778-3.0166666667c0,0,130.7222222222-4.0222222222,152.8444444444,37.2055555556l37.2055555555,5.0277777778s26.1444444445-51.2833333333,131.7277777778-34.1888888889c0,0-61.3388888889-55.3055555556-133.7388888889-7.0388888889,0,0,40.2222222222-76.4222222222,108.6-79.4388888889,0,0-81.45-10.0555555556-123.6833333333,55.3055555556,0,0-13.0722222222-100.5555555556-75.4166666667-110.6111111111,0,0,57.3166666667,44.2444444444,60.3333333333,123.6833333333,0,0-57.3166666667-75.4166666667-147.8166666667-53.2944444445,0,0,100.5555555555,9.05,139.7722222222,66.3666666667Z"/><ellipse class="cls-1" cx="172.9555555556" cy="305.2749127854" rx="63.35" ry="10.5583333333"/><path class="cls-3" d="m115.1361111111,303.2638016743c2.9863476392-.4266210913,14.5805555555-10.5583333333,23.6305555556,5.5305555555,9.05,16.0888888889-20.1111111111,10.0555555556-26.1444444444,8.0444444444-6.0333333333-2.0111111111-11.5638888889-11.5638888889,2.5138888889-13.575Z"/><path class="cls-3" d="m187.0023732649,309.0431965255c2.7221763972-1.3000128616,10.756649666-14.4348706627,24.2031735627-1.7879010347,13.4465238968,12.6469696281-16.1845342001,15.6087104009-22.5431831203,15.4935456411s-14.4924530427-7.5773252059-1.6599904424-13.7056446064Z"/><path class="cls-3" d="m223.9162134287,306.4940813422c2.522405755-1.1579557332,10.2317035924-12.3037815346,22.1490987649-2.1744251492s-15.2209162606,13.4338201045-21.0232845181,13.5189477377c-5.8023682575.0851276332-13.0165490085-5.8858669135-1.1258142467-11.3445225885Z"/><path class="cls-4" d="m147.8166666667,305.2749127854c2.8891692602-.8677434895,17.4091757133-11.177158271,28.7600269977,3.3800743231,11.3508512844,14.5572325941-19.9801518987,13.7965166516-26.2461381088,12.7088145658s-16.1335633948-11.9983068504-2.5138888889-16.0888888889Z"/><path class="cls-2" d="m544.2954499312,97.4595369549s-65.4788897069,2.4709014984-49.4180299675,13.5899582411c16.0608597394,11.1190567427,107.4842151793,3.7063522476,95.1297076874-4.9418029967-12.3545074919-8.6481552443-45.7116777199-8.6481552443-45.7116777199-8.6481552443Z"/><path class="cls-2" d="m678.9595815926,96.2240862057s108.7196659285-4.9418029967,106.2487644301,6.1772537459c-2.4709014984,11.1190567427-171.727654137,16.0608597394-106.2487644301-6.1772537459Z"/><path class="cls-2" d="m1155.8435707788,1.0943785183s108.7196659285-4.9418029967,106.2487644301,6.1772537459-171.727654137,16.0608597394-106.2487644301-6.1772537459Z"/><path class="cls-2" d="m73.5981221233,436.6701041436s55.2340998204-2.5106409009,53.9787793699,3.1383011262c-1.2553204505,5.6489420271-87.2447713072,8.159582928-53.9787793699-3.1383011262Z"/><path class="cls-2" d="m93.2584882972,469.2351662658s52.3343702879-17.8388000512,52.7068873935-12.0640614022-81.4930657457,32.2041790668-52.7068873935,12.0640614022Z"/><path class="cls-2" d="m182.2254083201,431.1301067314s55.144429551-4.025045365,54.0445605435,1.6562100971c-1.0998690076,5.681255462-86.9880729292,10.5500749793-54.0445605435-1.6562100971Z"/></g></svg>