<?xml version="1.0" encoding="UTF-8"?><svg id="Capa_2" xmlns="http://www.w3.org/2000/svg" viewBox="0 0 47.6815627659 40.2191256741"><defs><style>.cls-1{fill:#ff4c2f;}.cls-1,.cls-2,.cls-3{stroke:#000;stroke-miterlimit:10;stroke-width:.7748153317px;}.cls-2{fill:#fbc01a;}.cls-3{fill:#c7c7c7;}</style></defs><g id="Capa_1-2"><path class="cls-1" d="m23.840781383.3874076658h0c-6.1558086874,0-11.4133838016,4.441444258-12.4420681365,10.5106931192l-3.5488684888,20.9381489106h31.9818732506l-3.5488349385-20.9381489106C35.2541977182,4.828838707,29.9966022705.3873903823,23.840781383.3874076658Z"/><path class="cls-3" d="m20.6425940579,28.1050311497h6.3963746501c1.1775410057,0,2.1321248834.954585911,2.1321248834,2.1321248834v1.5990936625h-10.6606244169v-1.5990936625c0-1.1775389723.9545838777-2.1321248834,2.1321248834-2.1321248834Z"/><circle class="cls-2" cx="23.840781383" cy="20.6425940579" r="3.1981873251"/><path class="cls-3" d="m8.9159071993,31.3032184748h29.8497483672c2.3550820114,0,4.2642497668,1.9091677554,4.2642497668,4.2642497668v2.1321248834c0,1.1775389723-.954585911,2.1321248834-2.1321248834,2.1321248834H6.783782316c-1.177539989,0-2.1321248834-.954585911-2.1321248834-2.1321248834v-2.1321248834c0-2.3550820114,1.9091697887-4.2642497668,4.2642497668-4.2642497668Z"/><path class="cls-2" d="m1.4534701075,8.9159071993h6.3963746501c.5887705028,0,1.0660624417.4772919388,1.0660624417,1.0660624417h0c0,.5887705028-.4772919389,1.0660624417-1.0660624417,1.0660624417H1.4534701075c-.5887699945,0-1.0660624417-.4772919388-1.0660624417-1.0660624417H.3874076658c0-.5887705029.4772924472-1.0660624417,1.0660624417-1.0660624417Z"/><path class="cls-2" d="m39.8317180083,8.9159071993h6.3963746501c.5887694862,0,1.0660624417.4772919388,1.0660624417,1.0660624417h0c0,.5887705028-.4772929555,1.0660624417-1.0660624417,1.0660624417h-6.3963746501c-.5887694862,0-1.0660624417-.4772919388-1.0660624417-1.0660624417h0c0-.5887705029.4772929555-1.0660624417,1.0660624417-1.0660624417Z"/><path class="cls-2" d="m8.9159071993,4.6516574326c-.1146800779-.0000569339-.2285925651-.0186905784-.3373128862-.0551790933l-3.1981873251-1.0660624417c-.5587358495-.1849720655-.8617313331-.7878672531-.6767587593-1.3466031026s.7878672531-.8617308248,1.3466031026-.6767587593c.0015951652.0005281634.0031888054.0010598851.004781429.0015956736l3.1981873251,1.0660619334c.5584308466.1861331099.8602373272.7897216708.6741042173,1.3481525174-.1451010683.435327605-.5525442904.7289173071-1.0114171034.7287932726Z"/><path class="cls-2" d="m3.5855949909,18.5104691745c-.5886347766.0001586015-1.0659465406-.4768944184-1.0661059046-1.0655276699-.0001242887-.458872813.2934654135-.8663160352.7287930185-1.0114181201l3.1981873251-1.0660624417c.5578726913-.1875584901,1.1621647923.1126396084,1.3497232824.670514333.1875584901.5578726913-.1126406251,1.1621647923-.6705133164,1.3497232824-.0015270479.0005124049-.0030551125.0010227764-.0045841938.0015290813l-3.1981873251,1.0660624417c-.1087198127.0364885149-.2226333166.0551221594-.3373128861.0551790933Z"/><path class="cls-2" d="m38.7656555666,4.6516574326c-.5886352849.0001596182-1.0659445072-.4768944184-1.0661071755-1.0655286866-.0001220012-.458872813.2934656676-.8663160352.7287942893-1.0114171035l3.1981873251-1.0660624417c.5578381243-.1876657495,1.1621871591.112417973,1.349853417.6702550806.1876621911.5578371076-.1124200063,1.1621861425-.6702581306,1.3498513836-.0016551491.0005571386-.0033102983.0011102106-.0049695141.0016592158l-3.1981873251,1.0660624417c-.1087193044.0364885149-.2226317916.0551231761-.3373128862.05518011Z"/><path class="cls-2" d="m44.095967775,18.5104691745c-.1146810946-.0000569339-.2285935818-.0186905784-.3373128861-.0551790933l-3.1981873251-1.0660624417c-.5587165327-.185026966-.8616535574-.7879506206-.6766265914-1.3466691866s.7879485872-.8616535574,1.3466691866-.6766265914c.0015290813.0005063048.0030581625.0010166764.0045831771.0015290813l3.1981873251,1.0660624417c.5584318633.1861331099.8602383439.7897216708.674105234,1.3481535341-.1451000516.4353265883-.5525432737.7289162905-1.0114181201.7287922559Z"/></g></svg>