<svg version="1.2" xmlns="http://www.w3.org/2000/svg" viewBox="0 0 185 300" width="185" height="300">
	<title>dhand2-svg</title>
	<style>
		.s0 { fill: #bf695b } 
		.s1 { fill: #c87f73 } 
		.s2 { fill: none;stroke: #373151;stroke-linecap: round;stroke-linejoin: round;stroke-width: 4.5 } 
		.s3 { fill: #deac29 } 
	</style>
	<g id="Capa_2-2">
		<path id="Layer" class="s0" d="m92.6 121.4c0 0-29.3-32.9-31.9-37.3-2.7-4.3-38.6-25-38.6-25 0 0-11.9 7.9-1.8 18 10.1 10.1 33.8 23.7 33.8 29.8 0 6.2 14.9 53.1 25 47.4 10.1-5.7 15.3-28.9 15.3-28.9"/>
		<path id="Layer" class="s0" d="m67.7 137.6c0 0-21.1-15.3-22.4-13.5-1.3 1.7-3.5 6.5-1.3 10 2.2 3.5 18.4 15.4 18.4 15.4 0 0 4.4 14.5 7 13.1 2.7-1.3 11.4-14-1.7-25z"/>
		<path id="Layer" class="s1" d="m59.4 259.8c0 0-31.5-64.7-34.1-95.8 0 0-21.5-48.3-22.4-50-0.9-1.8 3.1-21.9 15.3-10.1 12.3 11.8 32.9 42.1 39.5 45.2 6.6 3.1 16.1 5.8 21.8-2.6 5.7-8.3 7.6-40 18.6-46.6 10.9-6.5 7-36.8 7-36.8 0 0-9.2-46.5-9.2-48.2 0-1.8 11.4-23.7 17.1-10.6 5.7 13.2 16.2 57.9 16.6 61.4 0.5 3.5-1.3 16.3-1.7 18.9-0.4 2.6 4.4 22 3.1 30.4-1.3 8.3-4 32.8-4 37.6 0 4.8 1.8 104.8 1.8 104.8l50 180.3-127.2-4.4c0 0 9.6-99.1 5.2-138.6z"/>
		<path id="Layer" class="s1" d="m118.6 100.4c-0.4-5-24.6-46.5-25.9-49.6-1.3-3.1-29.8-35.1-32.9-32.5-3.1 2.7-8.3 9.7 0.9 25l12.7 13.2 12.3 28.5c0 0 3.5 28.5 9.2 30.7 5.7 2.2 24.1-8.3 23.7-15.3z"/>
		<path id="Layer" fill-rule="evenodd" class="s2" d="m170.1 408.4l-41.8-150.9c0 0-1.8-100-1.8-104.8 0-4.8 2.6-29.3 4-37.6 1.3-8.3-3.6-27.8-3.1-30.4 0.4-2.6 2.2-15.3 1.7-18.9-0.4-3.5-10.9-48.2-16.6-61.4-5.7-13.1-17.1 8.8-17.1 10.6 0 1.7 9.2 48.2 9.2 48.2 0 0 0.4 3.5 0.6 8.4-6.3-11.5-12.7-22.6-13.3-24.2-1.4-3-29.9-35.1-32.9-32.4-3.1 2.6-8.4 9.6 0.8 25l12.8 13.1 12.2 28.5c0 0 2.1 17 5.7 25.7-1.5 2.1-2.9 4.4-4.3 6.9-8.6-10.7-24.5-30.3-26.4-33.4-2.6-4.4-38.6-25-38.6-25 0 0-11.8 7.9-1.7 17.9 10.1 10.1 33.8 23.7 33.8 29.9 0 2.9 3.4 15.4 8.1 26.8-6.3-4.4-16-10.9-16.9-9.7-1.3 1.7-3.5 6.6-1.3 10.1 2.2 3.5 18.4 15.3 18.4 15.3 0 0 0.8 2.5 1.8 5.4-2.3 0.3-4.7-0.8-8-2.3-6.5-3.1-25.4-33.4-37.7-45.2-12.3-11.8-16.2 8.3-15.3 10.1 0.9 1.7 22.3 50 22.3 50 2.7 31.1 34.2 95.8 34.2 95.8l-2.6 34.9c2.9 26.2-0.3 78.8-2.9 111.1"/>
		<path id="Layer" fill-rule="evenodd" class="s2" d="m104.1 64.6l-2.2 39.8c0 0-13 3.5-16.1 28.1 0 0-7.2 22.8-11.2 22.8-4 0-10.2-0.5-14.3-3.6"/>
		<path id="Layer" class="s2" d="m129.1 71.8l-3.6 35.2"/>
		<path id="Layer" fill-rule="evenodd" class="s2" d="m62.6 129.8c0 0-4.6 10.8-1.2 16.1"/>
		<path id="Layer" fill-rule="evenodd" class="s2" d="m62.2 131c0 0 3.6-8.1 11.7-7.2"/>
		<path id="Layer" class="s3" d="m116.9 328.2c-27.3 2.1-63.4 4.6-64.7 1.7-1.9-4.5 3.8-22.8 3.8-33 0-10.1-1.9-27.3-1.9-27.3 0 0-0.6-6.9 8.3-6.9 8.8 0 56.9-0.2 65.9-5.2 8.9-5 14.6 11.5 15.9 17.2 1.2 5.7 10.1 51.4 1.9 51.4-2.9 0-14.8 1-29.2 2.1z"/>
		<path id="Layer" fill-rule="evenodd" class="s2" d="m76.3 332.7c-13.4 0.6-23.4 0.6-24.1-0.9-1.9-4.5 3.8-22.8 3.8-33 0-10.1-1.9-27.3-1.9-27.3 0 0-0.6-6.9 8.3-6.9 8.8 0 56.9-0.2 65.9-5.2 8.9-5 14.6 11.5 15.9 17.2 1.2 5.7 10.1 51.4 1.9 51.4-2.9 0-15.1 1-29.8 2.1"/>
		<path id="Layer" class="s3" d="m55 330.4c0 0-10.2 115.8-8.7 121.5 1.5 5.7-1.5 17.4 2.7 20.1 4.1 2.7 132.9 3.4 134.4-2.3 1.5-5.7 3-20.5-1.2-31.5-4.1-11-32.2-93.8-31.5-99.9 0.8-6-6.8-14.4-9.5-14.8-2.6-0.3-86.2 6.9-86.2 6.9z"/>
		<path id="Layer" fill-rule="evenodd" class="s2" d="m144.3 327c0 0-45.6 5.7-63.1 4.9"/>
		<path id="Layer" fill-rule="evenodd" class="s2" d="m133.6 273.4c0 0 5.7 30.8 5 36.8"/>
		<path id="Layer" fill-rule="evenodd" class="s2" d="m126.8 275.3c0 0 1 5.4 2.1 12.2"/>
		<path id="Layer" fill-rule="evenodd" class="s2" d="m60 331.1c0 0-0.8-12.5-4.2 0.8-3.4 13.3-11.8 116.2-9.5 120"/>
		<path id="Layer" fill-rule="evenodd" class="s2" d="m143.5 328.9c0 0 30.8 84.6 31.1 87.3 0.4 2.6 9.2 17.5 5.7 25.1"/>
		<path id="Layer" fill-rule="evenodd" class="s2" d="m153 405.9c0 0-28.9 31.9-77.5 27"/>
	</g>
</svg>