<svg version="1.2" xmlns="http://www.w3.org/2000/svg" viewBox="0 0 313 300" width="313" height="300">
	<title>dhand-svg</title>
	<style>
		.s0 { fill: #965450 } 
		.s1 { fill: none;stroke: #373151;stroke-linecap: round;stroke-linejoin: round;stroke-width: 6.8 } 
		.s2 { fill: none;stroke: #373151;stroke-linecap: round;stroke-linejoin: round;stroke-width: 4.3 } 
		.s3 { fill: none;stroke: #373151;stroke-linecap: round;stroke-linejoin: round;stroke-width: 5.2 } 
		.s4 { fill: #e0ac04;stroke: #373151;stroke-miterlimit:10;stroke-width: 2.6 } 
		.s5 { fill: #393a3c;stroke: #373151;stroke-linecap: round;stroke-linejoin: round;stroke-width: 4.3 } 
		.s6 { fill: #a4a4a4;stroke: #373151;stroke-linecap: round;stroke-linejoin: round;stroke-width: 4.3 } 
	</style>
	<g id="Capa_2-2">
		<path id="Layer" class="s0" d="m42.5-193.8l16.7 306.6c0 0 4.7 11.7 1.6 12.5-16.4 4.1-38.6 20.1-50.4 32.4-13 13.4-13.9 42.2 12.5 36.1 12.2-2.8 43-5.7 43-21.7 0 5.7 7.1 11.2 9.9 16.3q5.3 9.5 10.7 18.8c4.5 7.8 10.8 23.8 19.1 28.4 6.9 3.9 113.3-21.5 125.7-34.6 12.3-13.2-25.4-67.1-53.2-87.9-27.7-20.9-13.1-301.5-13.1-301.5 0 0-80.9-27.8-122.5-5.4z"/>
		<path id="Layer" class="s0" d="m106.1 230.8c0 0 28.5 44.8 30.8 44.8 2.4 0 4.7 0 7.7 3 3.1 3.1 43.2 23.2 48.6 21.6 5.4-1.5 11.6-23.1 2.3-30-9.2-7-26.2-18.5-30.8-27-4.6-8.5-8.5-10-10-17-1.6-6.9-4.7-17.7-4.7-17.7 0 0-44.7-11.6-43.9 22.3z"/>
		<path id="Layer" class="s0" d="m176.3 205.3c0 0 31.3 45.8 33.9 47.3 2.5 1.6 39 14.4 43.2 20.1 4.1 5.6 1.5 12.8 0 14.3-1.6 1.6-5.7 4.2-8.3 4.2-2.5 0-38.5-6.7-44.7-8.8-6.2-2-55-55.5-55-59.1 0-3.6 15.4-22.1 30.9-18z"/>
		<path id="Layer" class="s0" d="m179.9 219.2c0 0 37 32.4 41.6 33.4 4.6 1 52.4 8.7 58.6 6.7 6.1-2.1 10.8-4.1 7.2-11.3-3.6-7.2-32.4-11.8-39.6-15.4-7.2-3.6-39.1-30.4-42.7-32.4-3.6-2.1-34.4-3.1-25.1 19z"/>
		<path id="Layer" class="s0" d="m224.4 178.6c0 0 20.7 11.3 25.9 13.4 5.1 2 24.1 5.6 29.3 5.6 5.1 0 31.8 4.6 29.3 11.8-2.6 7.2-5.7 9.3-14.9 9.8 0 0-34.5 3.1-40.6 0.5-6.2-2.6-13.9-2-20.6-4.1-6.7-2.1-26.7-8.2-26.7-8.2 0 0 3.4-33.9 18.3-28.8z"/>
		<path id="Layer" fill-rule="evenodd" class="s1" d="m279.6 194.5c-5.2 0-24.2-3.6-29.3-5.6-3.1-1.3-9.5-1.1-17.1-6.7-10.1-23.9-35.9-57.8-55.1-72.2-27.7-20.8-13.1-301.5-13.1-301.5 0 0-80.9-27.7-122.5-5.4l16.7 306.6c0 0 5.1 11.5 2.5 13.3-24.8 16.1-56 18.5-58.3 58.6 0 0 0.7 9 20.8 9 20 0 44-18.6 44-18.6 0 0 30.4 56.7 37.4 60.6 0.5 0.3 1.1 7.3 2.7 7.3 7.5 11.7 26.3 32.8 28.1 32.8 2.3 0 4.6 0 7.7 3 3.1 3.1 43.2 23.2 48.6 21.6 3.4-1 7.2-10 7.1-18.3q0.3 0.2 0.6 0.3c6.2 2.1 42.2 8.8 44.7 8.8 2.6 0 6.7-2.6 8.3-4.1 1.5-1.6 4.1-8.8 0-14.4-4.2-5.7-40.7-18.5-43.2-20.1-1.2-0.7-8.1-10.2-15.3-20.5 10.8 9.2 23.9 19.9 26.6 20.5 4.6 1.1 52.4 8.8 58.6 6.7 6.1-2 10.8-4.1 7.2-11.3-3.6-7.2-32.4-11.8-39.6-15.4-4.3-2.2-17.4-12.5-28-21 5.1 1.6 10.3 3.1 13.1 4 6.7 2.1 14.4 1.6 20.6 4.1 6.1 2.6 40.6-0.5 40.6-0.5 9.2-0.5 12.3-2.6 14.9-9.8 2.5-7.1-24.2-11.8-29.3-11.8z"/>
		<path id="Layer" fill-rule="evenodd" class="s1" d="m196.9 277.7c0 0-26.2-19.7-31.2-20.5-5-0.7-20.8-30.4-20.8-30.4"/>
		<path id="Layer" fill-rule="evenodd" class="s2" d="m120.6 118.2c0 0 17.3 28.6-23.1 50.7"/>
		<path id="Layer" fill-rule="evenodd" class="s2" d="m162.6 215.6c0 0 26.2-23.9 41.7-26.2"/>
		<path id="Layer" fill-rule="evenodd" class="s3" d="m245.9 231c0 0-10.8 8.9-14.6 8.9"/>
		<path id="Layer" class="s4" d="m114.2 251.2c0 0 10.2-13.9 34.9-15.6l-3.5-7.5c0 0-24.8 1.4-36 18.1z"/>
		<path id="Layer" class="s5" d="m59.4 104.6c0 0 98.2-26.2 118.2-22.6l-2.5-23.2c0 0-74.1-6.7-122.4 27.8l0.5 19.5z"/>
		<path id="Layer" class="s6" d="m91.8 68.1l5.9 27.2 36-7.7-2.3-9.5 3.8-0.8-2.3-10.8-4.4 0.6-1.8-8-34.9 9z"/>
	</g>
</svg>