<?xml version="1.0" encoding="UTF-8"?><svg id="Capa_2" xmlns="http://www.w3.org/2000/svg" viewBox="0 0 1118.6124184935 838.4763205979"><defs><style>.cls-1{fill:#3c3849;stroke-width:0px;}</style></defs><g id="Capa_2-2"><path class="cls-1" d="m168.0816587374,210.5850666939l-19.3197308894-142.9660085812,170.0136318263,81.1428697353L502.3130031231,0l123.6462776919,141.0340354923,135.2381162255-117.850358425,81.1428697353,179.673497271,150.693900937-48.2993272234-63.7551119349,121.7143046029,189.3333627156,19.3197308893-146.8299547591,79.2108966464,146.8299547591,162.2857394705-156.4898202038,17.3877578004,34.7755156008,168.0816587374-110.1224660693-57.9591926681-3.2121427085,109.3725708305-112.7062426276-66.869162874-98.5306275357,125.5782507808-71.4830042906-119.782331514-67.6190581127,115.9183853361-112.0544391582-131.3741700476-100.4626006246,141.0340354923-28.979596334-123.6462776919-166.1496856484,69.5510312017,52.1632734012-144.8979816701-139.1020624033-5.7959192668,129.4421969587-119.782331514-135.7142129074-80.1536569128s108.6665896623-68.6082709353,108.6665896623-62.8123516684S0,258.8843939173,0,258.8843939173l168.0816587374-48.2993272234Z"/></g></svg>