<?xml version="1.0" encoding="UTF-8"?><svg id="Capa_2" xmlns="http://www.w3.org/2000/svg" viewBox="0 0 204.7408049417 204.7434849356"><defs><style>.cls-1{fill:#a42034;}.cls-1,.cls-2,.cls-3,.cls-4,.cls-5{stroke-width:0px;}.cls-2{fill:#242b30;}.cls-3{fill:#db2b45;}.cls-4{fill:#fff;}.cls-5{fill:#f1aab5;}</style></defs><g id="Capa_2-2"><g id="Face_with_Symbols_on_Mouth"><g id="circle"><circle class="cls-3" cx="102.3704024708" cy="102.3704024709" r="102.3704024708"/><path class="cls-5" d="m16.4798393262,67.9013034129c.8271099684-7.5522125129,3.588440131-14.7746602686,7.3744393301-21.3981353107,3.8285688315-6.6108840241,8.8077168795-12.5988124431,14.6031825948-17.6460119457,5.7903693509-5.0525956531,12.413844393-9.1572675222,19.4938937307-12.0334157776,7.0851457022-2.8359769122,14.6277650586-4.5591476618,22.2237463484-4.3103251632-6.5803058375,3.7587186602-12.7903757885,7.244032358-18.6532933859,11.159838957-5.8698126787,3.8732369668-11.3915736455,8.0570523776-16.6165463308,12.5910180034-5.2213752516,4.5381626318-10.1318722729,9.4318716291-14.7848529975,14.7099064617-4.6955503569,5.26424467-9.010072526,10.9338002053-13.6405692899,16.9271247749Z"/><path class="cls-1" d="m204.7377426522,102.3713137003c0,56.5336708354-45.8262091681,102.3721712354-102.3721712354,102.3721712354-30.8944609606,0-58.596499285-13.691233148-77.3712060588-35.3399896742,17.9643848295,15.6440400831,41.4544278456,25.0986954591,67.1428026479,25.0986954591,56.5333710493,0,102.3718714492-45.8259093819,102.3718714492-102.3715716631,0-25.614327625-9.4057902347-49.0312228222-24.9637916948-66.9956076517,21.562418117,18.762415542,35.1924948919,46.4032974932,35.1924948919,77.2363022945Z"/></g><ellipse class="cls-2" cx="133.9536892483" cy="100.04501623" rx="13.5208887636" ry="19.4859867475"/><ellipse class="cls-2" cx="70.7871156934" cy="100.0450162304" rx="13.5208887636" ry="19.4859867475"/><path class="cls-2" d="m120.1566821851,95.897230748c-1.5329462501,0-3.0501329779-.6791303501-4.0687584607-1.9796761772-1.7587626949-2.2452766606-1.3644944667-5.4907576734.8807121516-7.249660453,13.4585620496-10.5427702445,29.6889789335-16.4156788244,48.2404582699-17.4556672153,2.8479908378-.1473690446,5.2853235442,2.0194602158,5.4448799528,4.8671008421.1596264509,2.8476406262-2.0194602158,5.2856737558-4.8670307997,5.445370249-16.4027910373.9189552592-30.6847706194,6.057820309-42.4492190369,15.2737088134-.9448008758.7402072545-2.0671590368,1.098823941-3.1810420769,1.098823941Z"/><path class="cls-2" d="m84.5841227557,95.897230749c1.5329462501,0,3.0501329779-.6791303499,4.0687584608-1.979676177,1.758762695-2.2452766605,1.364494467-5.4907576734-.8807121513-7.249660453-13.4585620491-10.5427702451-29.6889789327-16.4156788258-48.2404582691-17.4556672175-2.8479908378-.1473690447-5.2853235443,2.0194602156-5.444879953,4.8671008418-.159626451,2.8476406262,2.0194602156,5.2856737559,4.8670307995,5.4453702493,16.4027910372.9189552599,30.6847706191,6.0578203103,42.4492190362,15.2737088153.9448008758.7402072545,2.0671590368,1.098823941,3.1810420769,1.0988239411Z"/><rect class="cls-2" x="23.7974045128" y="129.5369675515" width="157.1459959162" height="56.9123336561" rx="11.4757339679" ry="11.4757339679"/><path class="cls-4" d="m65.9565897227,160.525271658l-6.1254111493-.0372625151.7016139353-5.2802104548,5.3938191004.0329198912h.01568948c1.4187772659,0,2.5733548949-1.1458923811,2.5817599735-2.5669110013.0084050786-1.4260616674-1.1408493339-2.5887642057-2.566630832-2.5971692843l-4.7390634782-.0288574365,1.1867970969-8.9320770174c.1877134218-1.4137342188-.8060470368-2.7120386916-2.2195010863-2.8997521135-1.4126135417-.1837910518-2.7117585224.8052065289-2.8997521135,2.2195010863l-1.2729491524,9.5805288306-5.3321818574-.0326397219,1.1782519336-8.8676380815c.1877134218-1.4137342188-.8060470368-2.7120386916-2.2195010863-2.8997521135-1.4117730338-.1837910518-2.7117585223.8052065289-2.8997521135,2.2195010863l-1.2644039892,9.5162299794-6.778976052-.0414650544c-1.4381089467-.0005603386-2.5884840364,1.1414096725-2.5968891149,2.5669110013-.0081249093,1.4260616674,1.1411295032,2.5887642057,2.5671911706,2.5971692842l6.1230997527.0374025997-.7016839776,5.280490624-5.3911574921-.0327798065h-.0156894801c-1.4187772659,0-2.5733548949,1.1458923811-2.5817599735,2.5669110013-.0084050786,1.4260616674,1.1408493339,2.5887642057,2.566630832,2.5971692842l4.73640187.0288574365-1.1866570122,8.9309563402c-.1877134218,1.4137342188.8060470368,2.7120386917,2.2195010863,2.8997521135.115429746.0151291415.2300189841.0229738815.343487545.0229738815,1.2747702528,0,2.3836802881-.9441704949,2.5562645684-2.2424749678l1.2728090678-9.5795482381,5.3321818574.0323595526-1.178111849,8.8669376583c-.1877134218,1.4137342188.8060470368,2.7120386917,2.2195010863,2.8997521135.115429746.0151291415.2300189841.0229738815.343487545.0229738815,1.2747702528,0,2.3836802881-.9441704949,2.5562645685-2.2424749678l1.2642639045-9.5153894715,6.7819178295.0411848851h.0148489722c1.4190574352,0,2.5736350642-1.1464527196,2.5817599735-2.5674713399.0081249093-1.4260616674-1.1414096725-2.5882038671-2.5674713399-2.5966089457Zm-16.6629982619-.1014212816l.7016139353-5.2803505394,5.3321818574.0324996372-.7016139353,5.2803505394-5.3321818574-.0324996372Z"/><path class="cls-4" d="m84.5928889733,177.4480568906c-.4096074966,0-.8253787175-.0980592502-1.2120123326-.3037035064-1.2585204342-.6707252715-1.7350883902-2.2346302277-1.0643631187-3.4931506619l18.1443233211-34.0478526901c.6704451022-1.2585204342,2.234910397-1.7348082209,3.4928704926-1.064643288,1.2585204342.6707252715,1.7350883902,2.2346302277,1.0643631188,3.4931506619l-18.1443233211,34.0478526901c-.4645206767.871886819-1.3577003615,1.3683467944-2.28085816,1.3683467944Z"/><path class="cls-4" d="m84.2698537862,155.0328329688c-4.6079442522,0-8.3566093033-3.7486650511-8.3566093033-8.3568894726s3.748665051-8.3568894725,8.3566093033-8.3568894725,8.3568894725,3.748665051,8.3568894725,8.3568894725-3.7489452203,8.3568894726-8.3568894725,8.3568894726Zm0-11.5496986595c-1.760303626,0-3.1925290177,1.4322253917-3.1925290177,3.192809187s1.4322253917,3.192809187,3.1925290177,3.192809187c1.7605837953,0,3.192809187-1.4322253917,3.192809187-3.192809187s-1.4322253917-3.192809187-3.192809187-3.192809187Z"/><path class="cls-4" d="m103.0647301901,177.3634457662c-4.6079442522,0-8.3566093033-3.748665051-8.3566093033-8.3568894725,0-4.6076640829,3.748665051-8.356329134,8.3566093033-8.356329134s8.3566093032,3.7486650511,8.3566093032,8.356329134c0,4.6082244215-3.748665051,8.3568894725-8.3566093032,8.3568894725Zm0-11.549138321c-1.760303626,0-3.1925290177,1.4322253917-3.1925290177,3.1922488484,0,1.7605837953,1.4322253917,3.192809187,3.1925290177,3.192809187s3.1925290177-1.4322253917,3.1925290177-3.192809187c0-1.7600234567-1.4322253917-3.1922488484-3.1925290177-3.1922488484Z"/><path class="cls-4" d="m122.8717597684,165.8714619796c-2.0598045931,0-3.7296135396-1.6698089465-3.7296135396-3.7296135396v-20.6602435123c0-2.0598045931,1.6698089465-3.7296135396,3.7296135396-3.7296135396s3.7296135396,1.6698089465,3.7296135396,3.7296135396v20.6602435123c0,2.0598045931-1.6698089465,3.7296135396-3.7296135396,3.7296135396Z"/><circle class="cls-4" cx="122.8718120925" cy="173.3730405056" r="4.0613349893"/><path class="cls-4" d="m167.8199785067,172.657722433c-1.4467941946-1.5908012078-2.8930280506-3.1816024155-4.3392619066-4.7729639619.7155523573-.8281804104,1.414854896-1.6614038679,2.1085540489-2.4879032626.5729461905-.6824923815,1.1439311961-1.3627434087,1.7185584023-2.0334686802,1.1344054403-1.32295937.9811528407-3.3155233344-.3420866986-4.4496486054-1.3235197086-1.1352459482-3.316083673-.9822735179-4.4499287747.3423668679-.5889158398.6864147515-1.1739093097,1.3840362745-1.7611441338,2.0833388131-.5124296247.6107690442-1.0287816194,1.2254604584-1.5507369998,1.8373501797-1.754420071-1.9320473985-3.5082798034-3.864094797-5.2621395358-5.795581857-.31799214-.3507719465-.6471910514-.7004232158-.9811528407-1.0483934694.2885743649-.1664205561.576308222-.343487545.8623610633-.5334423212,2.4584854875-1.6317059236,5.2528939493-4.7034819788,5.7224576732-8.4325351798.3107077385-2.4671707354-.4345425631-4.7791276862-2.155622489-6.6859598489-1.8942245449-2.0973472774-4.6771460659-3.3704365145-7.6343328831-3.4931506619-4.132216804-.1781876661-7.7570470305,1.905151147-9.4672003543,5.4201550133-1.3442522358,2.7635898403-1.1775515104,6.1570002363.4457493346,9.077484877.464800846.836585489.9940406279,1.6305852464,1.5669868184,2.3926457052-.4435079802.2336611848-.8853349448.4897359125-1.3240800472.7755085846-3.6718986666,2.3898440124-5.8524562221,5.3730865732-6.4803155927,8.8656768965-.5964804106,3.3166440115.3532934701,6.9420345766,2.6061347014,9.9465700032,2.1671094297,2.8913470349,5.2526137801,4.7455073718,8.4644744785,5.0878742397.347409915.0369823458.6979016923.0554735187,1.052876178.0554735187,3.0490823431,0,6.3704892325-1.3683467944,9.8899758073-4.0787044703.9189552591-.7082679558,1.7902817396-1.4602423203,2.6249060436-2.2430353063,1.3383686808,1.4731301075,2.6770175309,2.9451395379,4.0162267195,4.4177093068,1.172228294,1.2893390557,3.1684344591,1.3834759359,4.4577735147.2106873033,1.2893390557-1.1727886326,1.3837561052-3.1687146284.2109674726-4.458053684Zm-21.8560060263-27.2884884882c.5774288991-1.1867970969,1.8090530818-1.8799359112,3.3205663815-1.8799359112.0692018137,0,.138963966.0016810157.2092864569.0044827086,1.2753305914.0532321644,2.4458778696.5693039898,3.2113003599,1.4170962502.4846928653.5368043526.657557315,1.0355056823.5779892377,1.6675675922-.1619378475,1.28765804-1.3753510266,2.9171226092-2.950182585,3.9621540472-.591997702.3927973394-1.2470334934.7222764201-1.9440946778,1.0242989108-.8402276897-.9693857307-1.5857581606-1.9522195871-2.1382519932-2.9456998764-.2995009671-.5390457069-.9267999992-1.9342887528-.2866131799-3.2499637214Zm6.6949252661,24.3607194461c-2.5251657777,1.9443748471-4.8054635991,2.9132002392-6.4220403812,2.7479003603-1.4756516311-.1574551389-2.9644712186-1.1044273267-4.0840276868-2.5977296228-1.1873574355-1.5840771449-1.7272436502-3.4696164419-1.444272671-5.0436074925.312108585-1.7359288981,1.5260821026-3.2706962486,3.7119628745-4.6933958845.6920181372-.4505122124,1.4700482453-.8175339775,2.3001898407-1.1582198297.0700423216.0711629987.1400846432.1417656589.2098467955.212368319.8360251504.8438698904,1.62526203,1.6412316793,2.3380126944,2.4262660196,1.8732118484,2.0631666245,3.746703866,4.1268935876,5.620476053,6.1900602121-.7214359123.6813717043-1.4633241825,1.3257610629-2.2301475192,1.9163579185Z"/></g></g></svg>