<?xml version="1.0" encoding="UTF-8"?><svg id="Capa_2" xmlns="http://www.w3.org/2000/svg" viewBox="0 0 53.6788296618 46.8278276636"><defs><style>.cls-1{fill:#ffb89f;}.cls-1,.cls-2{stroke-width:1.8499526761px;}.cls-1,.cls-2,.cls-3{stroke:#373151;stroke-miterlimit:10;}.cls-2{fill:#f6a17e;}.cls-3{fill:#d33054;stroke-width:2.1649129907px;}.cls-4{fill:#373151;stroke-width:0px;}</style></defs><g id="Capa_1-2"><path class="cls-3" d="m46.4422186569,23.8704330541c1.5073135568-2.1945239903,2.5930716129-4.582911841,2.8476138128-7.2654790926.429997977-4.53165916-1.2097500683-9.0979099838-4.4287512303-12.3169697245C39.4311938102-1.14200207,27.5413756421.2440244044,24.9650144806,9.0772626726,21.4685346805,1.1641768093,10.8186252401-.6165314686,5.5460194228,4.6560019209.3090958235,9.8928535749-.4355522038,18.4688927108,3.9279635577,24.4848977854c2.7098142057,3.7360369261,6.6537047067,6.9169246593,9.9198697926,10.1933478564,3.6703296928,3.681857172,7.3406593856,7.363714344,11.0114829414,11.0460453342.5835634452.57835833,11.3715522102-10.9292995996,12.16779156-11.7605943592,2.9994164259-3.1314693971,6.8281356225-6.3268414567,9.4151108052-10.0932635627Z"/><rect class="cls-2" x="17.7536999272" y="10.9682587729" width="36.6557263684" height="12.9751061644" rx="6.4875502148" ry="6.4875502148" transform="translate(-3.856771803 20.8490357419) rotate(-30.6733973569)"/><rect class="cls-1" x="30.5351031194" y="10.9886777463" width="11.024068133" height="12.9751061412" transform="translate(-3.872004967 20.8343303747) rotate(-30.673397309)"/><circle class="cls-4" cx="44.2538634352" cy="8.9299974545" r=".7896029062"/><circle class="cls-4" cx="25.640758829" cy="20.3634358077" r=".7896029062"/><circle class="cls-4" cx="24.0035297458" cy="24.619640409" r=".7896029062"/><circle class="cls-4" cx="27.9773099829" cy="24.3876299658" r=".7896029062"/><circle class="cls-4" cx="46.1013615766" cy="14.6009313159" r=".7707530786"/><circle class="cls-4" cx="47.878904048" cy="9.8330862693" r=".7707530786"/></g></svg>