<svg version="1.2" xmlns="http://www.w3.org/2000/svg" viewBox="0 0 1200 479" width="1200" height="479">
	<title>roadwalk-svg</title>
	<style>
		.s0 { fill: #0a3841 } 
		.s1 { fill: #aeaeae } 
		.s2 { fill: #909090 } 
	</style>
	<g id="Capa_2-2">
		<path id="Layer" class="s0" d="m980.8 329.1c0 0 1.4-52.3 23.2-30.5 0 0 5.8 20.3 5.8 20.3-1.4-4.9 10.6-21 13.7-25.1 3.5-4.4 13.7-14.7 20-13.7 11.1 1.8 5.5 25.3 5.5 33 0-12.7 17.7-24.1 29-25 19.1-1.5 19.7 22.8 21.7 36.6-1.1-7.3 16.5-23.3 23.4-24.8 24.6-5.6 33.4 37.7 33.4 53.9 0 0 0-47.9 23.2-21.8 23.3 26.1 13.1 47.9 13.1 47.9v13.1z"/>
		<path id="Layer" class="s1" d="m-109 1l11.4 478.2h1556.3l-1567.7-478.2z"/>
		<path id="Layer" class="s2" d="m-33 91.6l178.2 62.5c2.8 1 5.9 0.6 8.4-1.1l38.2-26.1c6.6-4.5 5-14.6-2.7-16.8l-180.2-52.2c-2.1-0.6-4.3-0.4-6.3 0.5l-36.3 15.7c-7.8 3.4-7.4 14.7 0.7 17.5z"/>
		<path id="Layer" class="s2" d="m189.8 165.9l194.5 68.1c3 1.1 6.4 0.7 9.1-1.2l46.3-31.8c7.2-4.9 0.9-12.5-7.5-15l-196.6-56.9c-2.3-0.7-4.8-0.5-7 0.5l-40.1 25.8c-8.6 3.7-7.5 7.4 1.3 10.5z"/>
		<path id="Layer" class="s2" d="m741.5 339.5l209.8 73.5c3.3 1.2 7 0.7 9.9-1.3l50-34.3c7.7-5.3 0.9-13.6-8.1-16.2l-212.2-61.4c-2.5-0.7-5.2-0.5-7.5 0.5l-43.3 27.8c-9.3 4.1-8.1 8 1.4 11.4z"/>
	</g>
</svg>