<?xml version="1.0" encoding="UTF-8"?><svg id="Capa_2" xmlns="http://www.w3.org/2000/svg" viewBox="0 0 1567.705871582 478.2221679688"><defs><style>.cls-1{fill:#0a3841;}.cls-1,.cls-2,.cls-3{stroke-width:0px;}.cls-2{fill:#aeaeae;}.cls-3{fill:#909090;}</style></defs><g id="Capa_2-2"><path class="cls-1" d="m1089.777750651,328.107037641s1.4521133974-52.2760823065,23.2338143584-30.4943813455c0,0,5.8061112468,20.3213893638,5.8084528811,20.3295850839-1.4175832153-4.9615416485,10.5446359279-21.0759051464,13.697832391-25.128471529,3.4444858562-4.4269387434,13.6653011363-14.7112319775,20.0182965721-13.7055832645,11.0821662738,1.7542537788,5.4933468837,25.3114809651,5.4909353435,33.0182506281.0070603359-12.7411463529,17.6665114137-24.1329167721,29.020630691-25.0229132405,19.0846913646-1.4959599684,19.6254621917,22.8266278107,21.6831357369,36.5599094739-1.0826416279-7.2253578408,16.4770955002-23.2310732,23.4150237031-24.8052292327,24.5303721923-5.5571294752,33.3379236727,37.7281561613,33.3375994087,53.9347602058.0000001578-.0078972418.0019148415-47.9175869412,23.2338143584-21.7816999846,23.2338143584,26.1380411532,13.0690205766,47.9197421143,13.0690205766,47.9197421143v13.0690205766l-212.0085560209-63.8929894857Z"/><polygon class="cls-2" points="0 0 11.3862304688 478.2221679688 1567.705871582 478.2221679688 0 0"/><path class="cls-3" d="m75.9856009982,90.6097062528l178.1932883228,62.4833608405c2.8219650819.9895202235,5.9462276604.5792102627,8.4169979426-1.1054058387l38.2223620291-26.0607013835c6.5785063686-4.4853452513,4.9629151838-14.6043071047-2.6851954553-16.8182338687L117.9255475197,56.9433952261c-2.1062813789-.6097130307-4.3593438181-.4649177349-6.370253087.4093906429l-36.2081440342,15.7426713192c-7.8494904528,3.412821936-7.4386925903,14.6820040499.6384505997,17.5142490646Z"/><path class="cls-3" d="m298.783347722,164.8515608013l194.4764731907,68.1930490409c3.0798343853,1.0799419273,6.4895900125.6321381135,9.1861376493-1.2064170934l46.2947550519-31.8381656221c7.1796459309-4.8952131347.8367642392-12.5427844546-7.5102256933-14.9590183825l-196.6747490943-56.9321642115c-2.2987519787-.6654282044-4.7576977739-.5074016101-6.9523626021.4468004892l-40.1219218696,25.8147524752c-8.5667717004,3.724683348-7.5133338269,7.3901096128,1.3018933673,10.4811633042Z"/><path class="cls-3" d="m850.4637170686,338.4556597309l209.8545307291,73.585354931c3.3233696037,1.1653373935,7.0027486839.6821238837,9.9125234739-1.3018134731l49.9554724396-34.3557408065c7.7473701724-5.2822978448.9029306418-13.5345941984-8.1040902412-16.1418897171l-212.2266333829-61.4340254529c-2.4805237869-.7180463594-5.1339085767-.54752395-7.5021146126.4821308482l-43.294527856,27.8560315173c-9.2441817026,4.0192094359-8.1074441478,7.9744760864,1.4048394501,11.3099521532Z"/></g></svg>