<svg version="1.2" xmlns="http://www.w3.org/2000/svg" viewBox="0 0 1050 1100" width="1050" height="1100">
	<title>gphone-svg</title>
	<defs>
		<clipPath clipPathUnits="userSpaceOnUse" id="cp1">
			<path d="m530.3 153.2c-15.43 0-27.9-12.47-27.9-27.9 0-15.43 12.47-27.9 27.9-27.9 15.43 0 27.9 12.47 27.9 27.9 0 15.43-12.47 27.9-27.9 27.9z"/>
		</clipPath>
	</defs>
	<style>
		.s0 { fill: #deac29 } 
		.s1 { fill: #7f7e70 } 
		.s2 { fill: #96584f } 
		.s3 { fill: #c87f73 } 
		.s4 { fill: #202a2c } 
		.s5 { fill: #1b1d29 } 
		.s6 { fill: #fddedb } 
		.s7 { fill: none;stroke: #373151;stroke-linecap: round;stroke-linejoin: round;stroke-width: 4.8 } 
		.s8 { fill: #975f56 } 
		.s9 { fill: none;stroke: #373151;stroke-linecap: round;stroke-linejoin: round;stroke-width: 8.2 } 
		.s10 { fill: none;stroke: #373151;stroke-linecap: round;stroke-linejoin: round;stroke-width: 14.4 } 
		.s11 { fill: none;stroke: #373151;stroke-linecap: round;stroke-linejoin: round;stroke-width: 11.6 } 
		.s12 { fill: none;stroke: #373151;stroke-linecap: round;stroke-linejoin: round;stroke-width: 8.9 } 
		.s13 { fill: #373151 } 
		.s14 { fill: none;stroke: #373151;stroke-linecap: round;stroke-linejoin: round;stroke-width: 11 } 
		.s15 { fill: #ffffff } 
		.s16 { fill: #7c8b8f } 
		.s17 { fill: #347768 } 
		.s18 { opacity: .6;fill: #ffffff } 
		.s19 { fill: #063244 } 
		.s20 { fill: #5c2754 } 
		.s21 { fill: #4da427 } 
		.s22 { fill: #a5a5a5 } 
		.s23 { fill: #ccff9a } 
		.s24 { fill: #fdca47 } 
		.s25 { fill: #ffe8bb } 
		.s26 { fill: #f9b700 } 
		.s27 { fill: #664100 } 
		.s28 { fill: #f49104 } 
		.s29 { fill: #654514 } 
	</style>
	<g id="Capa_2-2">
		<path id="Layer" class="s0" d="m83.4 1053.3c0 0-462.6 691.5-389.6 750 73 58.4 545.4 228.9 618.5 102.3 73.1-126.6 80.4-484.6 80.4-484.6 0 0 41.4-4.9 29.2-36.5-12.2-31.7-9.7-104.7-9.7-104.7 0 0-280.1-211.9-328.8-226.5z"/>
		<path id="Layer" class="s1" d="m535.1 993.6c0 0-275.2-191.1-326.3-191.1 0 0-28 23.1 14.6 48.7 42.6 25.6 228.9 160.7 253.2 160.7 24.3 0 55.2-12.8 58.5-18.3z"/>
		<path id="Layer" class="s2" d="m933.2 649.2c0 0 61.2-8.2 73.5 36.7 12.2 44.9-61.2 39.4-61.2 39.4z"/>
		<path id="Layer" class="s2" d="m932 499.3c0 0 43.8 4.9 57.2 30.4 13.4 25.6-69.4 64.5-69.4 64.5z"/>
		<path id="Layer" class="s2" d="m930.8 383.8c0 0 61.2-8.2 73.5 36.7 12.3 44.9-61.2 39.4-61.2 39.4z"/>
		<path id="Layer" class="s3" d="m289.8 612.5c0 0 329.9-210.6 375-220.4 45.1-9.8 227.7 292.2 187.5 362.8-40.2 70.6-124.2 69.4-163.1 95-38.9 25.6-136.4 99.8-207 81.6-70.6-18.2-28-40.2-69.4-47.5-41.4-7.3-140-69.4-138.8-149.8 1.2-80.3 4.8-92.4 15.8-121.7z"/>
		<path id="Layer" class="s3" d="m299.5 694.1l-220.4 376.8c0 0 306.2 194.8 330.5 160.7 24.3-34.1 118.7-393.9 118.7-393.9 0 0-143.6-166.7-228.8-143.6z"/>
		<path id="Layer" class="s3" d="m276.4 668.6c0 0 29.2-164.4 54.8-189.9 49.5-49.5 45.6-133.6 55.8-197.8 3-18.8 3-60.4 33.5-51.6 17.5 4.6 44.6 25.1 44.6 44.9 0 12.2 2.4 161.9 2.4 161.9l-6.5 61.4c0 0 18.6 20.4 5.2 57-13.4 36.6-113.1 110.4-119.2 111.6-6.1 1.2-70.6 2.5-70.6 2.5z"/>
		<path id="Layer" class="s3" d="m638 410.4l227.7-123c0 0 124.1-70.6 161.9-37.8 7 6.1 13.6 29.7 12.2 38.5-3.8 23.6-40.1 43.2-59 54.6-31.7 19.2-70.2 30.1-100.5 50.6 0 0-168 113.2-186.3 105.9-18.3-7.2-56-88.8-56-88.8z"/>
		<path id="Layer" class="s4" d="m512.8 9.9h373.2c22.4 0 40.5 18.1 40.5 40.5v768.1c0 22.4-18.1 40.5-40.5 40.5h-373.2c-22.4 0-40.5-18.1-40.5-40.5v-768.1c0-22.4 18.1-40.5 40.5-40.5z"/>
		<path id="Layer" fill-rule="evenodd" class="s5" d="m934 40.2v785.3c0 22.2-18 40.2-40.2 40.2h-387.2c-22.2 0-40.2-18-40.2-40.2v-785.3c0-22.2 18-40.2 40.2-40.2h387.2c22.2 0 40.2 18 40.2 40.2zm-13.7 7.3c0-18.7-15.1-33.8-33.8-33.8h-61.2c-7.5 0-14.3 4.3-17.6 11l-1.1 2.2c-3.3 6.7-10.1 11-17.6 11h-177.6c-7.5 0-14.3-4.3-17.6-11l-1.1-2.2c-3.3-6.7-10.1-11-17.6-11h-61.2c-18.7 0-33.8 15.1-33.8 33.8v770.7c0 18.7 15.1 33.8 33.8 33.8h372.6c18.7 0 33.8-15.1 33.8-33.8z"/>
		<path id="Layer" class="s3" d="m985.2 397.4c0 0-35.4-19-55.8 8.2-20.4 27.2-10.9 92.5 49 80.3 0 0 44.9-20.4 25.8-65.3 0.1-0.1 1.4-4.2-19-23.2z"/>
		<path id="Layer" class="s6" d="m963.3 404.6c0 0 25.9 27.8 22.3 59.5 0-0.1 4-1.8 4.3-2 3.6-2.2 6.3-5.5 8.1-9.3 10.7-22.9-7.9-54.5-34.7-48.2z"/>
		<path id="Layer" class="s3" d="m992.7 665.7c0 0-32.7-23.3-56.4 1.1-23.7 24.4-22.4 90.4 38.6 85.7 0 0 47.1-14.6 33.8-61.6 0 0.2 1.9-3.7-16-25.2z"/>
		<path id="Layer" class="s6" d="m971.1 672.5c0 0 20.2 27.6 17.7 59.3 0-0.1 3.1-1.8 3.3-2 2.7-2.2 4.8-5.6 6.2-9.4 8-23-6.7-54.4-27.2-47.9z"/>
		<path id="Layer" class="s3" d="m945 515.3c12.9-4.2 28.9-0.8 40.2 6.3 57.1 36.2-59.9 177.5-93.9 81.1-8.3-23.5 8.8-49.2 24.1-65.6 10-11 19.4-18.5 29.6-21.8z"/>
		<path id="Layer" class="s6" d="m925.6 576.1c0 0 25.1 24.1 20.8 38.3 0 0 42-25.3 27.1-48-18.4-28.3-47.9 9.7-47.9 9.7z"/>
		<path id="Layer" fill-rule="evenodd" class="s7" d="m961.3 404.7c0 0 25.9 27.8 22.3 59.5 0-0.1 4-1.8 4.3-2 3.6-2.2 6.3-5.5 8.1-9.3 10.8-22.9-7.9-54.5-34.7-48.2z"/>
		<path id="Layer" fill-rule="evenodd" class="s7" d="m969.1 672.6c0 0 20.2 27.6 17.7 59.3 0-0.1 3.1-1.8 3.3-2 2.7-2.2 4.8-5.6 6.2-9.4 8-22.9-6.6-54.4-27.2-47.9z"/>
		<path id="Layer" fill-rule="evenodd" class="s7" d="m923.7 576.2c0 0 25.1 24.1 20.8 38.3 0 0 42-25.3 27.1-48-18.5-28.2-47.9 9.7-47.9 9.7z"/>
		<path id="Layer" class="s6" d="m393.9 251.5c0 0 16.9 4.4 16.9 8.1 0 3.7 5.2 58.9-6.6 70-11.8 11-21.4 8.1-21.4 8.1z"/>
		<path id="Layer" class="s8" d="m304.7 750.2c0 0 5.5 77 77 99l44 11c0 0 0 45.8 62.3 51.3 0 0-60.5-20.2-51.3-77 0 0-69.7 34.8-132-84.3z"/>
		<path id="Layer" class="s8" d="m466.9 496.9c0 0-6.1 96.2-13.4 105.9-7.3 9.7 13.4 112 13.4 112z"/>
		<path id="Layer" fill-rule="evenodd" class="s9" d="m935.7 365.4c15.2-6.7 30.4-13.5 44.2-21.9 18.9-11.4 55.2-31 59-54.6 1.4-8.8-5.2-32.4-12.2-38.5-17.4-15.1-53.2-8.3-86.7 3.5"/>
		<path id="Layer" fill-rule="evenodd" class="s9" d="m460.2 498l6.5-61.4c0 0-2.4-149.8-2.4-161.9 0-19.8-27.1-40.2-44.6-44.9-30.5-8.8-30.5 32.8-33.5 51.6-10.2 64.3-6.4 148.4-55.8 197.8-17.4 17.4-36.4 98.8-46.9 149.3-3.5 10.9-5.9 21.6-7.5 38.6-0.2 1.4-0.4 2.1-0.4 2.1 0 0 0.1 0 0.2 0-1.4 15.4-2.2 35.9-2.6 65.7 0 1.3 0 2.7 0 4l-183 332c0 0 304.4 174.7 328.7 140.6 17.4-24.4 47.7-133.7 84.2-276.6 44.8 0.7 96.2-26.5 135.9-51.6"/>
		<path id="Layer" fill-rule="evenodd" class="s9" d="m932.6 401.5c-1.4 1.4-2.8 2.9-4.1 4.7-20.4 27.2-10.9 92.5 49 80.3 0 0 44.9-20.4 25.8-65.3 0 0 0.2-0.6-0.8-2.5-9.4-28.5-39.4-34.1-57.8-34.7"/>
		<path id="Layer" fill-rule="evenodd" class="s9" d="m931.1 672.7c-19 27.5-14.1 84.9 42.9 80.5 0 0 47.1-14.6 33.8-61.6 0 0 0.7-1.4-2.5-6.9-8.9-28.6-38.5-34.6-57.1-35.4"/>
		<path id="Layer" fill-rule="evenodd" class="s9" d="m925.4 526.9c-3.6 3.1-7.3 6.7-11.1 10.7-15.3 16.5-32.4 42.1-24.1 65.6 34.1 96.4 151.1-44.9 93.9-81.1-1.3-0.8-2.7-1.6-4.1-2.3-8.2-7.6-19.4-12.5-28.9-15.5"/>
		<path id="Layer" class="s0" d="m113 987.4c7.3-15.5 13.2-31.2 18.6-41.7 21.5-41.5 40.3-79.7 49-125.4 0 0 6.5-34.3 39.2-11.4 88.8 62.2 178.5 137.2 281.5 174.6 12.7 4.6 41.8 2.1 40.2 21.8-1.2 15.8-15 31.1-21.4 45.1-11.9 25.8-18.8 54.7-26.4 82-8.5 30.4-16.3 61-23 91.8-2.7 12.6-11.8 36-7.4 49 4.9 14.7-22.9 19.6-31.1 16.3-8.2-3.3-385.8-202.7-385.8-222.3 0-19.6 9.8-26.2 22.9-29.4 19.3-4.9 33-27.5 43.7-50.4z"/>
		<path id="Layer" fill-rule="evenodd" class="s10" d="m235.6 806.1c0 0-46.3-18.3-53.6 7.3l-8.5 37.7c0 0-68.2 161.9-88.9 176.5-20.7 14.6-25.6 9.7-32.9 19.5-7.3 9.7-18.3 24.3 42.6 64.5"/>
		<path id="Layer" fill-rule="evenodd" class="s9" d="m216.1 806.1c0 0 196.6 152.5 285.2 177.3"/>
		<path id="Layer" fill-rule="evenodd" class="s11" d="m496.1 965.6c0 0 40.2 23.1 43.8 30.4 3.6 7.3 2.4 20.7-15.8 49.9-18.3 29.2-63.1 196.1-60.8 227.1 0 0-2.6 40.7-68.3 1.8"/>
		<path id="Layer" fill-rule="evenodd" class="s12" d="m328.4 792.4c0 0 45.7 65 108.2 42.1"/>
		<path id="Layer" fill-rule="evenodd" class="s12" d="m465.4 447.3c0 0-11 11.9-24.7 16.4"/>
		<path id="Layer" fill-rule="evenodd" class="s12" d="m193.4 997c-15.7 29.1-33.2 56.9-49.1 71.3"/>
		<path id="Layer" fill-rule="evenodd" class="s12" d="m239.7 898.4c0 0-8.5 20.8-21.3 48.3"/>
		<path id="Layer" fill-rule="evenodd" class="s12" d="m254.7 1308.5c0 0 35.2 77.5 102.8 85.9"/>
		<path id="Layer" fill-rule="evenodd" class="s12" d="m512 1007c0 0-6.4 17.3-11.9 25.6-5.5 8.3-59.4 188.1-59.4 220.1"/>
		<path id="Layer" fill-rule="evenodd" class="s9" d="m393 249.8c0 0 17.5 7 17.9 9.8 0.4 2.8 14.9 82.6-28 78.1"/>
		<path id="Layer" class="s13" d="m330 526.7c-0.2 8.3-2.5 16.4-6.6 23.7-0.7 1.1 1.1 2.2 1.8 1 4.3-7.5 6.7-16 6.9-24.7 0-1.3-2.1-1.3-2.1 0z"/>
		<path id="Layer" class="s13" d="m266.8 787.2c2.4 3.8 4.9 7.5 7.3 11.3 0.7 1.1 2.5 0.1 1.8-1-2.4-3.8-4.9-7.5-7.3-11.3-0.7-1.1-2.5-0.1-1.8 1z"/>
		<path id="Layer" class="s13" d="m272.3 784.5c1.5 2.8 3.1 5.6 4.6 8.4 0.6 1.2 2.4 0.1 1.8-1-1.5-2.8-3.1-5.6-4.6-8.4-0.6-1.2-2.4-0.2-1.8 1z"/>
		<path id="Layer" class="s13" d="m587.3 882h0.9c0.1 0 0.3 0 0.4-0.1 0.1 0 0.2-0.1 0.3-0.2 0.1-0.1 0.2-0.2 0.2-0.3 0.1-0.1 0.1-0.3 0.1-0.4v-0.3c0-0.2-0.1-0.3-0.3-0.5l-0.2-0.2c-0.2-0.1-0.3-0.1-0.5-0.1h-0.9c-0.1 0-0.3 0-0.4 0.1-0.1 0-0.2 0.1-0.3 0.2-0.1 0.1-0.2 0.2-0.2 0.3-0.1 0.1-0.1 0.3-0.1 0.4v0.3c0 0.2 0.1 0.3 0.3 0.5l0.2 0.2c0.1 0.1 0.3 0.1 0.5 0.1z"/>
		<path id="Layer" class="s13" d="m589.6 875.2c0.6 0.3 1.2 0.6 1.9 0.9 0.2 0.1 0.5 0.2 0.8 0.1 0.2-0.1 0.5-0.2 0.6-0.5 0.1-0.2 0.2-0.5 0.1-0.8-0.1-0.2-0.2-0.5-0.5-0.6-0.6-0.3-1.2-0.6-1.9-0.9-0.2-0.1-0.5-0.2-0.8-0.1-0.2 0.1-0.5 0.2-0.6 0.5-0.1 0.2-0.2 0.5-0.1 0.8 0.1 0.3 0.3 0.5 0.5 0.6z"/>
		<path id="Layer" class="s13" d="m974.7 531.1c6.6 3.1 12 8.4 15.2 14.9 0.6 1.2 2.4 0.1 1.8-1-3.4-6.8-9.1-12.4-15.9-15.6-1.2-0.7-2.3 1.1-1.1 1.7z"/>
		<path id="Layer" class="s13" d="m972.7 536.9l3.7 2.8c0.2 0.1 0.6 0.2 0.8 0.1 0.2-0.1 0.5-0.2 0.6-0.5 0.1-0.2 0.2-0.5 0.1-0.8-0.1-0.3-0.2-0.4-0.5-0.6l-3.7-2.8c-0.2-0.1-0.6-0.2-0.8-0.1-0.2 0.1-0.5 0.2-0.6 0.5-0.1 0.2-0.2 0.5-0.1 0.8 0.1 0.3 0.3 0.4 0.5 0.6z"/>
		<path id="Layer" class="s13" d="m958.8 404.7c-2.2-1-4.3-1.9-6.5-2.9-0.5-0.2-1.1-0.2-1.4 0.4-0.2 0.4-0.2 1.2 0.4 1.4 2.2 1 4.3 1.9 6.5 2.9 0.5 0.2 1.1 0.2 1.4-0.4 0.2-0.4 0.1-1.2-0.4-1.4z"/>
		<path id="Layer" class="s13" d="m1111.2 409.3c1.3 0 1.3-2.1 0-2.1-1.3 0.1-1.3 2.1 0 2.1z"/>
		<path id="Layer" class="s13" d="m964.7 674.2c-2.2-2.3-5.1-3.6-8.2-4-0.6-0.1-1 0.5-1 1 0 0.6 0.5 1 1 1 1.1 0.1 2.5 0.5 3.6 1.1 1.2 0.6 2.2 1.3 3.1 2.3 0.4 0.4 1.1 0.4 1.5 0 0.4-0.4 0.3-1 0-1.4z"/>
		<path id="Layer" class="s13" d="m973.2 662.9c0.9 0 1.9 0 2.8 0 0.5 0 1.1-0.5 1-1 0-0.6-0.5-1-1-1-0.9 0-1.9 0-2.8 0-0.5 0-1.1 0.5-1 1 0 0.5 0.5 1 1 1z"/>
		<path id="Layer" class="s13" d="m45.7 1201.8c3.8 5.3 6.2 11.5 6.9 17.9 0.1 1.3 2.2 1.3 2.1 0-0.7-6.8-3.1-13.4-7.2-19-0.8-1-2.6 0.1-1.8 1.1z"/>
		<path id="Layer" class="s13" d="m55.4 1196.3q2.7 7.4 5.4 14.7c0.5 1.2 2.4 0.7 2-0.5q-2.7-7.3-5.4-14.7c-0.4-1.3-2.4-0.8-2 0.5z"/>
		<path id="Layer" fill-rule="evenodd" class="s9" d="m53.9 1089.2c0 0-212.2 348.8-287.1 476.6l-25.6 45.7"/>
		<path id="Layer" fill-rule="evenodd" class="s14" d="m410.9 1288.3c0 0 3.7 71.8 7.3 84 3.6 12.2 3.7 13.4 3.7 19.5 0 6.1-2.4 31.7-29.2 29.2-26.8-2.4-29.2-6.1-29.2-6.1"/>
		<path id="Layer" fill-rule="evenodd" class="s14" d="m392.7 1421c0 0-2.4 371.3-63.3 443.2"/>
		<path id="Layer" fill-rule="evenodd" class="s15" d="m703 816.3h-13.7c-3.7 0-6.7-3-6.7-6.7v-13.7c0-3.7 3-6.7 6.7-6.7h13.7c3.7 0 6.7 3 6.7 6.7v13.7c0 3.7-3 6.7-6.7 6.7zm-13.7-23.7c-1.8 0-3.3 1.5-3.3 3.3v13.7c0 1.8 1.5 3.3 3.3 3.3h13.7c1.8 0 3.3-1.5 3.3-3.3v-13.7c0-1.8-1.5-3.3-3.3-3.3z"/>
		<path id="Layer" class="s15" d="m829.6 816.3c-0.5 0-1-0.2-1.4-0.7-0.6-0.8-0.4-1.8 0.3-2.4l12-9.2c0.5-0.4 0.8-0.9 0.8-1.4 0-0.5-0.3-1-0.8-1.4l-12-9.2c-0.8-0.6-0.9-1.7-0.3-2.4 0.6-0.8 1.7-0.9 2.4-0.3l12 9.2c1.4 1 2.1 2.5 2.1 4.1 0 1.6-0.8 3-2.1 4.1l-12 9.2c-0.3 0.3-0.6 0.4-1 0.4z"/>
		<path id="Layer" class="s15" d="m573 794.5h-23.7c-0.9 0-1.7-0.8-1.7-1.7 0-0.9 0.8-1.7 1.7-1.7h23.7c0.9 0 1.7 0.8 1.7 1.7 0 0.9-0.8 1.7-1.7 1.7z"/>
		<path id="Layer" class="s15" d="m573 804.4h-23.7c-0.9 0-1.7-0.8-1.7-1.7 0-0.9 0.8-1.7 1.7-1.7h23.7c0.9 0 1.7 0.8 1.7 1.7 0 0.9-0.8 1.7-1.7 1.7z"/>
		<path id="Layer" class="s15" d="m573 814.3h-23.7c-0.9 0-1.7-0.8-1.7-1.7 0-0.9 0.8-1.7 1.7-1.7h23.7c0.9 0 1.7 0.8 1.7 1.7 0 0.9-0.8 1.7-1.7 1.7z"/>
		<path id="Layer" class="s16" d="m486.7 843.9h391.8v2.4h-391.8z"/>
		<path id="Layer" class="s17" d="m481.2 84.5h436.1v82.7h-436.1z"/>
		<path id="Layer" class="s15" d="m503.5 58.2h1.7v14.7h-1.7z"/>
		<path id="Layer" class="s15" d="m499.6 62.4h1.7v10.4h-1.7z"/>
		<path id="Layer" class="s15" d="m495.8 66.3h1.7v6.5h-1.7z"/>
		<path id="Layer" class="s15" d="m491.9 69.4h1.7v3.4h-1.7z"/>
		<path id="Layer" class="s15" d="m511.2 63.8c-0.1 0-0.3 0-0.4-0.1-0.1-0.1-0.2-0.3-0.3-0.4 0-0.2 0-0.4 0.1-0.5 1.7-2.5 4.5-4 7.5-4 3 0 5.8 1.5 7.4 4 0.1 0.1 0.1 0.3 0.1 0.5 0 0.2-0.1 0.3-0.3 0.4-0.1 0.1-0.2 0.1-0.4 0.1q-0.3 0-0.6-0.3c-1.4-2.1-3.8-3.4-6.3-3.4-2.5 0-4.9 1.3-6.3 3.4-0.1 0.1-0.3 0.3-0.5 0.3z"/>
		<path id="Layer" class="s15" d="m512.5 66.2c-0.1 0-0.3 0-0.4-0.1-0.1-0.1-0.3-0.3-0.3-0.4 0-0.2 0-0.4 0.1-0.5 1.4-2 3.7-3.3 6.1-3.3 2.4 0 4.7 1.2 6.1 3.2 0.2 0.3 0.1 0.7-0.2 0.9-0.1 0.1-0.2 0.1-0.4 0.1q-0.3 0-0.6-0.3c-1.1-1.7-3-2.7-5-2.7-2 0-3.9 1-5 2.7 0.1 0.3-0.1 0.4-0.4 0.4z"/>
		<path id="Layer" class="s15" d="m514.5 68.4c-0.1 0-0.3 0-0.4-0.1-0.3-0.2-0.4-0.6-0.2-0.9 0.9-1.4 2.5-2.2 4.1-2.2 1.7 0 3.2 0.8 4.1 2.2 0.2 0.3 0.1 0.7-0.2 0.9-0.1 0.1-0.2 0.1-0.4 0.1q-0.3 0-0.6-0.3c-0.7-1-1.8-1.6-3-1.6-1.2 0-2.3 0.6-3 1.6 0 0.2-0.2 0.3-0.4 0.3z"/>
		<path id="Layer" class="s15" d="m518.1 72.2c-1.1 0-2-0.9-2-2 0-1.1 0.9-2 2-2 1.1 0 2 0.9 2 2 0 1.1-0.9 2-2 2z"/>
		<path id="Layer" class="s18" d="m874.5 66.3h2.4v-7.8h-2.4v-1.7h-18.3v11.2h18.3z"/>
		<path id="Layer" class="s15" d="m856.2 56.8h13.7v11.2h-13.7z"/>
		<g id="Layer">
			<path id="Layer" class="s15" d="m540.4 71.1h-7.4v-1.3l2.9-2.9c0.6-0.6 1-1 1.4-1.5 0.4-0.4 0.6-0.8 0.8-1.2q0.3-0.6 0.3-1.2c0-0.5-0.2-0.9-0.5-1.2-0.3-0.3-0.7-0.4-1.2-0.4-0.5 0-0.9 0.1-1.3 0.3-0.4 0.2-0.8 0.5-1.3 0.8l-1-1.2c0.3-0.3 0.6-0.5 1-0.7 0.4-0.2 0.7-0.4 1.2-0.5 0.4-0.1 0.9-0.2 1.5-0.2 0.7 0 1.3 0.1 1.8 0.4 0.5 0.2 0.9 0.6 1.2 1 0.3 0.4 0.4 1 0.4 1.5 0 0.6-0.1 1.1-0.4 1.6-0.2 0.5-0.6 1-1 1.5-0.4 0.5-1 1-1.6 1.6l-1.9 1.9v0.1h5.2v1.6z"/>
			<path id="Layer" class="s15" d="m546.9 71.1h-1.8v-7.1c0-0.2 0-0.5 0-0.7 0-0.2 0-0.5 0-0.7q0-0.3 0-0.6c-0.1 0.1-0.2 0.2-0.4 0.4-0.2 0.1-0.3 0.3-0.5 0.4l-1.3 1-0.9-1.1 3.3-2.6h1.5v11z"/>
			<path id="Layer" class="s15" d="m550.9 63.7q0-0.6 0.3-0.9c0.2-0.2 0.5-0.3 0.8-0.3 0.3 0 0.6 0.1 0.8 0.3q0.3 0.3 0.3 0.9 0 0.6-0.3 0.9c-0.2 0.2-0.5 0.3-0.8 0.3-0.3 0-0.6-0.1-0.8-0.3q-0.3-0.3-0.3-0.9zm0 6.5q0-0.6 0.3-0.9c0.2-0.2 0.5-0.3 0.8-0.3 0.3 0 0.6 0.1 0.8 0.3q0.3 0.3 0.3 0.9 0 0.6-0.3 0.9c-0.2 0.2-0.5 0.3-0.8 0.3-0.3 0-0.6-0.1-0.8-0.3q-0.3-0.3-0.3-0.9z"/>
			<path id="Layer" class="s15" d="m560 71.1h-1.8v-7.1c0-0.2 0-0.5 0-0.7 0-0.2 0-0.5 0-0.7q0-0.3 0-0.6c-0.1 0.1-0.2 0.2-0.4 0.4-0.2 0.1-0.3 0.3-0.5 0.4l-1.3 1-0.9-1.1 3.3-2.6h1.5v11z"/>
			<path id="Layer" fill-rule="evenodd" class="s15" d="m567.3 60c0.6 0 1.2 0.1 1.7 0.3q0.8 0.3 1.2 0.9c0.3 0.4 0.5 0.9 0.5 1.5q0 0.6-0.3 1.2c-0.2 0.3-0.4 0.6-0.7 0.9-0.3 0.2-0.7 0.5-1 0.7 0.4 0.2 0.8 0.5 1.2 0.7 0.4 0.3 0.7 0.6 0.9 1 0.2 0.4 0.3 0.8 0.3 1.3 0 0.6-0.2 1.1-0.5 1.6-0.3 0.4-0.7 0.8-1.3 1-0.6 0.2-1.2 0.4-1.9 0.4-0.8 0-1.5-0.1-2-0.4-0.5-0.3-1-0.6-1.3-1-0.3-0.4-0.4-1-0.4-1.6 0-0.5 0.1-0.9 0.3-1.3 0.2-0.4 0.5-0.7 0.8-1 0.3-0.3 0.7-0.5 1.1-0.7-0.3-0.2-0.7-0.4-0.9-0.7-0.3-0.3-0.5-0.6-0.7-0.9q-0.3-0.4-0.3-1.2c0-0.6 0.2-1.1 0.5-1.4 0.3-0.3 0.7-0.7 1.2-0.9 0.5-0.2 1-0.4 1.6-0.4zm-2.1 8.3c0 0.5 0.2 0.9 0.5 1.2 0.3 0.3 0.8 0.5 1.5 0.5 0.7 0 1.2-0.2 1.5-0.5 0.3-0.3 0.5-0.7 0.5-1.2 0-0.3-0.1-0.6-0.3-0.8-0.2-0.2-0.4-0.5-0.7-0.7-0.3-0.2-0.6-0.4-1-0.5l-0.2-0.1c-0.4 0.2-0.7 0.4-1 0.6-0.3 0.2-0.5 0.4-0.7 0.7 0 0.1-0.1 0.4-0.1 0.8zm2.1-7c-0.5 0-0.9 0.1-1.2 0.4-0.3 0.2-0.5 0.6-0.5 1 0 0.3 0.1 0.6 0.2 0.8q0.3 0.3 0.6 0.6c0.3 0.2 0.5 0.3 0.9 0.5 0.3-0.1 0.6-0.3 0.8-0.4 0.2-0.1 0.4-0.4 0.6-0.6 0.1-0.2 0.2-0.5 0.2-0.8 0-0.4-0.2-0.8-0.5-1-0.2-0.4-0.6-0.5-1.1-0.5z"/>
		</g>
		<g id="Layer">
			<path id="Layer" fill-rule="evenodd" class="s15" d="m824.6 57.9c0.6 0 1.2 0.1 1.7 0.3q0.7 0.3 1.2 0.9c0.3 0.4 0.5 0.9 0.5 1.5q0 0.6-0.3 1.2c-0.2 0.3-0.4 0.6-0.7 0.9-0.3 0.2-0.7 0.5-1 0.7 0.4 0.2 0.8 0.5 1.2 0.7 0.4 0.3 0.7 0.6 0.9 1 0.2 0.4 0.3 0.8 0.3 1.3 0 0.6-0.2 1.1-0.5 1.6-0.3 0.4-0.7 0.8-1.3 1-0.6 0.2-1.2 0.4-1.9 0.4-0.8 0-1.5-0.1-2-0.4-0.5-0.3-1-0.6-1.3-1-0.3-0.4-0.4-1-0.4-1.6 0-0.5 0.1-0.9 0.3-1.3 0.2-0.4 0.5-0.7 0.8-1 0.3-0.3 0.7-0.5 1.1-0.7-0.3-0.2-0.7-0.4-0.9-0.7-0.3-0.3-0.5-0.6-0.7-0.9q-0.3-0.5-0.3-1.2c0-0.6 0.2-1.1 0.5-1.4 0.3-0.3 0.7-0.7 1.2-0.9 0.5-0.2 0.9-0.4 1.6-0.4zm-2.1 8.2c0 0.5 0.2 0.9 0.5 1.2 0.3 0.3 0.8 0.5 1.5 0.5 0.7 0 1.2-0.2 1.5-0.5 0.3-0.3 0.5-0.7 0.5-1.2 0-0.3-0.1-0.6-0.3-0.8-0.2-0.2-0.4-0.5-0.7-0.7-0.3-0.2-0.6-0.4-1-0.5l-0.2-0.1c-0.4 0.2-0.7 0.4-1 0.6-0.3 0.2-0.5 0.4-0.7 0.7 0 0.2-0.1 0.5-0.1 0.8zm2-6.9c-0.5 0-0.9 0.1-1.2 0.4-0.3 0.2-0.5 0.6-0.5 1 0 0.3 0.1 0.6 0.2 0.8q0.3 0.3 0.6 0.6c0.3 0.2 0.5 0.3 0.9 0.5 0.3-0.1 0.6-0.3 0.8-0.4 0.2-0.1 0.4-0.4 0.6-0.6 0.1-0.2 0.2-0.5 0.2-0.8 0-0.4-0.2-0.8-0.5-1-0.1-0.4-0.6-0.5-1.1-0.5z"/>
			<path id="Layer" class="s15" d="m833.4 62.1c0.7 0 1.3 0.1 1.9 0.4 0.6 0.3 1 0.6 1.3 1.1 0.3 0.5 0.5 1.1 0.5 1.8 0 0.8-0.2 1.4-0.5 2-0.3 0.6-0.8 1-1.4 1.3-0.6 0.3-1.4 0.5-2.3 0.5-0.6 0-1.1 0-1.6-0.2-0.5-0.2-0.9-0.3-1.3-0.5v-1.5c0.4 0.2 0.8 0.4 1.4 0.5 0.6 0.1 1 0.2 1.5 0.2 0.5 0 1-0.1 1.3-0.2 0.4-0.2 0.6-0.4 0.8-0.7q0.3-0.4 0.3-1.2 0-0.9-0.6-1.5c-0.4-0.3-1-0.5-1.9-0.5-0.3 0-0.6 0-1 0.1-0.3 0.1-0.6 0.1-0.8 0.2l-0.8-0.5 0.4-5.4h5.7v1.6h-4.2l-0.2 2.7c0.2 0 0.4-0.1 0.6-0.1 0.2 0 0.5-0.1 0.9-0.1z"/>
			<path id="Layer" fill-rule="evenodd" class="s15" d="m840.8 57.9q1.2 0 1.8 0.9c0.4 0.6 0.6 1.4 0.6 2.5 0 1.1-0.2 1.9-0.6 2.5-0.4 0.6-1 0.9-1.9 0.9q-1.2 0-1.8-0.9c-0.4-0.6-0.6-1.5-0.6-2.5 0-1.1 0.2-1.9 0.6-2.5 0.5-0.6 1.1-0.9 1.9-0.9zm0 1.2c-0.3 0-0.6 0.2-0.7 0.5-0.2 0.4-0.2 0.9-0.2 1.7 0 0.7 0.1 1.3 0.2 1.7 0.2 0.4 0.4 0.6 0.7 0.6 0.3 0 0.6-0.2 0.7-0.6 0.1-0.4 0.2-0.9 0.2-1.7 0-0.7-0.1-1.3-0.2-1.7-0.1-0.3-0.3-0.5-0.7-0.5zm7.4-1.1l-6.1 11h-1.5l6.1-11zm-0.2 4.3q1.2 0 1.8 0.9c0.4 0.6 0.6 1.4 0.6 2.5 0 1.1-0.2 1.9-0.6 2.5-0.4 0.6-1 0.9-1.9 0.9q-1.2 0-1.8-0.9c-0.4-0.6-0.6-1.5-0.6-2.5 0-1.1 0.2-1.9 0.6-2.5 0.5-0.6 1.1-0.9 1.9-0.9zm0 1.2c-0.3 0-0.6 0.2-0.7 0.5-0.2 0.4-0.2 0.9-0.2 1.7 0 0.7 0.1 1.3 0.2 1.7 0.2 0.4 0.4 0.6 0.7 0.6 0.3 0 0.6-0.2 0.7-0.6 0.1-0.4 0.2-0.9 0.2-1.7 0-0.7-0.1-1.3-0.2-1.7-0.1-0.3-0.4-0.5-0.7-0.5z"/>
		</g>
		<g id="Layer">
			<path id="Layer" class="s15" d="m676 196.4h-2.5v-6.9h-7.1v6.9h-2.5v-15.4h2.5v6.3h7.1v-6.3h2.5z"/>
		</g>
		<g id="Layer">
			<path id="Layer" fill-rule="evenodd" class="s15" d="m687.1 190.6c0 1-0.1 1.8-0.4 2.6-0.3 0.8-0.6 1.4-1.1 1.9-0.5 0.5-1.1 0.9-1.7 1.2-0.7 0.3-1.4 0.4-2.3 0.4-0.8 0-1.5-0.1-2.2-0.4-0.7-0.3-1.2-0.7-1.7-1.2-0.5-0.5-0.9-1.1-1.1-1.9-0.3-0.7-0.4-1.6-0.4-2.6 0-1.3 0.2-2.4 0.7-3.3 0.4-0.9 1.1-1.6 1.9-2 0.8-0.5 1.8-0.7 3-0.7 1.1 0 2 0.2 2.8 0.7 0.8 0.5 1.5 1.2 1.9 2 0.4 0.8 0.6 2 0.6 3.3zm-8.4 0c0 0.8 0.1 1.6 0.3 2.2 0.2 0.6 0.5 1.1 1 1.4 0.4 0.3 1 0.5 1.7 0.5 0.7 0 1.2-0.2 1.7-0.5 0.4-0.3 0.8-0.8 1-1.4 0.2-0.6 0.3-1.3 0.3-2.2 0-0.9-0.1-1.6-0.3-2.2-0.2-0.6-0.5-1-1-1.4-0.5-0.4-1-0.5-1.7-0.5-1 0-1.8 0.3-2.2 1-0.6 0.8-0.8 1.8-0.8 3.1z"/>
		</g>
		<g id="Layer">
			<path id="Layer" class="s15" d="m685.9 184.8h2.7l2.4 6.6q0.2 0.5 0.3 0.9c0.1 0.3 0.2 0.6 0.2 0.9 0.1 0.3 0.1 0.6 0.2 0.8h0.1q0.2-0.6 0.3-1.2c0.1-0.5 0.3-0.9 0.4-1.4l2.3-6.6h2.7l-5 13.2c-0.3 0.8-0.6 1.4-1.1 1.9q-0.6 0.8-1.5 1.2c-0.6 0.3-1.2 0.4-1.9 0.4-0.3 0-0.7 0-0.9-0.1-0.3 0-0.5-0.1-0.7-0.1v-2c0.1 0 0.3 0.1 0.6 0.1 0.2 0 0.5 0 0.7 0 0.4 0 0.8-0.1 1.1-0.3 0.3-0.2 0.6-0.4 0.8-0.7 0.2-0.3 0.4-0.7 0.6-1.1l0.4-1.1z"/>
		</g>
		<g id="Layer">
			<path id="Layer" class="s15" d="m576.1 118.1h3.8l6.7 16.9c0.1 0.3 0.2 0.6 0.3 1 0.1 0.3 0.2 0.7 0.3 1h0.1c0.1-0.3 0.2-0.6 0.3-1 0.1-0.3 0.2-0.7 0.3-1l6.7-16.9h3.8v22.4h-2.9v-16.2c0-0.3 0-0.7 0-1 0-0.4 0-0.7 0.1-1h-0.1c-0.1 0.3-0.2 0.7-0.3 1-0.1 0.4-0.2 0.7-0.4 1l-6.4 16.2h-2.4l-6.4-16.2c-0.1-0.3-0.2-0.7-0.4-1-0.1-0.4-0.2-0.7-0.3-1h-0.1c0 0.3 0.1 0.7 0.1 1 0 0.4 0 0.7 0 1v16.2h-2.8z"/>
			<path id="Layer" fill-rule="evenodd" class="s15" d="m604.5 131.9c1.3-0.9 3-1.4 5-1.4h3.7v-1.1c0-1-0.3-1.8-0.8-2.4-0.5-0.6-1.4-0.9-2.6-0.9-1.2 0-2.1 0.3-2.6 0.8-0.5 0.5-0.8 1.1-0.8 1.8v0.1h-2.9v-0.1c0-1.3 0.6-2.4 1.7-3.4 1.1-1 2.7-1.4 4.6-1.4 2 0 3.5 0.5 4.5 1.4 1.1 0.9 1.6 2.3 1.6 4.2v7.4c0 0.7 0.1 1.3 0.2 1.9 0.1 0.6 0.2 1.1 0.4 1.6v0.2h-2.8c-0.1-0.3-0.3-0.6-0.4-1-0.1-0.4-0.2-0.8-0.2-1.2q-0.6 1-1.8 1.8c-0.8 0.5-1.9 0.8-3.3 0.8-1.5 0-2.9-0.4-3.9-1.3-1.1-0.9-1.6-2.1-1.6-3.8 0-1.8 0.7-3.1 2-4zm1.7 5.8c0.5 0.5 1.4 0.8 2.5 0.8 1.1 0 2.2-0.4 3.1-1.2 0.9-0.8 1.4-1.6 1.4-2.5v-2.3h-3.4c-1.4 0-2.5 0.3-3.3 0.8-0.7 0.5-1.1 1.3-1.1 2.2 0 1 0.2 1.7 0.8 2.2z"/>
		</g>
		<g id="Layer">
			<path id="Layer" class="s15" d="m620.4 124.3h2.6l0.1 2.1h0.1c0.4-0.7 1-1.3 1.6-1.8 0.7-0.5 1.5-0.8 2.4-0.8 0.2 0 0.5 0 0.7 0.1 0.2 0.1 0.4 0.1 0.5 0.1v2.7c-0.2 0-0.4-0.1-0.6-0.1-0.2 0-0.5 0-0.7 0-0.9 0-1.7 0.2-2.4 0.7-0.6 0.5-1.1 1.1-1.4 1.8v11.4h-2.9z"/>
		</g>
		<g id="Layer">
			<path id="Layer" class="s15" d="m630 144.5c0.3 0.1 0.6 0.1 0.9 0.2 0.3 0.1 0.6 0.1 1 0.1 0.7 0 1.3-0.3 1.9-0.8 0.5-0.5 1.1-1.7 1.7-3.5l-6-16.1h2.8l3.7 10.6c0.1 0.4 0.3 0.8 0.4 1.2 0.1 0.4 0.2 0.7 0.3 1h0.1c0.1-0.3 0.2-0.6 0.3-1 0.1-0.4 0.2-0.7 0.4-1.2l3.6-10.7h2.7l-6.6 18.4c-0.5 1.4-1.2 2.6-2 3.4-0.8 0.8-1.9 1.2-3.1 1.2-0.4 0-0.8 0-1.1-0.1-0.3-0.1-0.6-0.1-0.9-0.2v-2.5z"/>
			<path id="Layer" class="s15" d="m653.2 128.6c0-3.5 0.9-6.1 2.7-8.1 1.8-1.9 4-2.9 6.7-2.9 2.7 0 4.8 0.7 6.3 2.2 1.5 1.5 2.3 3.2 2.3 5.3v0.2h-3v-0.2c0-1.4-0.5-2.6-1.4-3.6-0.9-1-2.3-1.4-4.2-1.4-1.8 0-3.4 0.7-4.5 2.1-1.2 1.4-1.8 3.5-1.8 6.4v1.4c0 2.6 0.6 4.7 1.8 6.2 1.2 1.5 2.7 2.3 4.6 2.3 1.8 0 3.1-0.5 4-1.4 0.9-1 1.4-2.1 1.6-3.5v-0.2h3v0.2c-0.2 2.1-1 3.8-2.4 5.3-1.4 1.5-3.4 2.2-6.1 2.2-2.7 0-4.9-1-6.7-2.9q-2.7-2.9-2.7-8.1v-1.5z"/>
			<path id="Layer" fill-rule="evenodd" class="s15" d="m673.7 132.1q0-3.6 2.1-6c1.4-1.6 3.2-2.3 5.6-2.3 2.3 0 4.2 0.8 5.6 2.3q2.1 2.4 2.1 6v0.5q0 3.6-2.1 6c-1.4 1.6-3.2 2.3-5.6 2.3-2.3 0-4.2-0.8-5.6-2.3-1.4-1.5-2.1-3.6-2.1-6zm2.9 0.5q0 2.5 1.2 4.2c0.8 1.2 2 1.7 3.5 1.7 1.6 0 2.7-0.6 3.5-1.7q1.2-1.8 1.2-4.2v-0.5q0-2.6-1.2-4.2c-0.8-1.2-2-1.7-3.5-1.7-1.6 0-2.7 0.6-3.5 1.7q-1.2 1.8-1.2 4.2z"/>
			<path id="Layer" fill-rule="evenodd" class="s15" d="m691.6 132.1q0-3.6 2.1-6c1.4-1.6 3.2-2.3 5.6-2.3 2.3 0 4.2 0.8 5.6 2.3q2.1 2.4 2.1 6v0.5q0 3.6-2.1 6c-1.4 1.6-3.2 2.3-5.6 2.3-2.3 0-4.2-0.8-5.6-2.3-1.4-1.5-2.1-3.6-2.1-6zm3 0.5q0 2.5 1.2 4.2c0.8 1.2 2 1.7 3.5 1.7 1.6 0 2.7-0.6 3.5-1.7q1.2-1.8 1.2-4.2v-0.5q0-2.6-1.2-4.2c-0.8-1.2-2-1.7-3.5-1.7-1.6 0-2.7 0.6-3.5 1.7q-1.2 1.8-1.2 4.2z"/>
			<path id="Layer" class="s15" d="m710.5 116.8h2.9v14.9l6.9-7.5h3.3l-10.2 10.8v5.4h-2.9zm4.1 15.3l1.8-2 7.9 10.4h-3.4z"/>
			<path id="Layer" class="s15" d="m726.6 118.2c0.3-0.3 0.8-0.5 1.3-0.5 0.5 0 1 0.2 1.3 0.5 0.3 0.3 0.5 0.7 0.5 1.2 0 0.5-0.2 0.9-0.5 1.2-0.3 0.3-0.8 0.5-1.3 0.5-0.5 0-1-0.2-1.3-0.5-0.3-0.3-0.5-0.7-0.5-1.2 0-0.5 0.2-0.9 0.5-1.2zm-0.1 6.1h2.9v16.2h-2.9z"/>
			<path id="Layer" class="s15" d="m733.1 132.1c0-2.4 0.7-4.4 2-6 1.3-1.6 3.1-2.3 5.3-2.3 2.2 0 3.9 0.7 5.1 2.2 1.2 1.4 1.8 3.4 1.8 5.9v1.2h-12.5v-2.3h9.6v-0.4c0-1.2-0.3-2.2-1-3-0.7-0.8-1.6-1.2-2.9-1.2-1.5 0-2.7 0.6-3.4 1.7-0.7 1.1-1.1 2.6-1.1 4.2v0.5q0 2.5 1.2 4.2c0.8 1.2 2 1.7 3.7 1.7 1 0 1.9-0.2 2.7-0.7 0.8-0.5 1.3-1 1.8-1.6l1.8 1.5c-0.5 0.8-1.3 1.5-2.4 2.2-1.1 0.7-2.4 1-3.9 1-2.5 0-4.4-0.8-5.8-2.3-1.3-1.6-2-3.6-2-6z"/>
			<path id="Layer" class="s15" d="m752.7 135.7c0 1 0.3 1.7 1 2.2 0.7 0.5 1.6 0.7 2.7 0.7 1.1 0 2-0.2 2.7-0.7 0.7-0.5 1-1 1-1.8 0-0.7-0.3-1.3-0.8-1.7-0.5-0.4-1.7-0.8-3.4-1.2-1.7-0.4-3.1-1-4.2-1.7-1-0.7-1.5-1.8-1.5-3.1 0-1.3 0.6-2.4 1.7-3.3 1.1-0.9 2.6-1.3 4.4-1.3 1.8 0 3.3 0.4 4.5 1.3 1.1 0.9 1.7 2.1 1.7 3.6v0.1h-2.9v-0.1c0-0.8-0.3-1.4-0.8-1.8-0.5-0.4-1.4-0.7-2.5-0.7-1.1 0-2 0.2-2.5 0.6-0.5 0.4-0.8 0.9-0.8 1.5q0 0.9 0.9 1.5c0.6 0.4 1.8 0.7 3.5 1.2 1.7 0.4 3.1 1 4 1.8 1 0.8 1.4 1.9 1.4 3.3 0 1.4-0.5 2.6-1.6 3.5-1.1 0.9-2.7 1.4-4.9 1.4-2.2 0-3.8-0.5-4.9-1.4-1.1-0.9-1.7-2.2-1.7-3.8v-0.1z"/>
		</g>
		<path id="Layer" class="s15" d="m879.7 236.9l-26.3-22h44.3z"/>
		<g id="Layer">
			<path id="Layer" class="s15" d="m547.6 299.1h-1.8v-7c0-0.2 0-0.5 0-0.7 0-0.2 0-0.5 0-0.7q0-0.3 0-0.6c-0.1 0.1-0.2 0.2-0.4 0.4-0.2 0.1-0.3 0.3-0.5 0.4l-1.3 1-0.9-1.1 3.2-2.5h1.5v10.8z"/>
			<path id="Layer" class="s15" d="m551.5 291.8q0-0.6 0.3-0.9c0.2-0.2 0.5-0.3 0.8-0.3 0.3 0 0.6 0.1 0.8 0.3q0.3 0.3 0.3 0.9 0 0.6-0.3 0.9c-0.2 0.2-0.5 0.3-0.8 0.3-0.3 0-0.6-0.1-0.8-0.3q-0.3-0.3-0.3-0.9zm0 6.4q0-0.6 0.3-0.9c0.2-0.2 0.5-0.2 0.8-0.2 0.3 0 0.6 0.1 0.8 0.2q0.3 0.3 0.3 0.9 0 0.6-0.3 0.9c-0.2 0.2-0.5 0.3-0.8 0.3-0.3 0-0.6-0.1-0.8-0.3q-0.3-0.3-0.3-0.9z"/>
			<path id="Layer" fill-rule="evenodd" class="s15" d="m562.7 293.6c0 0.9-0.1 1.7-0.2 2.4-0.1 0.7-0.4 1.3-0.6 1.8-0.3 0.5-0.7 0.9-1.2 1.1-0.5 0.3-1 0.4-1.7 0.4-0.8 0-1.5-0.2-2.1-0.7-0.5-0.4-1-1.1-1.2-1.9-0.3-0.8-0.4-1.8-0.4-3 0-1.2 0.1-2.2 0.4-3 0.3-0.8 0.6-1.5 1.2-1.9 0.5-0.4 1.3-0.7 2.2-0.7 0.8 0 1.5 0.2 2.1 0.7 0.5 0.4 1 1.1 1.2 1.9 0.2 0.8 0.3 1.8 0.3 2.9zm-5.6 0c0 0.9 0.1 1.7 0.2 2.3 0.1 0.6 0.3 1.1 0.6 1.4 0.3 0.3 0.7 0.5 1.1 0.5 0.4 0 0.9-0.2 1.1-0.5 0.3-0.3 0.5-0.8 0.6-1.4 0.1-0.6 0.2-1.4 0.2-2.3 0-0.9-0.1-1.7-0.2-2.3-0.1-0.6-0.3-1.1-0.6-1.4-0.3-0.3-0.7-0.5-1.1-0.5-0.4 0-0.9 0.2-1.1 0.5-0.3 0.3-0.5 0.8-0.6 1.4-0.1 0.6-0.2 1.4-0.2 2.3z"/>
			<path id="Layer" fill-rule="evenodd" class="s15" d="m564.1 294.5c0-0.6 0-1.3 0.1-1.9 0.1-0.6 0.2-1.2 0.5-1.7 0.2-0.5 0.5-1 0.9-1.4 0.4-0.4 0.9-0.7 1.5-1 0.6-0.2 1.3-0.4 2.2-0.4 0.2 0 0.5 0 0.7 0 0.2 0 0.5 0.1 0.7 0.1v1.5c-0.2-0.1-0.4-0.1-0.6-0.1-0.2 0-0.5 0-0.7 0-0.9 0-1.6 0.2-2.1 0.5-0.5 0.3-0.9 0.8-1.1 1.4-0.2 0.6-0.3 1.3-0.4 2.1h0.1c0.1-0.2 0.3-0.5 0.6-0.7 0.2-0.2 0.5-0.3 0.8-0.5 0.3-0.1 0.7-0.2 1.1-0.2 0.6 0 1.2 0.1 1.7 0.4 0.5 0.3 0.8 0.7 1.1 1.2 0.3 0.5 0.4 1.1 0.4 1.8 0 0.8-0.1 1.4-0.4 2-0.3 0.6-0.7 1-1.2 1.3-0.5 0.3-1.2 0.4-1.9 0.4q-0.7 0-1.5-0.3-0.7-0.3-1.2-0.9c-0.3-0.4-0.6-0.9-0.8-1.5-0.4-0.6-0.5-1.3-0.5-2.1zm3.8 3.3c0.6 0 1-0.2 1.4-0.6 0.3-0.4 0.5-0.9 0.5-1.7 0-0.6-0.2-1.1-0.5-1.5-0.3-0.4-0.8-0.5-1.4-0.5-0.4 0-0.8 0.1-1.1 0.3-0.3 0.2-0.6 0.4-0.7 0.7-0.2 0.3-0.3 0.6-0.3 0.8 0 0.3 0 0.6 0.1 0.9 0.1 0.3 0.2 0.6 0.4 0.8q0.3 0.3 0.6 0.6c0.4 0.1 0.7 0.2 1 0.2z"/>
			<path id="Layer" fill-rule="evenodd" class="s15" d="m580.6 290.7c1 0 1.8 0.2 2.4 0.7 0.5 0.5 0.8 1.2 0.8 2.2v5.6h-1.2l-0.3-1.2h-0.1c-0.2 0.3-0.5 0.5-0.7 0.7-0.2 0.2-0.5 0.3-0.9 0.4-0.3 0.1-0.7 0.1-1.2 0.1-0.5 0-0.9-0.1-1.3-0.3-0.4-0.2-0.7-0.5-0.9-0.8-0.2-0.4-0.3-0.8-0.3-1.4 0-0.9 0.3-1.5 1-1.9 0.6-0.4 1.6-0.7 2.9-0.7l1.4-0.1v-0.4c0-0.6-0.1-1-0.4-1.2-0.3-0.2-0.6-0.4-1.1-0.4-0.4 0-0.8 0.1-1.2 0.2-0.4 0.1-0.8 0.3-1.1 0.4l-0.6-1.2c0.4-0.2 0.9-0.4 1.4-0.5 0.3-0.1 0.9-0.2 1.4-0.2zm0.3 4.5c-0.9 0-1.5 0.2-1.8 0.4-0.4 0.3-0.5 0.6-0.5 1.1 0 0.4 0.1 0.7 0.4 0.9 0.2 0.2 0.6 0.3 1 0.3 0.6 0 1.1-0.2 1.5-0.5 0.4-0.3 0.6-0.9 0.6-1.5v-0.7z"/>
			<path id="Layer" class="s15" d="m595.6 290.7c0.9 0 1.6 0.2 2.1 0.7 0.5 0.5 0.7 1.2 0.7 2.3v5.4h-1.8v-5.1c0-0.6-0.1-1.1-0.4-1.4-0.2-0.3-0.6-0.5-1.1-0.5-0.7 0-1.2 0.2-1.5 0.7-0.3 0.4-0.5 1.1-0.5 1.9v4.4h-1.8v-5.1c0-0.4-0.1-0.8-0.2-1-0.1-0.3-0.3-0.5-0.5-0.6-0.2-0.1-0.5-0.2-0.8-0.2q-0.7 0-1.2 0.3c-0.3 0.2-0.5 0.5-0.6 1-0.1 0.5-0.2 0.9-0.2 1.6v4.1h-1.8v-8.3h1.4l0.2 1.1h0.1c0.2-0.3 0.4-0.5 0.6-0.7 0.3-0.2 0.5-0.3 0.8-0.4 0.3-0.1 0.6-0.1 1-0.1 0.6 0 1.1 0.1 1.6 0.3 0.4 0.2 0.7 0.5 0.9 1h0.1c0.3-0.4 0.6-0.8 1.1-1 0.5-0.2 1.3-0.4 1.8-0.4z"/>
		</g>
		<path id="Layer" class="s15" d="m624.8 215h227.2c15.8 0 28.7 12.8 28.7 28.7v33c0 15.8-12.8 28.7-28.7 28.7h-227.2c-15.8 0-28.7-12.8-28.7-28.7v-33c0.1-15.9 12.9-28.7 28.7-28.7z"/>
		<path id="Layer" class="s15" d="m886.5 535.5l-26.3-22h44.3z"/>
		<g id="Layer">
			<path id="Layer" class="s15" d="m710.1 602.3h-1.8v-7c0-0.2 0-0.5 0-0.7 0-0.2 0-0.5 0-0.7q0-0.3 0-0.6c-0.1 0.1-0.2 0.2-0.4 0.4-0.2 0.1-0.3 0.3-0.5 0.4l-1.3 1-0.9-1.1 3.2-2.5h1.5v10.8z"/>
			<path id="Layer" class="s15" d="m714 595q0-0.6 0.3-0.9c0.2-0.2 0.5-0.3 0.8-0.3 0.3 0 0.6 0.1 0.8 0.3q0.3 0.3 0.3 0.9 0 0.6-0.3 0.9c-0.2 0.2-0.5 0.3-0.8 0.3-0.3 0-0.6-0.1-0.8-0.3q-0.3-0.3-0.3-0.9zm0 6.4q0-0.6 0.3-0.9c0.2-0.2 0.5-0.2 0.8-0.2 0.3 0 0.6 0.1 0.8 0.2q0.3 0.3 0.3 0.9 0 0.6-0.3 0.9c-0.2 0.2-0.5 0.3-0.8 0.3-0.3 0-0.6-0.1-0.8-0.3q-0.3-0.3-0.3-0.9z"/>
			<path id="Layer" fill-rule="evenodd" class="s15" d="m725.3 596.8c0 0.9-0.1 1.7-0.2 2.4-0.1 0.7-0.4 1.3-0.6 1.8-0.3 0.5-0.7 0.9-1.2 1.1-0.5 0.3-1 0.4-1.7 0.4-0.8 0-1.5-0.2-2.1-0.7-0.5-0.4-1-1.1-1.2-1.9-0.3-0.8-0.4-1.8-0.4-3 0-1.2 0.1-2.2 0.4-3 0.3-0.8 0.6-1.5 1.2-1.9 0.5-0.4 1.3-0.7 2.2-0.7 0.8 0 1.5 0.2 2.1 0.7 0.5 0.4 1 1.1 1.2 1.9 0.2 0.7 0.3 1.8 0.3 2.9zm-5.6 0c0 0.9 0.1 1.7 0.2 2.3 0.1 0.6 0.3 1.1 0.6 1.4 0.3 0.3 0.7 0.5 1.1 0.5 0.4 0 0.9-0.2 1.1-0.5 0.3-0.3 0.5-0.8 0.6-1.4 0.1-0.6 0.2-1.4 0.2-2.3 0-0.9-0.1-1.7-0.2-2.3-0.1-0.6-0.3-1.1-0.6-1.4-0.3-0.3-0.7-0.5-1.1-0.5-0.4 0-0.9 0.2-1.1 0.5-0.3 0.3-0.5 0.8-0.6 1.4-0.1 0.6-0.2 1.4-0.2 2.3z"/>
			<path id="Layer" class="s15" d="m727.9 602.3l4.3-9.4h-5.7v-1.5h7.6v1.2l-4.3 9.7z"/>
			<path id="Layer" fill-rule="evenodd" class="s15" d="m743.2 593.9c1 0 1.8 0.2 2.4 0.7 0.5 0.5 0.8 1.2 0.8 2.2v5.6h-1.2l-0.3-1.2h-0.1c-0.2 0.3-0.5 0.5-0.7 0.7-0.2 0.2-0.5 0.3-0.9 0.4-0.3 0.1-0.7 0.1-1.2 0.1-0.5 0-0.9-0.1-1.3-0.3-0.4-0.2-0.7-0.5-0.9-0.8-0.2-0.4-0.3-0.8-0.3-1.4 0-0.9 0.3-1.5 1-1.9 0.6-0.4 1.6-0.7 2.9-0.7l1.4-0.1v-0.4c0-0.6-0.1-1-0.4-1.2-0.3-0.2-0.6-0.4-1.1-0.4-0.4 0-0.8 0.1-1.2 0.2-0.4 0.1-0.8 0.3-1.1 0.4l-0.6-1.2c0.4-0.2 0.9-0.4 1.4-0.5 0.3-0.2 0.8-0.2 1.4-0.2zm0.3 4.4c-0.9 0-1.5 0.2-1.8 0.4-0.4 0.3-0.5 0.6-0.5 1.1 0 0.4 0.1 0.7 0.4 0.9 0.2 0.2 0.6 0.3 1 0.3 0.6 0 1.1-0.2 1.5-0.5 0.4-0.3 0.6-0.9 0.6-1.5v-0.7z"/>
			<path id="Layer" class="s15" d="m758.1 593.9c0.9 0 1.6 0.2 2.1 0.7 0.5 0.5 0.7 1.2 0.7 2.3v5.4h-1.8v-5.1c0-0.6-0.1-1.1-0.4-1.4-0.2-0.3-0.6-0.5-1.1-0.5-0.7 0-1.2 0.2-1.5 0.7-0.3 0.4-0.5 1.1-0.5 1.9v4.4h-1.8v-5.1c0-0.4-0.1-0.8-0.2-1-0.1-0.3-0.3-0.5-0.5-0.6-0.2-0.1-0.5-0.2-0.8-0.2q-0.8 0-1.2 0.3c-0.3 0.2-0.5 0.5-0.6 1-0.1 0.5-0.2 0.9-0.2 1.6v4.1h-1.8v-8.4h1.4l0.2 1.1h0.1c0.2-0.3 0.4-0.5 0.6-0.7 0.3-0.2 0.5-0.3 0.8-0.4 0.3-0.1 0.6-0.1 1-0.1 0.6 0 1.1 0.1 1.6 0.3 0.4 0.2 0.7 0.5 0.9 1h0.1c0.3-0.4 0.6-0.8 1.1-1 0.5-0.2 1.3-0.3 1.8-0.3z"/>
		</g>
		<path id="Layer" class="s15" d="m787.5 513.6h72.9c15 0 27.2 12.2 27.2 27.2v36c0 15-12.2 27.2-27.2 27.2h-72.9c-15 0-27.2-12.2-27.2-27.2v-36c-0.1-15.1 12.1-27.2 27.2-27.2z"/>
		<g id="Layer">
			<path id="Layer" class="s19" d="m629.8 255.3h-2v-15.4h-5.4v-1.8h12.8v1.8h-5.4z"/>
		</g>
		<g id="Layer">
			<path id="Layer" fill-rule="evenodd" class="s19" d="m639.4 242.2c1.1 0 2 0.2 2.8 0.7 0.8 0.5 1.4 1.2 1.8 2 0.4 0.8 0.6 1.9 0.6 3.1v1.2h-8.9c0 1.5 0.4 2.7 1.1 3.4 0.7 0.7 1.8 1.2 3.1 1.2 0.8 0 1.5-0.1 2.2-0.2 0.7-0.1 1.3-0.4 1.9-0.7v1.7c-0.6 0.3-1.3 0.5-1.9 0.6-0.6 0.1-1.4 0.2-2.3 0.2-1.2 0-2.3-0.3-3.2-0.8-0.9-0.5-1.6-1.2-2.1-2.2-0.5-1-0.8-2.2-0.8-3.6 0-1.4 0.2-2.6 0.7-3.6 0.5-1 1.1-1.8 2-2.3 0.9-0.5 1.9-0.7 3-0.7zm0 1.6c-1 0-1.9 0.3-2.5 1-0.6 0.7-1 1.6-1.1 2.8h6.8c0-0.8-0.1-1.4-0.4-2-0.3-0.6-0.6-1-1-1.4-0.4-0.4-1-0.4-1.8-0.4z"/>
			<path id="Layer" class="s19" d="m654.1 242.2c1.5 0 2.7 0.4 3.5 1.1q1.2 1.1 1.2 3.6v8.4h-1.9v-8.3c0-1.1-0.2-1.9-0.7-2.4-0.5-0.5-1.2-0.8-2.2-0.8q-2.1 0-3 1.2c-0.6 0.8-0.9 2-0.9 3.5v6.7h-2.1v-12.8h1.6l0.3 1.9h0.1c0.3-0.5 0.6-0.8 1-1.1 0.4-0.3 0.9-0.5 1.4-0.7 0.5-0.2 1.1-0.3 1.7-0.3z"/>
			<path id="Layer" fill-rule="evenodd" class="s19" d="m666.3 261q-2.5 0-3.9-0.9c-0.9-0.6-1.4-1.5-1.4-2.6 0-0.8 0.3-1.5 0.8-2.1 0.5-0.6 1.2-0.9 2.1-1.1-0.3-0.2-0.6-0.4-0.9-0.7-0.3-0.3-0.4-0.7-0.4-1.1 0-0.5 0.1-0.9 0.4-1.2 0.3-0.3 0.7-0.7 1.2-1-0.7-0.3-1.2-0.7-1.6-1.4-0.4-0.7-0.6-1.4-0.6-2.3q0-1.3 0.6-2.4c0.4-0.7 0.9-1.2 1.7-1.5 0.8-0.3 1.6-0.5 2.6-0.5 0.2 0 0.5 0 0.7 0 0.2 0 0.5 0 0.7 0.1 0.2 0.1 0.4 0.1 0.6 0.1h4.4v1.3l-2.4 0.3c0.2 0.3 0.4 0.7 0.6 1.1 0.2 0.4 0.2 0.9 0.2 1.4 0 1.3-0.4 2.3-1.3 3.1-0.9 0.8-2.1 1.1-3.6 1.1-0.4 0-0.7 0-1.1-0.1-0.4 0.2-0.7 0.4-0.9 0.7q-0.3 0.4-0.3 0.9c0 0.2 0.1 0.4 0.2 0.6 0.1 0.2 0.4 0.3 0.7 0.3 0.3 0 0.6 0.1 1 0.1h2.3c1.4 0 2.5 0.3 3.2 0.9 0.7 0.6 1.1 1.4 1.1 2.6 0 1.4-0.6 2.5-1.7 3.3-1.1 0.8-2.8 1-5 1zm0-1.5c1.1 0 1.9-0.1 2.6-0.3 0.7-0.2 1.2-0.5 1.6-0.9 0.4-0.4 0.5-0.9 0.5-1.4 0-0.5-0.1-0.9-0.4-1.2-0.3-0.3-0.6-0.4-1-0.5-0.4-0.1-1-0.1-1.7-0.1h-2.2q-0.9 0-1.5 0.3c-0.4 0.2-0.8 0.4-1 0.8-0.2 0.4-0.3 0.8-0.3 1.3 0 0.7 0.3 1.2 0.9 1.6 0.6 0.4 1.5 0.4 2.5 0.4zm0.5-10.3c0.9 0 1.6-0.2 2.1-0.7 0.5-0.5 0.7-1.2 0.7-2.1 0-1-0.2-1.7-0.7-2.2-0.5-0.5-1.2-0.7-2.1-0.7-0.9 0-1.6 0.2-2.1 0.7-0.5 0.5-0.7 1.2-0.7 2.2 0 0.9 0.2 1.5 0.7 2 0.5 0.5 1.2 0.8 2.1 0.8z"/>
			<path id="Layer" fill-rule="evenodd" class="s19" d="m686.8 248.8c0 1.1-0.1 2-0.4 2.8q-0.4 1.2-1.2 2.1c-0.5 0.6-1.1 1-1.9 1.3-0.8 0.3-1.6 0.5-2.5 0.5-0.9 0-1.6-0.2-2.4-0.5-0.8-0.3-1.3-0.7-1.9-1.3-0.6-0.6-0.9-1.3-1.2-2.1-0.3-0.8-0.4-1.8-0.4-2.8 0-1.4 0.2-2.6 0.7-3.6 0.5-1 1.2-1.7 2-2.3 0.8-0.6 1.9-0.8 3.2-0.8 1.2 0 2.2 0.3 3.1 0.8 0.9 0.5 1.6 1.3 2.1 2.3 0.5 1 0.8 2.2 0.8 3.6zm-9.8 0c0 1 0.1 1.9 0.4 2.7 0.3 0.8 0.7 1.3 1.3 1.8 0.6 0.5 1.3 0.6 2.2 0.6 0.9 0 1.6-0.2 2.2-0.6 0.6-0.4 1-1 1.3-1.8 0.3-0.8 0.4-1.7 0.4-2.7 0-1-0.1-1.9-0.4-2.7-0.3-0.8-0.7-1.3-1.3-1.7-0.6-0.4-1.3-0.6-2.2-0.6-1.3 0-2.3 0.4-2.9 1.3-0.6 0.9-1 2.2-1 3.7z"/>
			<path id="Layer" fill-rule="evenodd" class="s19" d="m705 261c0-0.3 0-6.2 0-6.6 0-0.4 0-0.7 0.1-1h-0.1q-0.6 0.9-1.5 1.5c-0.6 0.4-1.5 0.6-2.6 0.6-1.6 0-2.8-0.6-3.8-1.7-1-1.1-1.4-2.8-1.4-5 0-1.4 0.2-2.7 0.7-3.7 0.5-1 1.1-1.7 1.9-2.3 0.8-0.6 1.7-0.8 2.8-0.8 1 0 1.9 0.2 2.5 0.6 0.6 0.4 1.2 0.9 1.5 1.5h0.1l0.3-1.8h1.5v18.7zm-3.8-7.1c0.9 0 1.6-0.2 2.2-0.5 0.6-0.3 0.9-0.9 1.2-1.5 0.3-0.6 0.4-1.5 0.4-2.6v-0.4c0-1.7-0.3-2.9-0.8-3.8-0.5-0.9-1.5-1.3-2.9-1.3-1.2 0-2.1 0.5-2.7 1.4-0.6 0.9-0.9 2.2-0.9 3.7 0 1.5 0.3 2.8 0.9 3.7 0.6 0.9 1.4 1.3 2.6 1.3z"/>
			<path id="Layer" class="s19" d="m721.7 242.4v12.8h-1.6l-0.3-1.8h-0.1c-0.3 0.4-0.6 0.8-1 1.1-0.4 0.3-0.9 0.5-1.4 0.7-0.5 0.2-1.1 0.2-1.7 0.2-1 0-1.9-0.2-2.6-0.5-0.7-0.3-1.2-0.8-1.6-1.5-0.4-0.7-0.5-1.6-0.5-2.6v-8.4h2v8.3c0 1.1 0.2 1.9 0.7 2.4 0.5 0.5 1.2 0.8 2.2 0.8 1 0 1.7-0.2 2.3-0.5 0.6-0.3 1-0.9 1.2-1.6 0.2-0.7 0.4-1.6 0.4-2.6v-6.8z"/>
			<path id="Layer" fill-rule="evenodd" class="s19" d="m730.7 242.2c1.1 0 2 0.2 2.8 0.7 0.8 0.5 1.4 1.2 1.8 2 0.4 0.8 0.6 1.9 0.6 3.1v1.2h-8.9c0 1.5 0.4 2.7 1.1 3.4 0.7 0.7 1.8 1.2 3.1 1.2 0.8 0 1.5-0.1 2.2-0.2 0.7-0.1 1.3-0.4 1.9-0.7v1.7c-0.6 0.3-1.3 0.5-1.9 0.6-0.6 0.1-1.4 0.2-2.3 0.2-1.2 0-2.3-0.3-3.2-0.8-0.9-0.5-1.6-1.2-2.1-2.2-0.5-1-0.8-2.2-0.8-3.6 0-1.4 0.2-2.6 0.7-3.6 0.5-1 1.1-1.8 2-2.3 0.9-0.5 1.9-0.7 3-0.7zm0 1.6c-1 0-1.9 0.3-2.5 1-0.6 0.7-1 1.6-1.1 2.8h6.8c0-0.8-0.1-1.4-0.4-2-0.3-0.6-0.6-1-1-1.4-0.4-0.4-1-0.4-1.8-0.4z"/>
		</g>
		<g id="Layer">
			<path id="Layer" class="s19" d="m753.7 255.5c-1.2 0-2.2-0.2-3.1-0.7-0.9-0.5-1.6-1.2-2.1-2.2-0.5-1-0.7-2.2-0.7-3.7 0-1.6 0.3-2.8 0.8-3.8 0.5-1 1.2-1.7 2.2-2.2 1-0.5 2-0.7 3.1-0.7 0.6 0 1.3 0.1 1.9 0.2 0.6 0.1 1.1 0.3 1.5 0.5l-0.6 1.6c-0.4-0.2-0.8-0.3-1.4-0.4-0.6-0.1-1-0.2-1.4-0.2-0.9 0-1.6 0.2-2.2 0.6-0.6 0.4-1 0.9-1.3 1.7-0.3 0.8-0.4 1.7-0.4 2.7 0 1 0.1 1.9 0.4 2.7 0.3 0.8 0.7 1.3 1.3 1.7q0.9 0.6 2.1 0.6c0.7 0 1.3-0.1 1.8-0.2 0.5-0.1 1-0.3 1.5-0.5v1.7c-0.4 0.2-0.9 0.4-1.4 0.5-0.5 0.1-1.3 0.1-2 0.1z"/>
		</g>
		<g id="Layer">
			<path id="Layer" fill-rule="evenodd" class="s19" d="m770.2 248.8c0 1.1-0.1 2-0.4 2.8q-0.5 1.2-1.2 2.1c-0.5 0.6-1.1 1-1.9 1.3-0.8 0.3-1.6 0.5-2.5 0.5-0.9 0-1.6-0.2-2.4-0.5-0.8-0.3-1.3-0.7-1.9-1.3-0.6-0.6-0.9-1.3-1.2-2.1-0.3-0.8-0.4-1.8-0.4-2.8 0-1.4 0.2-2.6 0.7-3.6 0.5-1 1.2-1.7 2-2.3 0.8-0.6 1.9-0.8 3.2-0.8 1.2 0 2.2 0.3 3.1 0.8 0.9 0.5 1.6 1.3 2.1 2.3 0.5 1 0.8 2.2 0.8 3.6zm-9.7 0c0 1 0.1 1.9 0.4 2.7 0.3 0.8 0.7 1.3 1.3 1.8 0.6 0.5 1.3 0.6 2.2 0.6 0.9 0 1.6-0.2 2.2-0.6 0.6-0.4 1-1 1.3-1.8 0.3-0.8 0.4-1.7 0.4-2.7 0-1-0.1-1.9-0.4-2.7-0.3-0.8-0.7-1.3-1.3-1.7-0.6-0.4-1.3-0.6-2.2-0.6-1.3 0-2.3 0.4-2.9 1.3-0.6 0.9-1 2.2-1 3.7z"/>
		</g>
		<g id="Layer">
			<path id="Layer" class="s19" d="m778.4 242.2c1.5 0 2.7 0.4 3.5 1.1q1.2 1.1 1.2 3.6v8.4h-1.9v-8.3c0-1.1-0.2-1.9-0.7-2.4-0.5-0.5-1.2-0.8-2.2-0.8q-2.1 0-3 1.2c-0.6 0.8-0.9 2-0.9 3.5v6.7h-1.9v-12.8h1.6l0.3 1.9h0.1c0.3-0.5 0.6-0.8 1-1.1 0.4-0.3 0.9-0.5 1.4-0.7 0.5-0.2 0.9-0.3 1.5-0.3z"/>
		</g>
		<g id="Layer">
			<path id="Layer" class="s19" d="m791.7 253.9c0.3 0 0.6 0 1-0.1 0.4-0.1 0.6-0.1 0.8-0.2v1.5q-0.3 0.2-0.9 0.3c-0.4 0.1-0.8 0.1-1.2 0.1-0.7 0-1.3-0.1-1.9-0.4-0.6-0.3-1-0.6-1.3-1.2-0.3-0.6-0.5-1.4-0.5-2.4v-7.6h-1.8v-0.9l1.8-0.8 0.8-2.8h1.2v3h3.8v1.5h-3.8v7.6q0 1.2 0.6 1.8c0.4 0.4 0.8 0.6 1.4 0.6z"/>
			<path id="Layer" fill-rule="evenodd" class="s19" d="m800.9 242.2c1.5 0 2.7 0.3 3.4 1 0.7 0.7 1.1 1.8 1.1 3.3v8.7h-1.4l-0.4-1.9h-0.1c-0.4 0.5-0.7 0.9-1.1 1.2-0.4 0.3-0.8 0.6-1.4 0.7-0.6 0.1-1.1 0.2-1.9 0.2-0.8 0-1.5-0.1-2.1-0.4-0.6-0.3-1.1-0.7-1.4-1.2-0.3-0.5-0.5-1.3-0.5-2.1q0-1.9 1.5-3c1-0.7 2.6-1.1 4.6-1.1l2.2-0.1v-0.8c0-1.1-0.2-1.9-0.7-2.3-0.5-0.4-1.1-0.7-2-0.7-0.7 0-1.3 0.1-1.9 0.3-0.6 0.2-1.2 0.4-1.7 0.7l-0.6-1.5c0.6-0.3 1.2-0.6 2-0.8 0.8-0.2 1.6-0.2 2.4-0.2zm2.6 6.7l-2 0.1c-1.6 0.1-2.7 0.3-3.4 0.8-0.7 0.5-1 1.1-1 2 0 0.7 0.2 1.3 0.7 1.6 0.5 0.3 1 0.5 1.8 0.5 1.1 0 2.1-0.3 2.8-0.9 0.7-0.6 1.1-1.6 1.1-2.8z"/>
		</g>
		<g id="Layer">
			<path id="Layer" class="s19" d="m814.9 242.2c0.3 0 0.5 0 0.8 0 0.3 0 0.5 0.1 0.8 0.1l-0.2 1.8c-0.2-0.1-0.4-0.1-0.7-0.1-0.3 0-0.5 0-0.7 0q-0.8 0-1.5 0.3-0.8 0.3-1.2 0.9c-0.3 0.4-0.6 0.9-0.8 1.4q-0.3 0.8-0.3 1.8v6.9h-2v-12.8h1.6l0.2 2.4h0.1c0.3-0.5 0.6-0.9 1-1.3 0.4-0.4 0.8-0.7 1.3-0.9 0.5-0.2 1-0.5 1.6-0.5z"/>
		</g>
		<g id="Layer">
			<path id="Layer" class="s19" d="m823.6 253.9c0.3 0 0.6 0 1-0.1 0.4-0.1 0.6-0.1 0.8-0.2v1.5q-0.3 0.2-0.9 0.3c-0.4 0.1-0.8 0.1-1.2 0.1-0.7 0-1.3-0.1-1.9-0.4-0.6-0.3-1-0.6-1.3-1.2-0.3-0.6-0.5-1.4-0.5-2.4v-7.6h-1.8v-0.9l1.8-0.8 0.8-2.8h1.2v3h3.8v1.5h-3.8v7.6q0 1.2 0.6 1.8c0.4 0.4 0.7 0.6 1.4 0.6z"/>
		</g>
		<g id="Layer">
			<path id="Layer" fill-rule="evenodd" class="s19" d="m832.1 242.2c1.1 0 2 0.2 2.8 0.7 0.8 0.5 1.4 1.2 1.8 2 0.4 0.8 0.6 1.9 0.6 3.1v1.2h-8.9c0 1.5 0.4 2.7 1.1 3.4 0.7 0.7 1.8 1.2 3.1 1.2 0.8 0 1.5-0.1 2.2-0.2 0.7-0.1 1.3-0.4 1.9-0.7v1.7c-0.6 0.3-1.3 0.5-1.9 0.6-0.6 0.1-1.4 0.2-2.3 0.2-1.2 0-2.3-0.3-3.2-0.8-0.9-0.5-1.6-1.2-2.1-2.2-0.5-1-0.8-2.2-0.8-3.6 0-1.4 0.2-2.6 0.7-3.6 0.5-1 1.1-1.8 2-2.3 0.9-0.5 1.9-0.7 3-0.7zm0 1.6c-1 0-1.9 0.3-2.5 1-0.6 0.7-1 1.6-1.1 2.8h6.8c0-0.8-0.1-1.4-0.4-2-0.3-0.6-0.6-1-1-1.4-0.4-0.4-1-0.4-1.8-0.4z"/>
		</g>
		<g id="Layer">
			<path id="Layer" fill-rule="evenodd" class="s19" d="m629.1 271c1.5 0 2.7 0.3 3.4 1 0.7 0.7 1.1 1.8 1.1 3.3v8.7h-1.4l-0.4-1.9h-0.1c-0.4 0.5-0.7 0.9-1.1 1.2-0.4 0.3-0.8 0.6-1.4 0.7-0.6 0.1-1.1 0.2-1.9 0.2-0.8 0-1.5-0.1-2.1-0.4-0.6-0.3-1.1-0.7-1.4-1.2-0.3-0.5-0.5-1.3-0.5-2.1q0-2 1.5-3c1-0.7 2.6-1.1 4.6-1.1l2.2-0.1v-0.8c0-1.1-0.2-1.9-0.7-2.3-0.5-0.4-1.1-0.7-2-0.7-0.7 0-1.3 0.1-1.9 0.3-0.6 0.2-1.2 0.4-1.7 0.7l-0.6-1.5c0.6-0.3 1.2-0.6 2-0.8 0.8-0.2 1.6-0.2 2.4-0.2zm2.6 6.7l-2 0.1c-1.6 0.1-2.7 0.3-3.4 0.8-0.7 0.5-1 1.1-1 2 0 0.7 0.2 1.3 0.7 1.6 0.5 0.3 1 0.5 1.8 0.5 1.1 0 2.1-0.3 2.8-0.9 0.7-0.6 1.1-1.6 1.1-2.8z"/>
			<path id="Layer" class="s19" d="m639.6 284.1h-2v-18.2h2z"/>
			<path id="Layer" fill-rule="evenodd" class="s19" d="m647.3 289.8q-2.5 0-3.9-0.9c-0.9-0.6-1.4-1.5-1.4-2.6 0-0.8 0.3-1.5 0.8-2.1 0.5-0.6 1.2-0.9 2.1-1.1-0.3-0.2-0.6-0.4-0.9-0.7-0.3-0.3-0.4-0.7-0.4-1.1 0-0.5 0.1-0.9 0.4-1.2 0.3-0.3 0.7-0.7 1.2-1-0.7-0.3-1.2-0.7-1.6-1.4-0.4-0.7-0.6-1.4-0.6-2.3q0-1.4 0.6-2.4c0.4-0.7 0.9-1.2 1.7-1.5 0.8-0.3 1.6-0.5 2.6-0.5 0.2 0 0.5 0 0.7 0 0.2 0 0.5 0 0.7 0.1 0.2 0.1 0.4 0.1 0.6 0.1h4.4v1.3l-2.4 0.3c0.2 0.3 0.4 0.7 0.6 1.1 0.2 0.4 0.2 0.9 0.2 1.4 0 1.3-0.4 2.3-1.3 3.1-0.9 0.8-2.1 1.1-3.6 1.1-0.4 0-0.7 0-1.1-0.1-0.4 0.2-0.7 0.4-0.9 0.7q-0.3 0.5-0.3 0.9c0 0.2 0.1 0.4 0.2 0.6 0.1 0.2 0.4 0.3 0.7 0.3 0.3 0 0.6 0.1 1 0.1h2.3c1.4 0 2.5 0.3 3.2 0.9 0.7 0.6 1.1 1.4 1.1 2.6 0 1.4-0.6 2.5-1.7 3.3-1.1 0.8-2.9 1-5 1zm0-1.5c1.1 0 1.9-0.1 2.6-0.3 0.7-0.2 1.2-0.5 1.6-0.9 0.4-0.4 0.5-0.9 0.5-1.4 0-0.5-0.1-0.9-0.4-1.2-0.3-0.3-0.6-0.4-1-0.5-0.4-0.1-1-0.1-1.7-0.1h-2.2q-0.9 0-1.5 0.3c-0.4 0.2-0.8 0.4-1 0.8-0.2 0.4-0.3 0.8-0.3 1.3 0 0.7 0.3 1.2 0.9 1.6 0.6 0.4 1.4 0.4 2.5 0.4zm0.5-10.3c0.9 0 1.6-0.2 2.1-0.7 0.5-0.5 0.7-1.2 0.7-2.1 0-1-0.2-1.7-0.7-2.2-0.5-0.5-1.2-0.7-2.1-0.7-0.9 0-1.6 0.2-2.1 0.7-0.5 0.5-0.7 1.2-0.7 2.2 0 0.9 0.2 1.5 0.7 2 0.5 0.5 1.2 0.8 2.1 0.8z"/>
			<path id="Layer" fill-rule="evenodd" class="s19" d="m667.8 277.6c0 1.1-0.1 2-0.4 2.8q-0.4 1.2-1.2 2.1c-0.5 0.6-1.1 1-1.9 1.3-0.8 0.3-1.6 0.5-2.5 0.5-0.9 0-1.6-0.2-2.4-0.5-0.8-0.3-1.3-0.7-1.9-1.3-0.6-0.6-0.9-1.3-1.2-2.1-0.3-0.8-0.4-1.8-0.4-2.8 0-1.4 0.2-2.6 0.7-3.6 0.5-1 1.2-1.7 2-2.3 0.8-0.6 1.9-0.8 3.2-0.8 1.2 0 2.2 0.3 3.1 0.8 0.9 0.5 1.6 1.3 2.1 2.3 0.5 1 0.8 2.2 0.8 3.6zm-9.8 0c0 1 0.1 1.9 0.4 2.7 0.3 0.8 0.7 1.3 1.3 1.8 0.6 0.5 1.3 0.6 2.2 0.6 0.9 0 1.6-0.2 2.2-0.6 0.6-0.4 1-1 1.3-1.8 0.3-0.8 0.4-1.7 0.4-2.7 0-1-0.1-1.9-0.4-2.7-0.3-0.8-0.7-1.3-1.3-1.7-0.6-0.4-1.3-0.6-2.2-0.6-1.3 0-2.3 0.4-2.9 1.3-0.6 0.9-1 2.2-1 3.7z"/>
		</g>
		<path id="Layer" class="s15" d="m879.7 404l-26.3-21.9h44.3z"/>
		<g id="Layer">
			<path id="Layer" class="s15" d="m505.5 466.2h-1.8v-7c0-0.2 0-0.5 0-0.7 0-0.2 0-0.5 0-0.7q0-0.3 0-0.6c-0.1 0.1-0.2 0.2-0.4 0.4-0.2 0.1-0.3 0.3-0.5 0.4l-1.3 1-0.9-1.1 3.2-2.5h1.5v10.8z"/>
			<path id="Layer" class="s15" d="m509.4 458.9q0-0.6 0.3-0.9c0.2-0.2 0.5-0.3 0.8-0.3 0.3 0 0.6 0.1 0.8 0.3q0.3 0.3 0.3 0.9 0 0.6-0.3 0.9c-0.2 0.2-0.5 0.3-0.8 0.3-0.3 0-0.6-0.1-0.8-0.3q-0.3-0.3-0.3-0.9zm0 6.4q0-0.6 0.3-0.9c0.2-0.2 0.5-0.2 0.8-0.2 0.3 0 0.6 0.1 0.8 0.2q0.3 0.3 0.3 0.9 0 0.6-0.3 0.9c-0.2 0.2-0.5 0.3-0.8 0.3-0.3 0-0.6-0.1-0.8-0.3q-0.3-0.3-0.3-0.9z"/>
			<path id="Layer" fill-rule="evenodd" class="s15" d="m520.6 460.8c0 0.9-0.1 1.7-0.2 2.4-0.1 0.7-0.4 1.3-0.6 1.8-0.3 0.5-0.7 0.9-1.2 1.1-0.5 0.3-1 0.4-1.7 0.4-0.8 0-1.5-0.2-2.1-0.7-0.5-0.4-1-1.1-1.2-1.9-0.3-0.8-0.4-1.8-0.4-3 0-1.2 0.1-2.2 0.4-3 0.3-0.8 0.6-1.5 1.2-1.9 0.5-0.4 1.3-0.7 2.2-0.7 0.8 0 1.5 0.2 2.1 0.7 0.5 0.4 1 1.1 1.2 1.9 0.2 0.7 0.3 1.7 0.3 2.9zm-5.6 0c0 0.9 0.1 1.7 0.2 2.3 0.1 0.6 0.3 1.1 0.6 1.4 0.3 0.3 0.7 0.5 1.1 0.5 0.4 0 0.9-0.2 1.1-0.5 0.3-0.3 0.5-0.8 0.6-1.4 0.1-0.6 0.2-1.4 0.2-2.3 0-0.9-0.1-1.7-0.2-2.3-0.1-0.6-0.3-1.1-0.6-1.4-0.3-0.3-0.7-0.5-1.1-0.5-0.4 0-0.9 0.2-1.1 0.5-0.3 0.3-0.5 0.8-0.6 1.4-0.1 0.6-0.2 1.3-0.2 2.3z"/>
			<path id="Layer" fill-rule="evenodd" class="s15" d="m522 461.6c0-0.6 0-1.3 0.1-1.9 0.1-0.6 0.2-1.2 0.5-1.7 0.2-0.5 0.5-1 0.9-1.4 0.4-0.4 0.9-0.7 1.5-1 0.6-0.2 1.3-0.4 2.2-0.4 0.2 0 0.5 0 0.7 0 0.2 0 0.5 0.1 0.7 0.1v1.5c-0.2-0.1-0.4-0.1-0.6-0.1-0.2 0-0.5 0-0.7 0-0.9 0-1.6 0.2-2.1 0.5-0.5 0.3-0.9 0.8-1.1 1.4-0.2 0.6-0.3 1.3-0.4 2.1h0.1c0.1-0.2 0.3-0.5 0.6-0.7 0.2-0.2 0.5-0.3 0.8-0.5 0.3-0.1 0.7-0.2 1.1-0.2 0.6 0 1.2 0.1 1.7 0.4 0.5 0.3 0.8 0.7 1.1 1.2 0.3 0.5 0.4 1.1 0.4 1.8 0 0.8-0.1 1.4-0.4 2-0.3 0.6-0.7 1-1.2 1.3-0.5 0.3-1.2 0.4-1.9 0.4q-0.7 0-1.5-0.3-0.7-0.3-1.2-0.9c-0.3-0.4-0.6-0.9-0.8-1.5-0.4-0.6-0.5-1.3-0.5-2.1zm3.8 3.3c0.6 0 1-0.2 1.4-0.6 0.3-0.4 0.5-0.9 0.5-1.7 0-0.6-0.2-1.1-0.5-1.5-0.3-0.4-0.8-0.5-1.4-0.5-0.4 0-0.8 0.1-1.1 0.3-0.3 0.2-0.6 0.4-0.7 0.7-0.2 0.3-0.3 0.6-0.3 0.8 0 0.3 0 0.6 0.1 0.9 0.1 0.3 0.2 0.6 0.4 0.8q0.3 0.3 0.6 0.6c0.4 0.1 0.7 0.2 1 0.2z"/>
			<path id="Layer" fill-rule="evenodd" class="s15" d="m538.5 457.8c1 0 1.8 0.2 2.4 0.7 0.5 0.5 0.8 1.2 0.8 2.2v5.6h-1.2l-0.3-1.2h-0.2c-0.2 0.3-0.5 0.5-0.7 0.7-0.2 0.2-0.5 0.3-0.9 0.4-0.3 0.1-0.7 0.1-1.2 0.1-0.5 0-0.9-0.1-1.3-0.3-0.4-0.2-0.7-0.5-0.9-0.8-0.2-0.4-0.3-0.8-0.3-1.4 0-0.9 0.3-1.5 1-1.9 0.6-0.4 1.6-0.7 2.9-0.7l1.4-0.1v-0.4c0-0.6-0.1-1-0.4-1.2-0.3-0.2-0.6-0.4-1.1-0.4-0.4 0-0.8 0.1-1.2 0.2-0.4 0.1-0.8 0.3-1.1 0.4l-0.6-1.2c0.4-0.2 0.9-0.4 1.4-0.5 0.4-0.1 1-0.2 1.5-0.2zm0.4 4.5c-0.9 0-1.5 0.2-1.8 0.4-0.4 0.3-0.5 0.6-0.5 1.1 0 0.4 0.1 0.7 0.4 0.9 0.2 0.2 0.6 0.3 1 0.3 0.6 0 1.1-0.2 1.5-0.5 0.4-0.3 0.6-0.9 0.6-1.5v-0.7z"/>
			<path id="Layer" class="s15" d="m553.5 457.8c0.9 0 1.6 0.2 2.1 0.7 0.5 0.5 0.7 1.2 0.7 2.3v5.4h-1.8v-5.1c0-0.6-0.1-1.1-0.4-1.4-0.2-0.3-0.6-0.5-1.1-0.5-0.7 0-1.2 0.2-1.5 0.7-0.3 0.4-0.5 1.1-0.5 1.9v4.4h-1.8v-5.1c0-0.4-0.1-0.8-0.2-1-0.1-0.3-0.3-0.5-0.5-0.6-0.2-0.1-0.5-0.2-0.8-0.2q-0.7 0-1.2 0.3c-0.3 0.2-0.5 0.5-0.6 1-0.1 0.5-0.2 0.9-0.2 1.6v4.1h-1.8v-8.3h1.4l0.2 1.1h0.1c0.2-0.3 0.4-0.5 0.6-0.7 0.3-0.2 0.5-0.3 0.8-0.4 0.3-0.1 0.6-0.1 1-0.1 0.6 0 1.1 0.1 1.6 0.3 0.4 0.2 0.7 0.5 0.9 1h0.1c0.3-0.4 0.6-0.8 1.1-1 0.5-0.2 1.3-0.4 1.8-0.4z"/>
		</g>
		<path id="Layer" class="s15" d="m590.1 382.1h262c15.8 0 28.7 12.8 28.7 28.7v33c0 15.8-12.8 28.7-28.7 28.7h-262c-15.8 0-28.7-12.8-28.7-28.7v-33c0-15.9 12.8-28.7 28.7-28.7z"/>
		<path id="Layer" class="s20" d="m605.7 460.8c-18.9 0-34.1-15.2-34.1-34.1 0-18.9 15.2-34.1 34.1-34.1 18.9 0 34.1 15.2 34.1 34.1 0 18.9-15.2 34.1-34.1 34.1z"/>
		<path id="Layer" fill-rule="evenodd" class="s15" d="m589.3 439.6l10.8-28.4h8.1l10.7 28.4h-8.3l-1.6-4.8h3.2v-6.2h-5.2l-2.9-8.7-2.9 8.7h-4.9v6.2h2.8l-1.6 4.8zm14.8-19.7l1.5-4.4h-2.9zm4.9 14.9l-2-6.2h-5.8l-2.1 6.2z"/>
		<path id="Layer" class="s21" d="m647.5 410.6v39.1l32-20.4z"/>
		<path id="Layer" class="s22" d="m685 413.4h5.3v29.2h-5.3z"/>
		<path id="Layer" class="s22" d="m694.2 420.4h4.5v17.1h-4.5z"/>
		<path id="Layer" class="s22" d="m703 420.4h4.5v17.1h-4.5z"/>
		<path id="Layer" class="s22" d="m711.9 420.4h4.5v17.1h-4.5z"/>
		<path id="Layer" class="s22" d="m721.1 413h3.7v33.5h-3.7z"/>
		<path id="Layer" class="s22" d="m729.9 413h3.7v33.5h-3.7z"/>
		<path id="Layer" class="s22" d="m738.5 417.2h4.1v24h-4.1z"/>
		<path id="Layer" class="s22" d="m746.8 413.4h5.3v29.2h-5.3z"/>
		<path id="Layer" class="s22" d="m756 420.4h4.5v17.1h-4.5z"/>
		<path id="Layer" class="s22" d="m764.8 420.4h4.5v17.1h-4.5z"/>
		<path id="Layer" class="s22" d="m773.7 420.4h4.5v17.1h-4.5z"/>
		<path id="Layer" class="s22" d="m782.9 413h3.7v33.5h-3.7z"/>
		<path id="Layer" class="s22" d="m791.7 413h3.7v33.5h-3.7z"/>
		<path id="Layer" class="s22" d="m800.3 417.2h4.1v24h-4.1z"/>
		<path id="Layer" class="s22" d="m809 420.4h4.5v17.1h-4.5z"/>
		<path id="Layer" class="s22" d="m817.8 420.4h4.5v17.1h-4.5z"/>
		<path id="Layer" class="s22" d="m826.6 420.4h4.5v17.1h-4.5z"/>
		<path id="Layer" class="s22" d="m835.8 413h3.7v33.5h-3.7z"/>
		<path id="Layer" class="s22" d="m844.7 413h3.7v33.5h-3.7z"/>
		<path id="Layer" class="s22" d="m853.3 417.2h4.1v24h-4.1z"/>
		<path id="Layer" class="s23" d="m511 641.6l24.1-20.2h-40.5z"/>
		<path id="Layer" class="s23" d="m533.6 621.5h292.7c12.3 0 22.2 10 22.2 22.2v26.6c0 12.3-10 22.2-22.2 22.2h-292.7c-12.3 0-22.2-10-22.2-22.2v-26.6c-0.1-12.2 9.9-22.2 22.2-22.2z"/>
		<g id="Layer">
			<path id="Layer" fill-rule="evenodd" class="s19" d="m557.6 657.1c0 1.2-0.2 2.3-0.5 3.2-0.3 1-0.7 1.8-1.3 2.5-0.6 0.7-1.3 1.2-2.2 1.6q-1.4 0.6-3 0.6c-1.2 0-2.2-0.2-3.1-0.6-0.9-0.4-1.6-0.9-2.2-1.6-0.6-0.7-1-1.5-1.3-2.5-0.3-1-0.4-2-0.4-3.2 0-1.6 0.3-2.9 0.8-4.1 0.5-1.2 1.3-2.1 2.4-2.8 1.1-0.7 2.4-1 4-1 1.5 0 2.8 0.3 3.8 1 1 0.6 1.8 1.6 2.4 2.7 0.6 1.1 0.6 2.6 0.6 4.2zm-12.2 0c0 1.3 0.2 2.4 0.6 3.4 0.4 1 0.9 1.7 1.7 2.2 0.8 0.5 1.7 0.8 2.9 0.8 1.2 0 2.2-0.3 2.9-0.8 0.8-0.5 1.3-1.2 1.7-2.2 0.4-1 0.5-2.1 0.5-3.4 0-2-0.4-3.5-1.2-4.6-0.8-1.1-2.1-1.7-3.9-1.7-1.2 0-2.2 0.3-2.9 0.8-0.7 0.5-1.3 1.2-1.7 2.2q-0.6 1.3-0.6 3.3z"/>
			<path id="Layer" class="s19" d="m567.7 664.8l-5.1-13.6h-0.1c0 0.3 0.1 0.6 0.1 1 0 0.4 0 0.9 0.1 1.3q0 0.7 0 1.5v9.7h-1.7v-15.3h2.6l4.9 12.7h0.1l4.9-12.7h2.6v15.3h-1.8v-9.7c0-0.5 0-0.9 0-1.4 0-0.5 0-0.9 0.1-1.3 0-0.4 0-0.8 0.1-1.1h-0.1l-5.2 13.5h-1.5z"/>
			<path id="Layer" class="s19" d="m586.8 656.7h5.4v7.4c-0.8 0.3-1.6 0.5-2.5 0.6-0.8 0.1-1.8 0.2-2.8 0.2-1.6 0-2.9-0.3-4-1-1.1-0.6-1.9-1.5-2.5-2.7-0.6-1.2-0.8-2.6-0.8-4.2q0-2.4 0.9-4.2c0.6-1.2 1.5-2.1 2.7-2.8 1.2-0.7 2.6-1 4.3-1 0.9 0 1.7 0.1 2.4 0.2 0.8 0.2 1.5 0.4 2.1 0.7l-0.7 1.6c-0.6-0.2-1.2-0.5-1.9-0.6q-1.1-0.3-2.1-0.3c-1.3 0-2.3 0.3-3.2 0.8-0.9 0.5-1.6 1.2-2 2.2-0.4 1-0.7 2.1-0.7 3.4q0 1.9 0.6 3.3c0.4 0.9 1.1 1.7 1.9 2.2 0.9 0.5 2 0.8 3.4 0.8 0.7 0 1.3 0 1.8-0.1 0.5-0.1 0.9-0.2 1.4-0.3v-4.7h-3.6v-1.5z"/>
			<path id="Layer" class="s19" d="m595.4 663.7c0-0.5 0.1-0.8 0.4-1q0.3-0.3 0.9-0.3 0.4 0 0.9 0.3c0.2 0.2 0.4 0.6 0.4 1 0 0.5-0.1 0.8-0.4 1.1q-0.3 0.3-0.9 0.3-0.6 0-0.9-0.3c-0.3-0.3-0.4-0.6-0.4-1.1zm1.8-3.2h-1.1l-0.5-11.1h2.1z"/>
			<path id="Layer" class="s19" d="m601 663.7c0-0.5 0.1-0.8 0.4-1 0.3-0.2 0.5-0.3 0.9-0.3q0.4 0 0.9 0.3c0.3 0.2 0.4 0.6 0.4 1 0 0.5-0.1 0.8-0.4 1.1q-0.3 0.3-0.9 0.3-0.6 0-0.9-0.3c-0.3-0.3-0.4-0.6-0.4-1.1zm1.9-3.2h-1.1l-0.5-11.1h2.1z"/>
			<path id="Layer" class="s19" d="m606.7 663.7c0-0.5 0.1-0.8 0.4-1 0.3-0.2 0.5-0.3 0.9-0.3q0.4 0 0.9 0.3c0.3 0.2 0.4 0.6 0.4 1 0 0.5-0.1 0.8-0.4 1.1q-0.3 0.3-0.9 0.3-0.6 0-0.9-0.3c-0.3-0.3-0.4-0.6-0.4-1.1zm1.8-3.2h-1.1l-0.5-11.1h2.1z"/>
			<path id="Layer" class="s19" d="m612.4 663.7c0-0.5 0.1-0.8 0.4-1q0.3-0.3 0.9-0.3 0.4 0 0.9 0.3c0.2 0.2 0.4 0.6 0.4 1 0 0.5-0.1 0.8-0.4 1.1q-0.3 0.3-0.9 0.3-0.6 0-0.9-0.3c-0.3-0.3-0.4-0.6-0.4-1.1zm1.8-3.2h-1.1l-0.5-11.1h2.1z"/>
		</g>
		<g id="Layer">
			<path id="Layer" fill-rule="evenodd" class="s19" d="m632.8 657.1c0 1.3-0.2 2.4-0.5 3.4-0.3 1-0.9 1.9-1.5 2.6-0.7 0.7-1.5 1.2-2.5 1.5l3.6 3.8h-2.5l-3-3.5q-0.1 0-0.3 0-0.2 0-0.3 0c-1.2 0-2.2-0.2-3.1-0.6-0.9-0.4-1.6-0.9-2.2-1.6-0.6-0.7-1-1.5-1.3-2.5-0.3-1-0.4-2-0.4-3.2 0-1.6 0.3-2.9 0.8-4.1 0.5-1.2 1.3-2.1 2.4-2.8 1.1-0.7 2.4-1 4-1 1.5 0 2.8 0.3 3.8 1q1.5 1 2.4 2.7c0.3 1.3 0.6 2.7 0.6 4.3zm-12.2 0c0 1.3 0.2 2.4 0.6 3.4 0.4 1 0.9 1.7 1.7 2.2 0.8 0.5 1.7 0.8 2.9 0.8 1.2 0 2.2-0.3 2.9-0.8 0.8-0.5 1.3-1.2 1.7-2.2 0.4-1 0.5-2.1 0.5-3.4 0-2-0.4-3.5-1.2-4.6-0.8-1.1-2.1-1.7-3.9-1.7-1.2 0-2.2 0.3-2.9 0.8-0.7 0.5-1.3 1.2-1.7 2.2q-0.6 1.3-0.6 3.3z"/>
		</g>
		<g id="Layer">
			<path id="Layer" class="s19" d="m645.6 653.3v11.5h-1.4l-0.3-1.6h-0.1c-0.2 0.4-0.5 0.7-0.9 1-0.4 0.3-0.8 0.5-1.3 0.6-0.5 0.1-1 0.2-1.5 0.2-0.9 0-1.7-0.1-2.3-0.4-0.6-0.3-1.1-0.7-1.4-1.4-0.3-0.6-0.5-1.4-0.5-2.4v-7.5h1.8v7.4q0 1.5 0.6 2.1c0.4 0.5 1.1 0.7 2 0.7 0.9 0 1.5-0.2 2-0.5 0.5-0.3 0.9-0.8 1.1-1.4 0.2-0.6 0.3-1.4 0.3-2.3v-6z"/>
			<path id="Layer" class="s19" d="m650.1 649c0.3 0 0.5 0.1 0.7 0.3q0.3 0.3 0.3 0.9 0 0.6-0.3 0.9c-0.2 0.2-0.5 0.3-0.7 0.3-0.3 0-0.5-0.1-0.7-0.3q-0.3-0.3-0.3-0.9 0-0.6 0.3-0.9c0.2-0.2 0.4-0.3 0.7-0.3zm0.9 4.3v11.5h-1.7v-11.5z"/>
			<path id="Layer" fill-rule="evenodd" class="s19" d="m659.1 653.1c1 0 1.8 0.2 2.5 0.6 0.7 0.4 1.2 1 1.6 1.8q0.6 1.2 0.6 2.7v1.1h-7.9c0 1.3 0.4 2.4 1 3.1 0.6 0.7 1.6 1.1 2.7 1.1 0.7 0 1.4-0.1 1.9-0.2 0.6-0.1 1.1-0.3 1.7-0.6v1.5c-0.6 0.3-1.2 0.4-1.7 0.6-0.6 0.1-1.2 0.2-2 0.2-1.1 0-2.1-0.2-2.9-0.7-0.8-0.5-1.5-1.1-1.9-2-0.5-0.9-0.7-1.9-0.7-3.2 0-1.2 0.2-2.3 0.6-3.2q0.6-1.4 1.8-2.1c0.8-0.5 1.6-0.7 2.7-0.7zm0 1.4c-0.9 0-1.7 0.3-2.2 0.9-0.6 0.6-0.9 1.5-1 2.5h6.1q0-1.1-0.3-1.8-0.3-0.7-0.9-1.2c-0.6-0.3-1.1-0.4-1.7-0.4z"/>
		</g>
		<g id="Layer">
			<path id="Layer" class="s19" d="m671.9 653.1c0.2 0 0.5 0 0.7 0 0.3 0 0.5 0.1 0.7 0.1l-0.2 1.6c-0.2 0-0.4-0.1-0.6-0.1-0.2 0-0.4 0-0.7 0-0.5 0-0.9 0.1-1.3 0.3-0.4 0.2-0.8 0.5-1.1 0.8-0.3 0.3-0.5 0.8-0.7 1.2-0.2 0.5-0.3 1-0.3 1.6v6.2h-1.8v-11.5h1.4l0.2 2.1h0.1q0.3-0.6 0.9-1.2c0.3-0.4 0.7-0.6 1.2-0.8 0.5-0.2 0.9-0.3 1.5-0.3z"/>
		</g>
		<g id="Layer">
			<path id="Layer" fill-rule="evenodd" class="s19" d="m683.4 659c0 0.9-0.1 1.8-0.4 2.5-0.2 0.7-0.6 1.4-1.1 1.9-0.5 0.5-1 0.9-1.7 1.2-0.7 0.3-1.4 0.4-2.2 0.4-0.8 0-1.5-0.1-2.1-0.4-0.6-0.3-1.2-0.7-1.7-1.2-0.5-0.5-0.8-1.1-1.1-1.9-0.3-0.7-0.4-1.6-0.4-2.5 0-1.3 0.2-2.3 0.6-3.2 0.4-0.9 1-1.6 1.8-2 0.8-0.5 1.7-0.7 2.8-0.7 1 0 2 0.2 2.8 0.7 0.8 0.5 1.4 1.1 1.8 2 0.4 0.9 0.9 2 0.9 3.2zm-8.8 0c0 0.9 0.1 1.7 0.4 2.4 0.2 0.7 0.6 1.2 1.1 1.6 0.5 0.4 1.2 0.6 2 0.6 0.8 0 1.5-0.2 2-0.6 0.5-0.4 0.9-0.9 1.1-1.6 0.2-0.7 0.4-1.5 0.4-2.4 0-0.9-0.1-1.7-0.4-2.4-0.2-0.7-0.6-1.2-1.1-1.5-0.5-0.4-1.2-0.5-2-0.5-1.2 0-2.1 0.4-2.6 1.2-0.6 0.7-0.9 1.8-0.9 3.2z"/>
		</g>
		<g id="Layer">
			<path id="Layer" class="s19" d="m694.4 665q-1.5 0-2.7-0.6c-0.8-0.4-1.4-1.1-1.8-1.9-0.4-0.9-0.7-2-0.7-3.3 0-1.4 0.2-2.5 0.7-3.4 0.5-0.9 1.1-1.5 1.9-2 0.8-0.4 1.7-0.6 2.8-0.6 0.6 0 1.1 0.1 1.7 0.2 0.5 0.1 1 0.3 1.3 0.4l-0.5 1.5c-0.3-0.1-0.8-0.3-1.2-0.4-0.5-0.1-0.9-0.2-1.3-0.2-0.8 0-1.5 0.2-2 0.5q-0.8 0.4-1.2 1.5c-0.3 0.7-0.4 1.5-0.4 2.5 0 0.9 0.1 1.7 0.4 2.4 0.3 0.7 0.6 1.2 1.1 1.5 0.5 0.3 1.1 0.5 1.9 0.5 0.6 0 1.2-0.1 1.6-0.2 0.4-0.1 0.9-0.3 1.3-0.5v1.6c-0.4 0.2-0.8 0.3-1.3 0.5-0.4-0.1-0.9 0-1.6 0z"/>
		</g>
		<g id="Layer">
			<path id="Layer" fill-rule="evenodd" class="s19" d="m709.2 659c0 0.9-0.1 1.8-0.4 2.5-0.2 0.7-0.6 1.4-1.1 1.9-0.5 0.5-1 0.9-1.7 1.2-0.7 0.3-1.4 0.4-2.2 0.4-0.8 0-1.5-0.1-2.1-0.4-0.6-0.3-1.2-0.7-1.7-1.2-0.5-0.5-0.8-1.1-1.1-1.9-0.3-0.7-0.4-1.6-0.4-2.5 0-1.3 0.2-2.3 0.6-3.2 0.4-0.9 1-1.6 1.8-2 0.8-0.5 1.7-0.7 2.8-0.7 1 0 2 0.2 2.8 0.7 0.8 0.5 1.4 1.1 1.8 2 0.4 0.9 0.9 2 0.9 3.2zm-8.7 0c0 0.9 0.1 1.7 0.4 2.4 0.2 0.7 0.6 1.2 1.1 1.6 0.5 0.4 1.2 0.6 2 0.6 0.8 0 1.5-0.2 2-0.6 0.5-0.4 0.9-0.9 1.1-1.6 0.2-0.7 0.4-1.5 0.4-2.4 0-0.9-0.1-1.7-0.4-2.4-0.2-0.7-0.6-1.2-1.1-1.5-0.5-0.4-1.2-0.5-2-0.5-1.2 0-2.1 0.4-2.6 1.2-0.7 0.7-0.9 1.8-0.9 3.2z"/>
			<path id="Layer" class="s19" d="m717.6 653.1c1.4 0 2.4 0.3 3.1 1 0.7 0.7 1 1.7 1 3.2v7.5h-1.7v-7.4c0-1-0.2-1.7-0.7-2.1-0.4-0.5-1.1-0.7-2-0.7-1.3 0-2.2 0.4-2.7 1.1-0.5 0.7-0.8 1.8-0.8 3.1v6h-1.7v-11.5h1.4l0.3 1.7h0.1c0.2-0.4 0.6-0.7 0.9-1 0.4-0.3 0.8-0.5 1.3-0.6q0.7-0.3 1.5-0.3z"/>
			<path id="Layer" fill-rule="evenodd" class="s19" d="m735.3 659c0 0.9-0.1 1.8-0.4 2.5-0.2 0.7-0.6 1.4-1.1 1.9-0.5 0.5-1 0.9-1.7 1.2-0.7 0.3-1.4 0.4-2.2 0.4-0.8 0-1.5-0.1-2.1-0.4-0.6-0.3-1.2-0.7-1.7-1.2-0.5-0.5-0.8-1.1-1.1-1.9-0.3-0.7-0.4-1.6-0.4-2.5 0-1.3 0.2-2.3 0.6-3.2 0.4-0.9 1-1.6 1.8-2 0.8-0.5 1.7-0.7 2.8-0.7 1 0 2 0.2 2.8 0.7 0.8 0.5 1.4 1.1 1.8 2 0.4 0.9 0.9 2 0.9 3.2zm-8.8 0c0 0.9 0.1 1.7 0.4 2.4 0.2 0.7 0.6 1.2 1.1 1.6 0.5 0.4 1.2 0.6 2 0.6 0.8 0 1.5-0.2 2-0.6 0.5-0.4 0.9-0.9 1.1-1.6 0.2-0.7 0.4-1.5 0.4-2.4 0-0.9-0.1-1.7-0.4-2.4-0.2-0.7-0.6-1.2-1.1-1.5-0.5-0.4-1.2-0.5-2-0.5-1.2 0-2.1 0.4-2.6 1.2-0.6 0.7-0.9 1.8-0.9 3.2z"/>
		</g>
		<g id="Layer">
			<path id="Layer" class="s19" d="m743.4 665q-1.5 0-2.7-0.6c-0.8-0.4-1.4-1.1-1.8-1.9-0.4-0.9-0.7-2-0.7-3.3 0-1.4 0.2-2.5 0.7-3.4 0.5-0.9 1.1-1.5 1.9-2 0.8-0.4 1.7-0.6 2.8-0.6 0.6 0 1.1 0.1 1.7 0.2 0.5 0.1 1 0.3 1.3 0.4l-0.5 1.5c-0.3-0.1-0.8-0.3-1.2-0.4-0.5-0.1-0.9-0.2-1.3-0.2-0.8 0-1.5 0.2-2 0.5q-0.7 0.4-1.2 1.5c-0.3 0.7-0.4 1.5-0.4 2.5 0 0.9 0.1 1.7 0.4 2.4 0.3 0.7 0.6 1.2 1.1 1.5 0.5 0.3 1.1 0.5 1.9 0.5 0.6 0 1.2-0.1 1.6-0.2 0.4-0.1 0.9-0.3 1.3-0.5v1.6c-0.4 0.2-0.8 0.3-1.3 0.5-0.4-0.1-1 0-1.6 0z"/>
		</g>
		<g id="Layer">
			<path id="Layer" fill-rule="evenodd" class="s19" d="m752.7 653.1c1 0 1.8 0.2 2.5 0.6 0.7 0.4 1.2 1 1.6 1.8q0.6 1.2 0.6 2.7v1.1h-7.9c0 1.3 0.4 2.4 1 3.1 0.6 0.7 1.6 1.1 2.7 1.1 0.7 0 1.4-0.1 1.9-0.2 0.6-0.1 1.1-0.3 1.7-0.6v1.5c-0.6 0.3-1.2 0.4-1.7 0.6-0.6 0.1-1.2 0.2-2 0.2-1.1 0-2.1-0.2-2.9-0.7-0.8-0.5-1.5-1.1-1.9-2-0.5-0.9-0.7-1.9-0.7-3.2 0-1.2 0.2-2.3 0.6-3.2q0.6-1.4 1.8-2.1c0.8-0.5 1.7-0.7 2.7-0.7zm0 1.4c-0.9 0-1.7 0.3-2.2 0.9-0.6 0.6-0.9 1.5-1 2.5h6.1q0-1.1-0.3-1.8-0.3-0.7-0.9-1.2c-0.4-0.3-1.1-0.4-1.7-0.4z"/>
		</g>
		<g id="Layer">
			<path id="Layer" class="s19" d="m765.2 653.1c0.2 0 0.5 0 0.7 0 0.3 0 0.5 0.1 0.7 0.1l-0.2 1.6c-0.2 0-0.4-0.1-0.6-0.1-0.2 0-0.4 0-0.7 0-0.5 0-0.9 0.1-1.3 0.3-0.4 0.2-0.8 0.5-1.1 0.8-0.3 0.3-0.5 0.8-0.7 1.2-0.2 0.5-0.3 1-0.3 1.6v6.2h-1.8v-11.5h1.4l0.2 2.1h0.1q0.3-0.6 0.9-1.2c0.3-0.4 0.7-0.6 1.2-0.8q0.8-0.3 1.5-0.3z"/>
		</g>
		<g id="Layer">
			<path id="Layer" class="s19" d="m770.9 664.8h-1.8v-16.3h1.8z"/>
			<path id="Layer" fill-rule="evenodd" class="s19" d="m784.4 659c0 0.9-0.1 1.8-0.4 2.5-0.2 0.7-0.6 1.4-1.1 1.9-0.5 0.5-1 0.9-1.7 1.2-0.7 0.3-1.4 0.4-2.2 0.4-0.8 0-1.5-0.1-2.1-0.4-0.6-0.3-1.2-0.7-1.7-1.2-0.5-0.5-0.8-1.1-1.1-1.9-0.3-0.7-0.4-1.6-0.4-2.5 0-1.3 0.2-2.3 0.6-3.2 0.4-0.9 1-1.6 1.8-2 0.8-0.5 1.7-0.7 2.8-0.7 1 0 2 0.2 2.8 0.7 0.8 0.5 1.4 1.1 1.8 2 0.4 0.9 0.9 2 0.9 3.2zm-8.7 0c0 0.9 0.1 1.7 0.4 2.4 0.2 0.7 0.6 1.2 1.1 1.6 0.5 0.4 1.2 0.6 2 0.6 0.8 0 1.5-0.2 2-0.6 0.5-0.4 0.9-0.9 1.1-1.6 0.2-0.7 0.4-1.5 0.4-2.4 0-0.9-0.1-1.7-0.4-2.4-0.2-0.7-0.6-1.2-1.1-1.5-0.5-0.4-1.2-0.5-2-0.5-1.2 0-2.1 0.4-2.6 1.2-0.6 0.7-0.9 1.8-0.9 3.2z"/>
			<path id="Layer" class="s19" d="m787.2 663.7c0-0.5 0.1-0.8 0.4-1q0.3-0.3 0.9-0.3 0.4 0 0.9 0.3c0.2 0.2 0.4 0.6 0.4 1 0 0.5-0.1 0.8-0.4 1.1q-0.3 0.3-0.9 0.3-0.6 0-0.9-0.3c-0.3-0.3-0.4-0.6-0.4-1.1zm1.8-3.2h-1.1l-0.5-11.1h2.1z"/>
			<path id="Layer" class="s19" d="m792.8 663.7c0-0.5 0.1-0.8 0.4-1 0.3-0.2 0.5-0.3 0.9-0.3q0.5 0 0.9 0.3c0.3 0.2 0.4 0.6 0.4 1 0 0.5-0.1 0.8-0.4 1.1q-0.3 0.3-0.9 0.3-0.6 0-0.9-0.3c-0.2-0.3-0.4-0.6-0.4-1.1zm1.9-3.2h-1.1l-0.5-11.1h2.1z"/>
		</g>
		<g id="Layer">
			<path id="Layer" class="s15" d="m862.1 690.9h-1.8v-7c0-0.2 0-0.5 0-0.7 0-0.2 0-0.5 0-0.7q0-0.3 0-0.6c-0.1 0.1-0.2 0.2-0.4 0.4-0.2 0.1-0.3 0.3-0.5 0.4l-1.3 1-0.9-1.1 3.2-2.5h1.5v10.8z"/>
			<path id="Layer" class="s15" d="m866 683.6q0-0.6 0.3-0.9c0.2-0.2 0.5-0.3 0.8-0.3 0.3 0 0.6 0.1 0.8 0.3q0.3 0.3 0.3 0.9 0 0.6-0.3 0.9c-0.2 0.2-0.5 0.3-0.8 0.3-0.3 0-0.6-0.1-0.8-0.3q-0.3-0.3-0.3-0.9zm0 6.4q0-0.6 0.3-0.9c0.2-0.2 0.5-0.2 0.8-0.2 0.3 0 0.6 0.1 0.8 0.2q0.3 0.3 0.3 0.9 0 0.6-0.3 0.9c-0.2 0.2-0.5 0.3-0.8 0.3-0.3 0-0.6-0.1-0.8-0.3q-0.3-0.3-0.3-0.9z"/>
			<path id="Layer" class="s15" d="m875.1 690.9h-1.8v-7c0-0.2 0-0.5 0-0.7 0-0.2 0-0.5 0-0.7q0-0.3 0-0.6c-0.1 0.1-0.2 0.2-0.4 0.4-0.2 0.1-0.3 0.3-0.5 0.4l-1.3 1-0.9-1.1 3.2-2.5h1.5v10.8z"/>
			<path id="Layer" fill-rule="evenodd" class="s15" d="m886 685.4c0 0.9-0.1 1.7-0.2 2.4-0.1 0.7-0.4 1.3-0.6 1.8-0.3 0.5-0.7 0.9-1.2 1.1-0.5 0.3-1 0.4-1.7 0.4-0.8 0-1.5-0.2-2.1-0.7-0.5-0.4-1-1.1-1.2-1.9-0.3-0.8-0.4-1.8-0.4-3 0-1.2 0.1-2.2 0.4-3 0.3-0.8 0.6-1.5 1.2-1.9 0.5-0.4 1.3-0.7 2.2-0.7 0.8 0 1.5 0.2 2.1 0.7 0.5 0.4 1 1.1 1.2 1.9 0.2 0.7 0.3 1.8 0.3 2.9zm-5.6 0c0 0.9 0.1 1.7 0.2 2.3 0.1 0.6 0.3 1.1 0.6 1.4 0.3 0.3 0.7 0.5 1.1 0.5 0.4 0 0.9-0.2 1.1-0.5 0.3-0.3 0.5-0.8 0.6-1.4 0.1-0.6 0.2-1.4 0.2-2.3 0-0.9-0.1-1.7-0.2-2.3-0.1-0.6-0.3-1.1-0.6-1.4-0.3-0.3-0.7-0.5-1.1-0.5-0.4 0-0.9 0.2-1.1 0.5-0.3 0.3-0.5 0.8-0.6 1.4-0.1 0.6-0.2 1.4-0.2 2.3z"/>
			<path id="Layer" fill-rule="evenodd" class="s15" d="m895.2 682.5c1 0 1.8 0.2 2.4 0.7 0.5 0.5 0.8 1.2 0.8 2.2v5.6h-1.2l-0.3-1.2h-0.1c-0.2 0.3-0.5 0.5-0.7 0.7-0.2 0.2-0.5 0.3-0.9 0.4-0.3 0.1-0.7 0.1-1.2 0.1-0.5 0-0.9-0.1-1.3-0.3-0.4-0.2-0.7-0.5-0.9-0.8-0.2-0.4-0.3-0.8-0.3-1.4 0-0.9 0.3-1.5 1-1.9 0.6-0.4 1.6-0.7 2.9-0.7l1.4-0.1v-0.4c0-0.6-0.1-1-0.4-1.2-0.3-0.2-0.6-0.4-1.1-0.4-0.4 0-0.8 0.1-1.2 0.2-0.4 0.1-0.8 0.3-1.1 0.4l-0.6-1.2c0.4-0.2 0.9-0.4 1.4-0.5 0.3-0.2 0.8-0.2 1.4-0.2zm0.3 4.4c-0.9 0-1.5 0.2-1.8 0.4-0.4 0.3-0.5 0.6-0.5 1.1 0 0.4 0.1 0.7 0.4 0.9 0.2 0.2 0.6 0.3 1 0.3 0.6 0 1.1-0.2 1.5-0.5 0.4-0.3 0.6-0.9 0.6-1.5v-0.7z"/>
			<path id="Layer" class="s15" d="m910.1 682.5c0.9 0 1.6 0.2 2.1 0.7 0.5 0.5 0.7 1.2 0.7 2.3v5.4h-1.8v-5.1c0-0.6-0.1-1.1-0.4-1.4-0.2-0.3-0.6-0.5-1.1-0.5-0.7 0-1.2 0.2-1.5 0.7-0.3 0.4-0.5 1.1-0.5 1.9v4.4h-1.8v-5.1c0-0.4-0.1-0.8-0.2-1-0.1-0.3-0.3-0.5-0.5-0.6-0.2-0.1-0.5-0.2-0.8-0.2q-0.8 0-1.2 0.3c-0.3 0.2-0.5 0.5-0.6 1-0.1 0.5-0.2 0.9-0.2 1.6v4.1h-1.8v-8.3h1.4l0.2 1.1h0.1c0.2-0.3 0.4-0.5 0.6-0.7 0.3-0.2 0.5-0.3 0.8-0.4 0.3-0.1 0.6-0.1 1-0.1 0.6 0 1.1 0.1 1.6 0.3 0.4 0.2 0.7 0.5 0.9 1h0.1c0.3-0.4 0.6-0.8 1.1-1 0.5-0.2 1.3-0.4 1.8-0.4z"/>
		</g>
		<g id="Layer">
			<g id="Clip-Path" clip-path="url(#cp1)">
				<g id="Layer">
				</g>
			</g>
		</g>
		<g id="Shushing_Face">
			<g id="circle">
				<path id="Layer" class="s24" d="m691.4 289.3c-6.4 0-11.5-5.1-11.5-11.5 0-6.4 5.1-11.5 11.5-11.5 6.4 0 11.5 5.1 11.5 11.5 0 6.4-5.1 11.5-11.5 11.5z"/>
				<path id="Layer" class="s25" d="m681.8 274c0.1-0.8 0.4-1.7 0.8-2.4 0.4-0.7 1-1.4 1.6-2 0.6-0.6 1.4-1 2.2-1.3 0.8-0.3 1.6-0.5 2.5-0.5-0.7 0.4-1.4 0.8-2.1 1.3-0.7 0.4-1.3 0.9-1.9 1.4-0.6 0.5-1.1 1.1-1.7 1.6-0.4 0.6-0.9 1.2-1.4 1.9z"/>
				<path id="Layer" class="s26" d="m702.9 277.8c0 6.3-5.1 11.5-11.5 11.5-3.5 0-6.6-1.5-8.7-4 2 1.8 4.6 2.8 7.5 2.8 6.3 0 11.5-5.1 11.5-11.5 0-2.9-1.1-5.5-2.8-7.5 2.5 2.2 4 5.3 4 8.7z"/>
			</g>
			<path id="Layer" class="s27" d="m688.9 270c-0.1 0.2-0.3 0.4-0.5 0.4-2.2 0.1-3 0.7-4.4 2.4-0.2 0.3-0.6 0.3-0.8 0.1-0.3-0.2-0.3-0.6-0.1-0.8 1.5-1.9 2.6-2.7 5.2-2.9 0.3 0 0.6 0.2 0.6 0.5q0 0.3 0 0.3z"/>
			<path id="Layer" class="s27" d="m694 270c0.1 0.2 0.3 0.4 0.5 0.4 2.2 0.1 3 0.7 4.4 2.4 0.2 0.3 0.6 0.3 0.8 0.1 0.3-0.2 0.3-0.6 0.1-0.8-1.5-1.9-2.6-2.7-5.2-2.9-0.3 0-0.6 0.2-0.6 0.5-0.1 0.2 0 0.3 0 0.3z"/>
			<path id="Layer" class="s27" d="m687.6 276.9c-0.7 0-1.2-0.7-1.2-1.6 0-0.9 0.5-1.6 1.2-1.6 0.7 0 1.2 0.7 1.2 1.6 0 0.9-0.5 1.6-1.2 1.6z"/>
			<path id="Layer" class="s27" d="m695.3 276.9c-0.7 0-1.2-0.7-1.2-1.6 0-0.9 0.5-1.6 1.2-1.6 0.7 0 1.2 0.7 1.2 1.6 0 0.9-0.5 1.6-1.2 1.6z"/>
			<path id="Layer" class="s27" d="m691.4 283.2c-1.5 0-2.8-0.5-2.8-1.2 0-0.7 1.3-1.2 2.8-1.2 1.5 0 2.8 0.5 2.8 1.2 0 0.7-1.3 1.2-2.8 1.2z"/>
			<path id="Layer" class="s28" d="m690.8 278.9l-2.1 10.5c-0.1 0.6 0.4 1.2 1 1.2h3.1c0.8 0 1.6-0.5 1.9-1.2l0.4-0.8 1.8-3.1c0.4-0.6 0.1-1.4-0.5-1.7-0.5-0.2-1.2-0.1-1.5 0.4l-0.1 0.2q-0.9-0.9-2.4-0.9l0.9-4.2c0.2-0.7-0.4-1.4-1.1-1.4-0.8 0.1-1.3 0.5-1.4 1z"/>
			<path id="Layer" class="s29" d="m694.5 287.1c-0.1 0-0.2-0.1-0.2-0.2 0-0.2 0-0.4-0.2-0.6-0.3-0.5-1.2-0.7-1.9-0.8-0.1 0-0.2-0.1-0.2-0.2 0-0.1 0.1-0.2 0.2-0.2 0.9 0.2 1.8 0.4 2.2 1 0.2 0.2 0.3 0.5 0.2 0.9 0.1 0 0 0.1-0.1 0.1z"/>
			<path id="Layer" class="s29" d="m692.2 290.4q-0.2 0-0.3 0c-0.8-0.2-1-0.7-0.9-1 0.1-0.4 0.5-0.7 1.2-0.7 0.1 0 0.2 0.1 0.2 0.2 0 0.1-0.1 0.2-0.2 0.2-0.5 0-0.8 0.2-0.8 0.4 0 0.2 0.2 0.4 0.6 0.5 1 0.1 1.5-0.3 1.6-1.1 0.1-0.4 0-0.6-0.1-0.8-0.2-0.3-0.8-0.5-1.7-0.5-0.1 0-0.2-0.1-0.2-0.2 0-0.1 0.1-0.2 0.2-0.2 1.1 0 1.7 0.3 2 0.7 0.2 0.3 0.3 0.7 0.2 1.2-0.3 1.1-1.1 1.3-1.8 1.3z"/>
		</g>
		<g id="Shushing_Face-2">
			<g id="circle-2">
				<path id="Layer" class="s24" d="m826.1 588.4c-17 0-30.8-13.8-30.8-30.8 0-17 13.8-30.8 30.8-30.8 17 0 30.8 13.8 30.8 30.8 0 17-13.8 30.8-30.8 30.8z"/>
				<path id="Layer" class="s25" d="m800.3 547.3c0.2-2.3 1.1-4.4 2.2-6.4 1.2-2 2.6-3.8 4.4-5.3 1.7-1.5 3.7-2.8 5.9-3.6 2.1-0.9 4.4-1.4 6.7-1.3-2 1.1-3.8 2.2-5.6 3.4-1.8 1.2-3.4 2.4-5 3.8-1.6 1.4-3 2.8-4.4 4.4-1.5 1.4-2.8 3.1-4.2 5z"/>
				<path id="Layer" class="s26" d="m856.9 557.6c0 17-13.8 30.8-30.8 30.8-9.3 0-17.6-4.1-23.2-10.6 5.4 4.7 12.5 7.5 20.2 7.5 17 0 30.8-13.8 30.8-30.8 0-7.7-2.8-14.7-7.5-20.1 6.4 5.6 10.5 13.9 10.5 23.2z"/>
			</g>
			<path id="Layer" class="s27" d="m819.2 536.7c-0.2 0.6-0.7 1-1.4 1-5.8 0.3-8 1.9-11.7 6.5-0.5 0.7-1.5 0.8-2.2 0.2-0.7-0.5-0.8-1.5-0.2-2.2 4-5 7-7.3 13.9-7.7 0.9-0.1 1.6 0.6 1.7 1.5 0 0.3 0 0.5-0.1 0.7z"/>
			<path id="Layer" class="s27" d="m833 536.7c0.2 0.6 0.7 1 1.4 1 5.8 0.3 8 1.9 11.7 6.5 0.5 0.7 1.5 0.8 2.2 0.2 0.7-0.5 0.8-1.5 0.2-2.2-4-5-7-7.3-13.9-7.7-0.9-0.1-1.6 0.6-1.7 1.5 0 0.3 0 0.5 0.1 0.7z"/>
			<path id="Layer" class="s27" d="m815.8 555.2c-1.8 0-3.2-2-3.2-4.4 0-2.4 1.4-4.4 3.2-4.4 1.8 0 3.2 2 3.2 4.4 0 2.4-1.4 4.4-3.2 4.4z"/>
			<path id="Layer" class="s27" d="m836.4 555.2c-1.8 0-3.2-2-3.2-4.4 0-2.4 1.4-4.4 3.2-4.4 1.8 0 3.2 2 3.2 4.4 0 2.4-1.4 4.4-3.2 4.4z"/>
			<path id="Layer" class="s27" d="m826.1 572.1c-4.1 0-7.4-1.5-7.4-3.3 0-1.8 3.3-3.3 7.4-3.3 4.1 0 7.4 1.5 7.4 3.3 0 1.8-3.3 3.3-7.4 3.3z"/>
			<path id="Layer" class="s28" d="m824.4 560.6l-5.6 28.2c-0.3 1.7 1 3.3 2.7 3.3h8.2c2.2 0 4.2-1.3 5.1-3.3l0.9-2.1 4.8-8.2c1-1.7 0.3-3.8-1.5-4.6-1.5-0.7-3.2-0.1-4 1.2l-0.3 0.4c-1.7-1.7-3.8-2.5-6.5-2.4l2.3-11.2c0.4-1.9-1.1-3.8-3.1-3.8h-0.1c-1.3-0.1-2.6 1-2.9 2.5z"/>
			<path id="Layer" class="s29" d="m834.2 582.5c-0.3 0-0.5-0.3-0.5-0.6 0-0.6-0.1-1.1-0.4-1.6-0.9-1.2-3.1-1.8-5.1-2.2-0.3-0.1-0.5-0.3-0.5-0.6 0-0.3 0.3-0.5 0.6-0.5 2.3 0.4 4.7 1.1 5.8 2.6 0.5 0.6 0.7 1.4 0.6 2.3 0.1 0.4-0.2 0.6-0.5 0.6z"/>
			<path id="Layer" class="s29" d="m828.1 591.2c-0.3 0-0.6 0-0.8 0h-0.1c-2.1-0.5-2.7-1.7-2.5-2.6 0.2-1 1.2-1.9 3.3-2 0.3 0 0.6 0.3 0.6 0.6 0 0.3-0.3 0.5-0.5 0.5-1.3 0-2.1 0.5-2.2 1-0.1 0.4 0.4 1 1.6 1.3h0.1c2.7 0.2 3.9-0.7 4.3-3 0.2-1 0.1-1.7-0.3-2.3-0.7-0.8-2.2-1.3-4.6-1.4-0.3 0-0.5-0.3-0.5-0.6 0-0.3 0.3-0.6 0.6-0.5 2.8 0.1 4.5 0.7 5.4 1.8 0.6 0.8 0.8 1.9 0.5 3.2-0.7 3.4-2.9 4-4.9 4z"/>
		</g>
	</g>
</svg>