<svg version="1.2" xmlns="http://www.w3.org/2000/svg" viewBox="0 0 1114 290" width="1114" height="290">
	<title>dstars-svg</title>
	<style>
		.s0 { fill: #ffffff } 
		.s1 { opacity: .3;fill: #ffffff } 
	</style>
	<g id="Capa_2-2">
		<g id="Layer">
			<path id="Layer" class="s0" d="m33.5 51.9l13.2-11.2c0.2-0.2 0-0.5-0.2-0.5l-17.6 5q-0.2 0-0.3-0.1l-9.4-14c-0.1-0.2-0.4-0.1-0.4 0.1l-1.4 17.1q-0.1 0.1-0.2 0.2l-17 4.8c-0.3 0.1-0.3 0.4 0 0.5l16.2 3.1c0.1 0.1 0.2 0.2 0.2 0.3l-2.3 27.2c0 0.3 0.4 0.4 0.5 0.1l10.5-25.5c0.1-0.1 0.3-0.2 0.4-0.1l24.8 19.5c0.2 0.2 0.5-0.1 0.4-0.3l-17.5-25.9c0-0.1 0-0.2 0.1-0.3z"/>
			<path id="Layer" class="s0" d="m156.3 146.9l13.2-11.2c0.2-0.1 0.1-0.5-0.2-0.4l-17.6 4.9q-0.1 0.1-0.2-0.1l-9.4-13.9c-0.2-0.2-0.5-0.1-0.5 0.1l-1.4 17q0 0.2-0.2 0.2l-17 4.8c-0.2 0.1-0.2 0.5 0 0.5l16.2 3.2c0.2 0 0.2 0.1 0.2 0.3l-2.3 27.1c0 0.3 0.4 0.4 0.5 0.2l10.5-25.5c0.1-0.2 0.3-0.2 0.4-0.1l24.8 19.5c0.3 0.2 0.5-0.1 0.4-0.4l-17.4-25.8c-0.1-0.1-0.1-0.3 0-0.4z"/>
			<path id="Layer" class="s0" d="m220.1-54.8l13.3-11.2c0.2-0.2 0-0.5-0.3-0.4l-17.5 4.9q-0.2 0.1-0.3-0.1l-9.4-13.9c-0.1-0.2-0.4-0.2-0.4 0.1l-1.5 17q0 0.2-0.2 0.2l-17 4.8c-0.2 0.1-0.2 0.4 0.1 0.5l16.2 3.2c0.1 0 0.2 0.1 0.2 0.2l-2.3 27.2c-0.1 0.3 0.3 0.4 0.4 0.1l10.6-25.4c0-0.2 0.2-0.2 0.4-0.1l24.8 19.5c0.2 0.1 0.5-0.1 0.3-0.4l-17.4-25.9c-0.1-0.1 0-0.2 0-0.3z"/>
			<path id="Layer" class="s0" d="m269.2 114.7l16.8-4.1c0.3 0 0.3-0.4 0-0.5l-17.9-3.4q-0.2-0.1-0.2-0.2l-2.1-16.7c0-0.3-0.3-0.3-0.5-0.1l-8.9 14.5q-0.1 0.2-0.3 0.2l-17.3-3.4c-0.2-0.1-0.4 0.3-0.2 0.4l13 10.2c0.1 0 0.2 0.2 0.1 0.3l-14.3 23.2c-0.1 0.3 0.2 0.5 0.4 0.3l20.9-18c0.1-0.1 0.3-0.1 0.4 0.1l13.4 28.6c0.1 0.2 0.5 0.1 0.4-0.2l-3.9-30.9c0-0.1 0.1-0.3 0.2-0.3z"/>
			<path id="Layer" class="s0" d="m694.1 98.7l16.8-4.1c0.3 0 0.3-0.4 0-0.5l-17.9-3.4q-0.2-0.1-0.2-0.2l-2.1-16.7c0-0.3-0.4-0.3-0.5-0.1l-8.9 14.5q-0.1 0.2-0.3 0.2l-17.3-3.4c-0.3-0.1-0.4 0.3-0.2 0.4l13 10.2c0.1 0 0.2 0.2 0.1 0.3l-14.3 23.2c-0.1 0.3 0.2 0.5 0.4 0.3l20.9-18c0.1-0.1 0.3-0.1 0.3 0.1l13.4 28.6c0.2 0.2 0.6 0.1 0.5-0.2l-3.9-30.9c0-0.1 0-0.3 0.2-0.3z"/>
			<path id="Layer" class="s0" d="m368.2 264.8l-16.9 4.3c-0.2 0.1-0.2 0.4 0.1 0.5l17.9 3.2q0.2 0.1 0.2 0.3l2.3 16.6c0.1 0.3 0.4 0.3 0.5 0.1l8.8-14.7q0.1-0.1 0.2-0.1l17.4 3.2c0.2 0 0.4-0.3 0.2-0.5l-13.2-9.9c-0.1-0.1-0.1-0.2 0-0.4l14-23.4c0.1-0.2-0.2-0.5-0.4-0.3l-20.7 18.3c-0.1 0.1-0.3 0.1-0.4-0.1l-13.7-28.4c-0.1-0.2-0.5-0.1-0.5 0.1l4.3 30.9c0 0.2 0 0.3-0.1 0.3z"/>
			<path id="Layer" class="s0" d="m927 100.5l16.8-4.1c0.3-0.1 0.3-0.4 0-0.5l-17.9-3.4q-0.2-0.1-0.2-0.3l-2.1-16.7c-0.1-0.2-0.4-0.3-0.5-0.1l-8.9 14.6q-0.1 0.2-0.3 0.1l-17.3-3.3c-0.3-0.1-0.4 0.2-0.2 0.4l13 10.1c0.1 0.1 0.1 0.2 0.1 0.4l-14.3 23.2c-0.1 0.2 0.2 0.5 0.4 0.3l20.8-18c0.2-0.1 0.4-0.1 0.4 0.1l13.4 28.5c0.2 0.3 0.5 0.2 0.5-0.1l-3.9-30.9c0-0.2 0-0.3 0.2-0.3z"/>
			<path id="Layer" class="s0" d="m953.4-19.2l4.9-7.8c0.1-0.1-0.1-0.2-0.2-0.2l-8.1 5.3q-0.1 0-0.2 0l-6.9-5.6c-0.1-0.1-0.2 0-0.2 0.1l1.9 8.9q0.1 0.1 0 0.1l-7.8 5.1c-0.2 0.1-0.1 0.2 0 0.2l8.7-0.9q0.1 0 0.2 0.1l3.1 14.1c0 0.1 0.2 0.1 0.2 0l1.3-14.5c0.1-0.1 0.1-0.2 0.2-0.2l15.6 6c0.2 0.1 0.3-0.1 0.1-0.2l-12.8-10.4q-0.1 0 0-0.1z"/>
			<path id="Layer" class="s0" d="m354.2 19.6l7.1 5.9c0.1 0.1 0.2-0.1 0.2-0.2l-4.2-8.7q0-0.1 0-0.1l6.5-6.2c0.1-0.1 0-0.2-0.1-0.2l-9 0.8q-0.1 0-0.2-0.1l-4-8.5c-0.1-0.1-0.2 0-0.2 0.1l-0.3 8.7q0 0.1-0.1 0.2l-14.3 1.2c-0.2 0-0.2 0.2-0.1 0.3l14.3 3.2c0 0 0.1 0.1 0.1 0.2l-8 14.6c-0.1 0.2 0.1 0.3 0.2 0.2l11.9-11.4q0.1-0.1 0.2 0z"/>
			<path id="Layer" class="s0" d="m1095.5 17.9l7.2-8.3c0.1-0.1 0-0.3-0.2-0.2l-10.5 4.7q-0.1 0.1-0.1 0l-7.2-7.8c-0.1-0.1-0.3 0-0.3 0.1l0.7 10.8q0 0.1-0.1 0.1l-10.1 4.6c-0.2 0.1-0.1 0.3 0 0.3l10.4 0.5q0.2 0 0.2 0.1l1.1 17.2c0 0.2 0.3 0.2 0.3 0l4.2-16.9c0-0.1 0.1-0.1 0.2-0.1l17.3 9.8c0.2 0.1 0.3-0.1 0.2-0.2l-13.3-14.5q-0.1-0.1 0-0.2z"/>
			<path id="Layer" class="s0" d="m727.5 27.5l5-5.7c0.1-0.1 0-0.2-0.1-0.2l-7.3 3.3q0 0-0.1 0l-5-5.5c0 0-0.2 0-0.2 0.1l0.5 7.5q0 0.1 0 0.1l-7.1 3.2c-0.1 0 0 0.2 0.1 0.2l7.2 0.3q0.1 0 0.1 0.1l0.8 11.9c0 0.1 0.1 0.1 0.2 0l2.9-11.7c0-0.1 0.1-0.1 0.1-0.1l12 6.8c0.1 0.1 0.2 0 0.2-0.1l-9.3-10.1q0 0 0-0.1z"/>
			<path id="Layer" class="s1" d="m168.5 52.4c-18.3 0-33.1-14.7-33.1-33 0-18.3 14.8-33.1 33.1-33.1 18.3 0 33.1 14.8 33.1 33.1 0 18.3-14.8 33-33.1 33z"/>
			<path id="Layer" class="s1" d="m829.9-13.3c-18.3 0-33.1-14.8-33.1-33.1 0-18.3 14.8-33.1 33.1-33.1 18.3 0 33.1 14.8 33.1 33.1 0 18.3-14.8 33.1-33.1 33.1z"/>
			<path id="Layer" class="s1" d="m838.7 155.6c-18.2 0-33-14.8-33-33.1 0-18.3 14.8-33.1 33-33.1 18.3 0 33.1 14.8 33.1 33.1 0 18.3-14.8 33.1-33.1 33.1z"/>
			<path id="Layer" class="s1" d="m475 32.9c-60 0-108.5-48.5-108.5-108.5 0-59.9 48.5-108.4 108.5-108.4 60 0 108.4 48.5 108.4 108.4 0 60-48.4 108.5-108.4 108.5z"/>
			<path id="Layer" class="s1" d="m1080.5 287.1c-18.3 0-33.1-14.8-33.1-33.1 0-18.3 14.8-33.1 33.1-33.1 18.3 0 33.1 14.8 33.1 33.1 0 18.3-14.8 33.1-33.1 33.1z"/>
		</g>
	</g>
</svg>